<?xml version="1.0" encoding="UTF-8" standalone="no"?>
<!-- Created with Inkscape (http://www.inkscape.org/) -->

<svg
   xmlns:dc="http://purl.org/dc/elements/1.1/"
   xmlns:cc="http://creativecommons.org/ns#"
   xmlns:rdf="http://www.w3.org/1999/02/22-rdf-syntax-ns#"
   xmlns:svg="http://www.w3.org/2000/svg"
   xmlns="http://www.w3.org/2000/svg"
   xmlns:sodipodi="http://sodipodi.sourceforge.net/DTD/sodipodi-0.dtd"
   xmlns:inkscape="http://www.inkscape.org/namespaces/inkscape"
   id="svg2"
   version="1.1"
   inkscape:version="0.91 r13725"
   xml:space="preserve"
   width="583.75"
   height="241.25"
   viewBox="0 0 583.75 241.25"
   sodipodi:docname="DBE_Logo_RGB-eps-converted-to.svg"><metadata
     id="metadata8"><rdf:RDF><cc:Work
         rdf:about=""><dc:format>image/svg+xml</dc:format><dc:type
           rdf:resource="http://purl.org/dc/dcmitype/StillImage" /><dc:title></dc:title></cc:Work></rdf:RDF></metadata><defs
     id="defs6"><clipPath
       clipPathUnits="userSpaceOnUse"
       id="clipPath18"><path
         d="m 0,0 4668.78,0 0,1921.27 L 0,1921.27 0,0 Z"
         id="path20"
         inkscape:connector-curvature="0" /></clipPath></defs><sodipodi:namedview
     pagecolor="#ffffff"
     bordercolor="#666666"
     borderopacity="1"
     objecttolerance="10"
     gridtolerance="10"
     guidetolerance="10"
     inkscape:pageopacity="0"
     inkscape:pageshadow="2"
     inkscape:window-width="729"
     inkscape:window-height="480"
     id="namedview4"
     showgrid="false"
     inkscape:zoom="0.82226981"
     inkscape:cx="291.875"
     inkscape:cy="120.625"
     inkscape:window-x="0"
     inkscape:window-y="27"
     inkscape:window-maximized="0"
     inkscape:current-layer="g10" /><g
     id="g10"
     inkscape:groupmode="layer"
     inkscape:label="DBE_Logo_RGB-eps-converted-to"
     transform="matrix(1.25,0,0,-1.25,0,241.25)"><g
       id="g12"
       transform="scale(0.1,0.1)"><g
         id="g14"><g
           id="g16"
           clip-path="url(#clipPath18)"><path
             d="m 1180.21,1192.07 108.83,186.47 c 6.21,10.55 6.21,23.68 0,34.32 L 1170.2,1616.4 c -6.08,10.38 -17.29,16.85 -29.4,16.85 l -394.128,0 c -18.805,0 -34.059,-15.25 -34.059,-34.05 0,-18.81 15.254,-34.06 34.059,-34.06 l 374.568,0 98.97,-169.48 -98.97,-169.57 -374.568,0 c -18.805,0 -34.059,-15.26 -34.059,-34.06 0,-18.81 15.254,-34.06 34.059,-34.06 l 374.568,0 98.97,-169.572 -98.97,-169.66 -374.568,0 c -18.805,0 -34.059,-15.258 -34.059,-34.058 0,-18.801 15.254,-34.051 34.059,-34.051 l 394.128,0 c 12.11,0 23.32,6.383 29.4,16.84 l 118.84,203.812 c 6.21,10.645 6.21,23.68 0,34.329 l -108.83,186.46"
             style="fill:#ca1b34;fill-opacity:1;fill-rule:nonzero;stroke:none"
             id="path22"
             inkscape:connector-curvature="0" /><path
             d="m 409.961,807.121 10.156,17.41 -217.754,0 -134.2497,178.609 0,383.02 134.2497,178.98 302.715,0 c 18.805,0 34.059,15.25 34.059,34.06 l 0,288.01 c 0,18.81 -15.254,34.06 -34.059,34.06 -18.801,0 -34.055,-15.25 -34.055,-34.06 l 0,-253.96 -288.21,0 c -12.11,0 -23.333,-6.47 -29.446,-16.94 L 4.60938,1412.5 C 1.59766,1407.36 0,1401.42 0,1395.39 L 0,994.016 C 0,987.98 1.59766,982.043 4.65625,976.809 L 153.406,773.262 c 6.074,-10.461 17.297,-16.84 29.407,-16.84 l 236.703,0 -9.555,16.367 c -6.207,10.652 -6.207,23.77 0,34.332"
             style="fill:#615f67;fill-opacity:1;fill-rule:nonzero;stroke:none"
             id="path24"
             inkscape:connector-curvature="0" /><path
             d="m 1731.24,748.57 c 5.06,-0.699 11.89,-1.32 20.49,-1.898 8.6,-0.531 17.56,-0.84 27.05,-0.84 14.28,0 28.2,1.328 41.86,3.859 13.66,2.528 25.81,6.911 36.36,13.118 10.65,6.211 19.07,14.421 25.46,24.613 6.38,10.207 9.57,22.969 9.57,38.308 0,15.309 -2.74,28.168 -8.15,38.59 -5.5,10.379 -12.95,18.84 -22.44,25.41 -9.49,6.559 -20.67,11.309 -33.35,14.231 -12.77,2.93 -26.52,4.34 -41.06,4.34 l -55.79,0 0,-159.731 z m 51.97,195.297 c 29.53,0 51.09,6.563 64.84,19.688 13.65,13.125 20.49,30.293 20.49,51.445 0,19.69 -7.19,36.18 -21.65,49.48 -14.37,13.31 -37.07,19.97 -68.11,19.97 -9.49,0 -18.45,-0.37 -27.05,-1.07 -8.6,-0.71 -15.43,-1.47 -20.49,-2.22 l 0,-137.293 51.97,0 z m -89.75,167.403 c 3.64,0.35 8.86,0.93 15.61,1.64 6.74,0.72 13.92,1.47 21.64,2.22 7.63,0.71 15.34,1.24 23.24,1.59 7.8,0.36 14.81,0.58 21.01,0.58 43.02,0 76.09,-8.3 99.07,-24.88 22.97,-16.63 34.41,-42.39 34.41,-77.42 0,-11.31 -1.68,-21.641 -5.14,-30.906 -3.46,-9.317 -8.16,-17.696 -14.01,-25.149 -5.77,-7.488 -12.69,-13.789 -20.49,-18.886 -7.8,-5.145 -15.97,-8.965 -24.31,-11.485 11.27,-1.465 22.18,-4.48 32.82,-9.004 10.56,-4.621 19.96,-11 28.12,-19.16 8.24,-8.25 14.8,-18.449 19.69,-30.68 4.96,-12.199 7.45,-26.878 7.45,-44 0,-19.679 -4,-36.671 -11.8,-50.898 -7.8,-14.191 -18.8,-26.07 -32.82,-35.562 -14,-9.489 -30.6,-16.508 -49.75,-21.032 -19.16,-4.558 -40.08,-6.816 -62.7,-6.816 -5.76,0 -12.34,0.168 -19.69,0.519 -7.27,0.368 -14.64,0.797 -22.08,1.34 -7.54,0.578 -14.81,1.328 -21.91,2.219 -7.09,0.891 -13.22,1.73 -18.36,2.48 l 0,393.29"
             style="fill:#ca1b34;fill-opacity:1;fill-rule:nonzero;stroke:none"
             id="path26"
             inkscape:connector-curvature="0" /><path
             d="m 2038.11,1065.33 c -0.36,3.28 -0.63,7.32 -0.81,12.01 -0.17,4.75 -0.26,8.79 -0.26,12.07 0,2.93 0.09,6.56 0.26,10.9 0.18,4.4 0.45,8.03 0.81,10.96 3.28,0.35 7.26,0.66 12.06,0.84 4.69,0.18 8.78,0.27 12.06,0.27 2.84,0 6.56,-0.09 10.9,-0.27 4.35,-0.18 7.98,-0.49 10.91,-0.84 0.35,-2.93 0.63,-6.56 0.89,-10.96 0.18,-4.34 0.27,-7.97 0.27,-10.9 0,-3.28 -0.09,-7.32 -0.27,-12.07 -0.26,-4.69 -0.54,-8.73 -0.89,-12.01 -2.93,-0.4 -6.56,-0.67 -10.91,-0.85 -4.34,-0.17 -8.06,-0.26 -10.9,-0.26 -3.28,0 -7.37,0.09 -12.06,0.26 -4.8,0.18 -8.78,0.45 -12.06,0.85 z m 18.08,-99.021 -35.03,0 c -0.35,1.816 -0.61,3.996 -0.79,6.562 -0.18,2.57 -0.27,5.274 -0.27,8.203 0,2.93 0.09,5.813 0.27,8.742 0.18,2.918 0.44,5.313 0.79,7.137 l 71.13,0 0,-278.973 c -2.21,-0.351 -5.23,-0.671 -9.05,-0.839 -3.81,-0.18 -6.82,-0.262 -9.04,-0.262 -1.78,0 -4.7,0.082 -8.69,0.262 -4.08,0.168 -7.19,0.488 -9.32,0.839 l 0,248.329"
             style="fill:#ca1b34;fill-opacity:1;fill-rule:nonzero;stroke:none"
             id="path28"
             inkscape:connector-curvature="0" /><path
             d="m 2329.09,743.129 c 29.18,0 51,10.191 65.45,30.633 14.37,20.398 21.55,48.34 21.55,83.679 0,35.387 -7.18,63.278 -21.55,83.684 -14.45,20.438 -36.27,30.684 -65.45,30.684 -29.18,0 -50.91,-10.246 -65.36,-30.684 -14.37,-20.406 -21.55,-48.297 -21.55,-83.684 0,-35.339 7.18,-63.281 21.55,-83.679 14.45,-20.442 36.18,-30.633 65.36,-30.633 z m 0,-31.707 c -20.75,0 -39.02,3.726 -54.64,11.168 -15.69,7.5 -28.73,17.832 -39.1,30.961 -10.47,13.121 -18.18,28.597 -23.24,46.469 -5.14,17.82 -7.72,36.98 -7.72,57.421 0,20.438 2.58,39.598 7.72,57.43 5.06,17.914 12.77,33.391 23.24,46.516 10.37,13.125 23.41,23.457 39.1,30.91 15.62,7.449 33.89,11.223 54.64,11.223 20.84,0 38.94,-3.774 54.45,-11.223 15.52,-7.453 28.47,-17.785 38.85,-30.91 10.38,-13.125 18.27,-28.602 23.51,-46.516 5.31,-17.832 7.98,-36.992 7.98,-57.43 0,-20.441 -2.67,-39.601 -7.98,-57.421 -5.24,-17.872 -13.13,-33.348 -23.51,-46.469 -10.38,-13.129 -23.33,-23.461 -38.85,-30.961 -15.51,-7.442 -33.61,-11.168 -54.45,-11.168"
             style="fill:#ca1b34;fill-opacity:1;fill-rule:nonzero;stroke:none"
             id="path30"
             inkscape:connector-curvature="0" /><path
             d="m 2565.98,996.953 c 2.93,0.352 5.76,0.617 8.51,0.84 2.66,0.176 5.32,0.266 7.89,0.266 2.93,0 5.69,-0.09 8.25,-0.266 2.49,-0.223 5.23,-0.488 8.16,-0.84 0.71,-6.57 1.25,-14.414 1.69,-23.555 0.35,-9.128 0.53,-17.293 0.53,-24.558 3.29,6.914 7.45,13.652 12.59,20.215 5.05,6.562 11.09,12.371 18,17.48 6.93,5.137 14.9,9.219 23.77,12.324 8.97,3.101 19.07,4.661 30.43,4.661 10.55,0 19.69,-1.29 27.31,-3.86 7.72,-2.531 14.37,-6.125 19.96,-10.644 5.67,-4.571 10.47,-9.934 14.27,-16.145 3.82,-6.211 7.37,-13.125 10.65,-20.75 3.99,5.809 8.6,11.797 13.65,17.996 5.15,6.211 11.01,11.797 17.57,16.68 6.56,4.961 14.1,8.957 22.7,12.062 8.52,3.101 18.09,4.661 28.65,4.661 32.46,0 55.87,-9.321 70.33,-27.903 14.36,-18.625 21.64,-45.226 21.64,-79.906 l 0,-177.731 c -2.22,-0.351 -5.24,-0.671 -9.05,-0.839 -3.81,-0.18 -6.83,-0.262 -9.05,-0.262 -1.86,0 -4.69,0.082 -8.78,0.262 -3.99,0.168 -7.1,0.488 -9.22,0.839 l 0,165.18 c 0,29.539 -4.88,51.403 -14.55,65.68 -9.66,14.187 -24.12,21.277 -43.45,21.277 -11.71,0 -21.91,-2.344 -30.69,-7.09 -8.69,-4.746 -16.05,-11.132 -21.81,-19.16 -5.86,-7.976 -10.38,-17.383 -13.49,-28.156 -3.1,-10.781 -4.61,-22.129 -4.61,-34.191 l 0,-163.54 c -2.21,-0.351 -5.23,-0.671 -9.04,-0.839 -3.82,-0.18 -6.84,-0.262 -9.05,-0.262 -1.77,0 -4.7,0.082 -8.7,0.262 -4.07,0.168 -7.08,0.488 -9.3,0.839 l 0,172.321 c 0,28.027 -4.44,48.871 -13.4,62.347 -8.96,13.485 -21.82,20.223 -38.57,20.223 -11.35,0 -21.73,-2.84 -31.23,-8.465 -9.48,-5.636 -17.64,-13.613 -24.56,-23.82 -6.92,-10.195 -12.33,-22.348 -16.14,-36.356 -3.82,-14.058 -5.77,-29.449 -5.77,-46.21 l 0,-140.04 c -2.22,-0.351 -5.14,-0.671 -9.04,-0.839 -3.81,-0.18 -6.83,-0.262 -8.96,-0.262 -1.86,0 -4.79,0.082 -8.78,0.262 -3.99,0.168 -7.1,0.488 -9.31,0.839 l 0,278.973"
             style="fill:#ca1b34;fill-opacity:1;fill-rule:nonzero;stroke:none"
             id="path32"
             inkscape:connector-curvature="0" /><path
             d="m 3242.05,882.051 c 0,11.308 -1.42,22.437 -4.34,33.39 -2.93,10.957 -7.46,20.536 -13.67,28.692 -6.21,8.25 -14.19,14.902 -24.03,19.961 -9.84,5.136 -21.73,7.715 -35.57,7.715 -25.53,0 -45.4,-7.891 -59.68,-23.547 -14.19,-15.653 -22.79,-37.742 -25.72,-66.211 l 163.01,0 z M 3077.98,851.98 c 0,-37.191 8.6,-64.558 25.71,-82.031 17.12,-17.558 42.84,-26.25 77.17,-26.25 13.83,0 26.69,1.153 38.57,3.551 11.8,2.352 23.42,5.539 34.68,9.582 1.87,-4.043 3.28,-8.961 4.43,-14.82 1.07,-5.852 1.78,-11.082 2.13,-15.871 -10.55,-4.7 -22.96,-8.34 -37.15,-10.911 -14.28,-2.57 -29.71,-3.808 -46.57,-3.808 -24.03,0 -44.69,3.539 -62.08,10.637 -17.29,7.089 -31.48,17.031 -42.66,29.8 -11.09,12.77 -19.34,28.02 -24.56,45.672 -5.33,17.699 -7.98,37.117 -7.98,58.27 0,20.398 2.48,39.558 7.44,57.469 4.88,17.824 12.33,33.527 22.35,47.003 10.11,13.489 22.88,24.082 38.59,31.75 15.69,7.637 34.49,11.497 56.39,11.497 18.19,0 34.42,-3.11 48.69,-9.321 14.19,-6.211 26.17,-14.851 35.83,-25.984 9.58,-11.133 16.95,-24.434 21.82,-39.953 4.97,-15.481 7.45,-32.371 7.45,-50.551 0,-3.289 -0.09,-7.492 -0.35,-12.59 -0.17,-5.152 -0.44,-9.492 -0.8,-13.141 l -199.1,0"
             style="fill:#ca1b34;fill-opacity:1;fill-rule:nonzero;stroke:none"
             id="path34"
             inkscape:connector-curvature="0" /><path
             d="m 3576.85,959.746 c -7.28,2.922 -16.59,5.586 -27.85,7.942 -11.35,2.343 -22.96,3.542 -35.04,3.542 -17.1,0 -32.01,-2.929 -44.6,-8.738 -12.6,-5.851 -23.06,-13.965 -31.49,-24.387 -8.34,-10.378 -14.63,-22.875 -18.8,-37.433 -4.26,-14.621 -6.3,-30.633 -6.3,-48.152 0,-37.961 9.05,-65.54 27.05,-82.829 18.1,-17.382 43.64,-25.992 76.9,-25.992 11.97,0 23.49,0.621 34.41,1.86 11,1.293 19.51,2.839 25.72,4.703 l 0,209.484 z m 0,160.254 c 2.21,0.36 5.32,0.63 9.31,0.85 4,0.18 6.92,0.26 8.78,0.26 2.13,0 5.14,-0.08 8.96,-0.26 3.9,-0.22 6.92,-0.49 9.05,-0.85 l 0,-395.461 c -11.27,-3.68 -25.37,-6.738 -42.13,-9.309 -16.77,-2.57 -34.24,-3.808 -52.51,-3.808 -20.04,0 -38.84,2.348 -56.32,7.098 -17.47,4.691 -32.63,12.582 -45.41,23.492 -12.76,10.957 -22.87,25.367 -30.32,43.238 -7.54,17.871 -11.27,39.961 -11.27,66.211 0,24.027 3.28,45.488 9.84,64.25 6.58,18.754 15.88,34.633 27.94,47.582 11.98,12.949 26.53,22.879 43.46,29.805 16.94,6.912 35.65,10.422 56.06,10.422 12.06,0 24.03,-1.03 35.83,-3.02 11.88,-1.992 21.45,-4.309 28.73,-6.836 l 0,126.336"
             style="fill:#ca1b34;fill-opacity:1;fill-rule:nonzero;stroke:none"
             id="path36"
             inkscape:connector-curvature="0" /><path
             d="m 3739.85,1065.33 c -0.35,3.28 -0.61,7.32 -0.79,12.01 -0.17,4.75 -0.27,8.79 -0.27,12.07 0,2.93 0.1,6.56 0.27,10.9 0.18,4.4 0.44,8.03 0.79,10.96 3.29,0.35 7.28,0.66 12.06,0.84 4.71,0.18 8.79,0.27 12.07,0.27 2.84,0 6.57,-0.09 10.91,-0.27 4.35,-0.18 7.98,-0.49 10.91,-0.84 0.35,-2.93 0.62,-6.56 0.88,-10.96 0.19,-4.34 0.27,-7.97 0.27,-10.9 0,-3.28 -0.08,-7.32 -0.27,-12.07 -0.26,-4.69 -0.53,-8.73 -0.88,-12.01 -2.93,-0.4 -6.56,-0.67 -10.91,-0.85 -4.34,-0.17 -8.07,-0.26 -10.91,-0.26 -3.28,0 -7.36,0.09 -12.07,0.26 -4.78,0.18 -8.77,0.45 -12.06,0.85 z m 18.1,-99.021 -35.03,0 c -0.36,1.816 -0.63,3.996 -0.8,6.562 -0.18,2.57 -0.26,5.274 -0.26,8.203 0,2.93 0.08,5.813 0.26,8.742 0.17,2.918 0.44,5.313 0.8,7.137 l 71.12,0 0,-278.973 c -2.21,-0.351 -5.23,-0.671 -9.04,-0.839 -3.81,-0.18 -6.83,-0.262 -9.04,-0.262 -1.78,0 -4.71,0.082 -8.69,0.262 -4.09,0.168 -7.19,0.488 -9.32,0.839 l 0,248.329"
             style="fill:#ca1b34;fill-opacity:1;fill-rule:nonzero;stroke:none"
             id="path38"
             inkscape:connector-curvature="0" /><path
             d="m 4106.93,752.969 c 1.87,-3.68 3.56,-8.571 5.24,-14.77 1.6,-6.211 2.84,-11.308 3.55,-15.34 -9.14,-3.277 -19.51,-5.98 -31.22,-8.16 -11.62,-2.219 -24.57,-3.277 -38.85,-3.277 -45.58,0 -80.17,12.457 -103.85,37.418 -23.77,25.019 -35.56,61.199 -35.56,108.601 0,20.797 2.92,40.047 8.69,57.7 5.85,17.73 14.45,33.121 25.71,46.246 11.36,13.125 25.46,23.457 42.4,30.91 16.94,7.449 36.54,11.223 58.8,11.223 13.92,0 27.14,-1.03 39.73,-3.02 12.51,-1.992 22.44,-4.309 29.8,-6.836 0,-4.738 -0.71,-10.234 -1.95,-16.406 -1.24,-6.203 -2.66,-11.125 -4.08,-14.766 -7.27,2.528 -16.49,4.707 -27.66,6.563 -11.1,1.816 -23.07,2.754 -35.84,2.754 -16.41,0 -30.69,-2.844 -42.92,-8.516 -12.24,-5.676 -22.45,-13.566 -30.6,-23.77 -8.25,-10.246 -14.37,-22.253 -18.36,-36.093 -3.99,-13.879 -6.03,-29.18 -6.03,-45.989 0,-39.371 9.4,-68.293 28.2,-86.691 18.81,-18.441 44.17,-27.621 76.27,-27.621 11,0 21.46,0.922 31.48,2.703 10.03,1.859 19.08,4.207 27.05,7.137"
             style="fill:#ca1b34;fill-opacity:1;fill-rule:nonzero;stroke:none"
             id="path40"
             inkscape:connector-curvature="0" /><path
             d="m 4370.08,853.629 c -6.21,0.711 -14.02,1.562 -23.24,2.43 -9.31,0.941 -18.18,1.382 -26.61,1.382 -27.31,0 -48.42,-5.101 -63.41,-15.3 -14.98,-10.2 -22.44,-24.832 -22.44,-43.762 0,-12.02 2.31,-21.688 6.83,-29 4.61,-7.32 10.47,-12.867 17.83,-16.668 7.27,-3.871 15.26,-6.391 24.04,-7.68 8.78,-1.293 17.47,-1.902 26.25,-1.902 11.26,0 21.9,0.57 31.74,1.641 9.85,1.062 19.52,2.562 29.01,4.339 l 0,104.52 z m 0,48.652 c 0,24.117 -5.68,41.676 -16.95,52.809 -11.34,11.133 -28.11,16.719 -50.37,16.719 -14.54,0 -27.85,-1.067 -39.91,-3.02 -12.06,-2.039 -22.79,-4.519 -32.28,-7.402 -1.86,3.281 -3.37,8.027 -4.7,14.23 -1.24,6.211 -1.87,12.02 -1.87,17.481 9.5,2.918 21.12,5.41 35.04,7.402 13.83,1.99 28.03,3.02 42.66,3.02 35.39,0 61.64,-7.766 78.75,-23.286 17.12,-15.476 25.72,-39.824 25.72,-72.996 l 0,-184.379 c -12.77,-2.531 -28.29,-5.058 -46.47,-7.629 -18.27,-2.57 -35.56,-3.808 -51.97,-3.808 -33.97,0 -60.66,6.726 -80.17,20.219 -19.51,13.48 -29.27,35.379 -29.27,65.629 0,14.589 2.83,27.621 8.51,39.109 5.59,11.531 13.48,21.152 23.5,29 10.02,7.851 22.08,13.75 36.11,17.781 14,4.039 29.43,5.988 46.2,5.988 13.12,0 24.48,-0.449 33.96,-1.328 9.41,-0.929 17.3,-1.769 23.51,-2.492 l 0,16.953"
             style="fill:#ca1b34;fill-opacity:1;fill-rule:nonzero;stroke:none"
             id="path42"
             inkscape:connector-curvature="0" /><path
             d="m 4528.74,1120 c 2.13,0.36 5.15,0.63 8.96,0.85 3.81,0.18 6.83,0.26 9.04,0.26 1.86,0 4.71,-0.08 8.79,-0.26 3.98,-0.22 7.09,-0.49 9.3,-0.85 l 0,-337.5 c 0,-9.488 1.07,-16.891 3.29,-22.129 2.12,-5.32 4.88,-9.133 8.16,-11.531 3.28,-2.352 6.91,-3.809 11,-4.34 3.99,-0.531 7.62,-0.801 10.9,-0.801 4,0 8.17,0.27 12.6,0.801 4.34,0.531 7.98,1.148 10.91,1.91 1.85,-4.398 3.1,-9.101 3.81,-14.238 0.71,-5.102 1.34,-9.852 1.69,-14.192 -5.15,-1.871 -10.91,-3.109 -17.3,-3.859 -6.38,-0.711 -12.23,-1.101 -17.74,-1.101 -7.62,0 -15.34,0.839 -22.97,2.48 -7.63,1.641 -14.45,4.738 -20.49,9.309 -6.02,4.531 -10.91,10.73 -14.54,18.582 -3.63,7.847 -5.41,18.129 -5.41,30.91 l 0,345.699"
             style="fill:#ca1b34;fill-opacity:1;fill-rule:nonzero;stroke:none"
             id="path44"
             inkscape:connector-curvature="0" /><path
             d="m 1693.46,529.559 210.64,0 c 0.35,-2.219 0.62,-4.868 0.79,-7.977 0.18,-3.102 0.27,-6.07 0.27,-9.004 0,-2.527 -0.09,-5.547 -0.27,-9.008 -0.17,-3.449 -0.44,-6.289 -0.79,-8.511 l -172.86,0 0,-132.899 138.89,0 c 0.44,-2.172 0.71,-4.828 0.89,-7.93 0.17,-3.109 0.26,-6.121 0.26,-9.05 0,-2.571 -0.09,-5.539 -0.26,-9 -0.18,-3.5 -0.45,-6.301 -0.89,-8.469 l -138.89,0 0,-157.031 177.73,0 c 0.36,-2.16 0.72,-4.828 0.89,-7.942 0.18,-3.097 0.27,-6.109 0.27,-9 0,-2.566 -0.09,-5.539 -0.27,-9.039 -0.17,-3.461 -0.53,-6.25 -0.89,-8.469 l -215.51,0 0,393.329"
             style="fill:#ca1b34;fill-opacity:1;fill-rule:nonzero;stroke:none"
             id="path46"
             inkscape:connector-curvature="0" /><path
             d="m 1993.85,415.238 c 2.84,0.364 5.67,0.621 8.43,0.813 2.74,0.168 5.41,0.258 7.97,0.258 2.85,0 5.59,-0.09 8.17,-0.258 2.57,-0.192 5.31,-0.449 8.24,-0.813 0.71,-6.558 1.25,-14.808 1.6,-24.648 0.35,-9.852 0.53,-18.399 0.53,-25.731 3.63,6.582 8.43,13.231 14.28,19.961 5.77,6.789 12.59,12.871 20.48,18.36 7.82,5.5 16.86,9.941 27.06,13.39 10.19,3.461 21.37,5.239 33.43,5.239 32.01,0 55.43,-9.579 69.98,-28.739 14.54,-19.148 21.91,-46.031 21.91,-80.711 l 0,-176.129 c -2.22,-0.359 -5.24,-0.621 -9.05,-0.8 -3.81,-0.18 -6.83,-0.258 -9.05,-0.258 -1.78,0 -4.7,0.078 -8.69,0.258 -4.08,0.179 -7.19,0.441 -9.32,0.8 l 0,165.231 c 0,30.949 -4.87,53.211 -14.54,66.687 -9.66,13.481 -24.12,20.274 -43.45,20.274 -12.78,0 -24.84,-2.531 -36.1,-7.684 -11.35,-5.097 -21.11,-12.508 -29.27,-22.168 -8.25,-9.66 -14.72,-21.55 -19.42,-35.832 -4.79,-14.187 -7.1,-30.418 -7.1,-48.687 l 0,-137.821 c -2.22,-0.359 -5.23,-0.621 -9.04,-0.8 -3.81,-0.18 -6.83,-0.258 -9.04,-0.258 -1.87,0 -4.71,0.078 -8.79,0.258 -3.99,0.179 -7.09,0.441 -9.22,0.8 l 0,279.008"
             style="fill:#ca1b34;fill-opacity:1;fill-rule:nonzero;stroke:none"
             id="path48"
             inkscape:connector-curvature="0" /><path
             d="m 2344.43,324.422 c 0,-18.973 5.59,-34.942 16.68,-47.891 11.08,-12.949 28.56,-19.422 52.23,-19.422 23.68,0 41.25,6.473 52.51,19.422 11.35,12.949 16.94,28.918 16.94,47.891 0,18.937 -5.59,34.91 -16.94,47.859 -11.26,12.949 -28.83,19.418 -52.51,19.418 -23.67,0 -41.15,-6.469 -52.23,-19.418 -11.09,-12.949 -16.68,-28.922 -16.68,-47.859 z m 40.44,-193.113 c -17.12,0.402 -30.86,-4.477 -41.24,-14.5 -10.46,-10.02 -15.6,-23.2504 -15.6,-39.6488 0,-8.7813 1.95,-16.0508 6.03,-21.9102 3.99,-5.8086 9.57,-10.3711 16.67,-13.6484 7.09,-3.2813 15.43,-5.5899 24.92,-6.8321 9.41,-1.2812 19.43,-1.9492 30.07,-1.9492 33.88,0 60.31,5.7617 79.28,17.25 18.98,11.4805 28.48,25.2305 28.48,41.2891 0,13.8706 -4.8,23.7186 -14.28,29.5316 -9.49,5.847 -24.92,8.949 -46.48,9.308 l -67.85,1.11 z m 77.7,32.812 c 32.1,-0.75 54.99,-7.402 68.64,-19.949 13.66,-12.602 20.58,-29.274 20.58,-50.0704 0,-14.1914 -3.72,-27.0508 -11,-38.5821 C 2533.52,44.082 2523.32,34.2383 2510.2,25.9883 2497.07,17.832 2481.46,11.4492 2463.36,6.83984 2445.36,2.30859 2425.76,0 2404.57,0 c -16.42,0 -31.41,1.33984 -45.06,3.82031 -13.75,2.57032 -25.55,6.69919 -35.56,12.32029 -10.11,5.6914 -17.83,13.1289 -23.32,22.4414 -5.42,9.3164 -8.17,20.7071 -8.17,34.1875 0,13.8789 4,27.1797 12.06,39.9605 7.98,12.77 18.36,22.258 31.13,28.418 -6.92,4.391 -12.77,9.934 -17.47,16.723 -4.78,6.738 -7.1,14.988 -7.1,24.84 0,14.269 3.37,26.07 10.11,35.551 6.75,9.488 15.79,18.097 27.05,25.718 -12.76,8.032 -22.97,18.801 -30.59,32.29 -7.72,13.48 -11.53,29.531 -11.53,48.152 0,13.488 2.31,26.168 6.83,38.008 4.61,11.84 11.44,22.129 20.58,30.91 9.04,8.781 20.31,15.691 33.61,20.75 13.3,5.14 28.74,7.719 46.2,7.719 14.99,0 28.3,-1.957 39.91,-5.758 11.71,-3.821 21.91,-8.879 30.7,-15.082 3.63,1.5 8.15,3.101 13.65,4.961 5.5,1.781 11.44,3.371 18.09,4.609 6.57,1.293 13.3,2.402 20.23,3.281 6.91,0.942 13.65,1.418 20.21,1.418 1.42,-5.488 2.22,-11.527 2.22,-18.09 0,-6.918 -0.8,-13.128 -2.22,-18.589 l -51.97,0 c 5.15,-8.008 9.04,-16.528 11.8,-25.438 2.65,-8.922 4.08,-18.492 4.08,-28.699 0,-15.692 -2.75,-29.531 -8.25,-41.59 -5.41,-12.062 -13.04,-22.184 -22.71,-30.332 -9.67,-8.25 -20.93,-14.539 -33.87,-18.898 -12.95,-4.383 -26.88,-6.563 -41.87,-6.563 -15.69,0 -29.36,2 -41.05,6.043 -10.21,-6.57 -17.39,-12.863 -21.56,-18.891 -4.17,-6.043 -6.3,-12.863 -6.3,-20.492 0,-3.679 0.53,-7.14 1.61,-10.418 1.15,-3.281 3.35,-6.301 6.91,-9 3.46,-2.761 8.24,-4.972 14.45,-6.562 6.21,-1.688 14.19,-2.489 24.04,-2.489 l 71.13,-1.109"
             style="fill:#ca1b34;fill-opacity:1;fill-rule:nonzero;stroke:none"
             id="path50"
             inkscape:connector-curvature="0" /><path
             d="m 2622.91,483.621 c -0.35,3.277 -0.7,7.27 -0.88,11.981 -0.17,4.777 -0.27,8.777 -0.27,12.058 0,2.93 0.1,6.559 0.27,10.942 0.18,4.398 0.53,8.027 0.88,10.957 3.28,0.351 7.28,0.632 11.97,0.8 4.8,0.18 8.79,0.27 12.07,0.27 2.92,0 6.57,-0.09 10.91,-0.27 4.43,-0.168 8.07,-0.449 11,-0.8 0.35,-2.93 0.61,-6.559 0.79,-10.957 0.18,-4.383 0.27,-8.012 0.27,-10.942 0,-3.281 -0.09,-7.281 -0.27,-12.058 -0.18,-4.711 -0.44,-8.704 -0.79,-11.981 -2.93,-0.402 -6.57,-0.66 -11,-0.84 -4.34,-0.222 -7.99,-0.312 -10.91,-0.312 -3.28,0 -7.27,0.09 -12.07,0.312 -4.69,0.18 -8.69,0.438 -11.97,0.84 z m 18.01,-99.062 -35.03,0 c -0.36,1.863 -0.63,4.031 -0.8,6.562 -0.18,2.57 -0.27,5.32 -0.27,8.25 0,2.93 0.09,5.809 0.27,8.738 0.17,2.879 0.44,5.27 0.8,7.129 l 71.12,0 0,-279.008 c -2.13,-0.359 -5.13,-0.621 -8.95,-0.8 -3.9,-0.18 -6.92,-0.258 -9.05,-0.258 -1.86,0 -4.79,0.078 -8.78,0.258 -3.99,0.179 -7.1,0.441 -9.31,0.8 l 0,248.329"
             style="fill:#ca1b34;fill-opacity:1;fill-rule:nonzero;stroke:none"
             id="path52"
             inkscape:connector-curvature="0" /><path
             d="m 2785.39,415.238 c 2.84,0.364 5.68,0.621 8.43,0.813 2.74,0.168 5.41,0.258 7.98,0.258 2.84,0 5.58,-0.09 8.16,-0.258 2.57,-0.192 5.32,-0.449 8.24,-0.813 0.72,-6.558 1.25,-14.808 1.6,-24.648 0.36,-9.852 0.53,-18.399 0.53,-25.731 3.64,6.582 8.43,13.231 14.28,19.961 5.77,6.789 12.6,12.871 20.49,18.36 7.81,5.5 16.85,9.941 27.05,13.39 10.2,3.461 21.38,5.239 33.44,5.239 32.01,0 55.43,-9.579 69.98,-28.739 14.54,-19.148 21.9,-46.031 21.9,-80.711 l 0,-176.129 c -2.22,-0.359 -5.23,-0.621 -9.05,-0.8 -3.81,-0.18 -6.83,-0.258 -9.04,-0.258 -1.78,0 -4.7,0.078 -8.7,0.258 -4.08,0.179 -7.18,0.441 -9.31,0.8 l 0,165.231 c 0,30.949 -4.88,53.211 -14.54,66.687 -9.67,13.481 -24.12,20.274 -43.46,20.274 -12.77,0 -24.83,-2.531 -36.09,-7.684 -11.36,-5.097 -21.11,-12.508 -29.27,-22.168 -8.25,-9.66 -14.73,-21.55 -19.43,-35.832 -4.79,-14.187 -7.1,-30.418 -7.1,-48.687 l 0,-137.821 c -2.2,-0.359 -5.23,-0.621 -9.04,-0.8 -3.81,-0.18 -6.82,-0.258 -9.04,-0.258 -1.87,0 -4.71,0.078 -8.78,0.258 -3.99,0.179 -7.1,0.441 -9.23,0.8 l 0,279.008"
             style="fill:#ca1b34;fill-opacity:1;fill-rule:nonzero;stroke:none"
             id="path54"
             inkscape:connector-curvature="0" /><path
             d="m 3297.3,300.34 c 0,11.308 -1.42,22.398 -4.34,33.398 -2.93,10.91 -7.45,20.492 -13.66,28.692 -6.21,8.211 -14.19,14.859 -24.04,19.949 -9.84,5.101 -21.72,7.68 -35.56,7.68 -25.54,0 -45.4,-7.848 -59.69,-23.508 -14.19,-15.699 -22.79,-37.781 -25.71,-66.211 l 163,0 z m -164.08,-30.11 c 0,-37.148 8.62,-64.558 25.73,-82.031 17.11,-17.519 42.84,-26.258 77.15,-26.258 13.84,0 26.7,1.168 38.59,3.559 11.79,2.391 23.42,5.582 34.68,9.578 1.86,-3.996 3.28,-8.969 4.43,-14.777 1.06,-5.852 1.77,-11.121 2.13,-15.871 -10.56,-4.739 -22.97,-8.371 -37.16,-10.95 -14.28,-2.531 -29.72,-3.808 -46.56,-3.808 -24.05,0 -44.71,3.539 -62.09,10.637 -17.29,7.14 -31.49,17.07 -42.66,29.851 -11.08,12.719 -19.33,27.981 -24.56,45.668 -5.32,17.703 -7.99,37.113 -7.99,58.223 0,20.437 2.49,39.597 7.45,57.469 4.89,17.871 12.33,33.531 22.36,47.039 10.1,13.492 22.88,24.089 38.57,31.711 15.7,7.679 34.5,11.539 56.41,11.539 18.18,0 34.41,-3.11 48.69,-9.321 14.19,-6.199 26.16,-14.886 35.83,-25.988 9.58,-11.121 16.94,-24.469 21.82,-39.949 4.97,-15.481 7.45,-32.371 7.45,-50.59 0,-3.281 -0.09,-7.449 -0.36,-12.602 -0.18,-5.097 -0.44,-9.48 -0.8,-13.129 l -199.11,0"
             style="fill:#ca1b34;fill-opacity:1;fill-rule:nonzero;stroke:none"
             id="path56"
             inkscape:connector-curvature="0" /><path
             d="m 3611.88,300.34 c 0,11.308 -1.42,22.398 -4.34,33.398 -2.93,10.91 -7.54,20.492 -13.75,28.692 -6.21,8.211 -14.19,14.859 -24.03,19.949 -9.86,5.101 -21.73,7.68 -35.57,7.68 -25.54,0 -45.41,-7.848 -59.6,-23.508 -14.28,-15.699 -22.79,-37.781 -25.72,-66.211 l 163.01,0 z M 3447.8,270.23 c 0,-37.148 8.52,-64.558 25.64,-82.031 17.2,-17.519 42.93,-26.258 77.16,-26.258 13.83,0 26.69,1.168 38.58,3.559 11.87,2.391 23.41,5.582 34.77,9.578 1.76,-3.996 3.28,-8.969 4.33,-14.777 1.08,-5.852 1.87,-11.121 2.23,-15.871 -10.65,-4.739 -22.97,-8.371 -37.26,-10.95 -14.19,-2.531 -29.71,-3.808 -46.47,-3.808 -24.03,0 -44.79,3.539 -62.08,10.637 -17.3,7.14 -31.57,17.07 -42.66,29.851 -11.17,12.719 -19.33,27.981 -24.66,45.668 -5.23,17.703 -7.89,37.113 -7.89,58.223 0,20.437 2.48,39.597 7.37,57.469 4.96,17.871 12.41,33.531 22.44,47.039 10.02,13.492 22.87,24.089 38.57,31.711 15.7,7.679 34.42,11.539 56.32,11.539 18.27,0 34.5,-3.11 48.69,-9.321 14.19,-6.199 26.16,-14.886 35.83,-25.988 9.67,-11.121 16.93,-24.469 21.91,-39.949 4.87,-15.481 7.36,-32.371 7.36,-50.59 0,-3.281 -0.09,-7.449 -0.27,-12.602 -0.18,-5.097 -0.44,-9.48 -0.8,-13.129 l -199.11,0"
             style="fill:#ca1b34;fill-opacity:1;fill-rule:nonzero;stroke:none"
             id="path58"
             inkscape:connector-curvature="0" /><path
             d="m 3739.33,415.238 c 2.92,0.364 5.76,0.621 8.51,0.813 2.66,0.168 5.32,0.258 7.89,0.258 2.93,0 5.68,-0.09 8.25,-0.258 2.48,-0.192 5.24,-0.449 8.16,-0.813 0.71,-6.558 1.24,-14.359 1.69,-23.277 0.35,-8.91 0.53,-17.07 0.53,-24.34 7.27,13.469 17.47,24.918 30.59,34.188 13.14,9.312 30.42,13.961 51.97,13.961 1.87,0 3.73,0 5.78,0 1.94,0 4.25,-0.168 6.82,-0.532 1.07,-6.207 1.68,-12.058 1.68,-17.547 0,-5.812 -0.61,-11.453 -1.68,-16.953 -2.93,0.352 -5.23,0.543 -6.82,0.543 -1.69,0 -3.38,0 -5.24,0 -24.75,0 -44.61,-7.812 -59.6,-23.511 -14.99,-15.692 -22.44,-41.77 -22.44,-78.219 l 0,-143.321 c -2.22,-0.359 -5.15,-0.621 -9.04,-0.8 -3.82,-0.18 -6.83,-0.258 -8.96,-0.258 -1.86,0 -4.79,0.078 -8.79,0.258 -3.98,0.179 -7.09,0.441 -9.3,0.8 l 0,279.008"
             style="fill:#ca1b34;fill-opacity:1;fill-rule:nonzero;stroke:none"
             id="path60"
             inkscape:connector-curvature="0" /><path
             d="m 3941.71,483.621 c -0.35,3.277 -0.62,7.27 -0.79,11.981 -0.18,4.777 -0.28,8.777 -0.28,12.058 0,2.93 0.1,6.559 0.28,10.942 0.17,4.398 0.44,8.027 0.79,10.957 3.28,0.351 7.27,0.632 12.06,0.8 4.71,0.18 8.79,0.27 12.07,0.27 2.83,0 6.56,-0.09 10.9,-0.27 4.35,-0.168 7.99,-0.449 10.92,-0.8 0.35,-2.93 0.61,-6.559 0.88,-10.957 0.17,-4.383 0.27,-8.012 0.27,-10.942 0,-3.281 -0.1,-7.281 -0.27,-12.058 -0.27,-4.711 -0.53,-8.704 -0.88,-11.981 -2.93,-0.402 -6.57,-0.66 -10.92,-0.84 -4.34,-0.222 -8.07,-0.312 -10.9,-0.312 -3.28,0 -7.36,0.09 -12.07,0.312 -4.79,0.18 -8.78,0.438 -12.06,0.84 z m 18.09,-99.062 -35.02,0 c -0.37,1.863 -0.63,4.031 -0.81,6.562 -0.17,2.57 -0.26,5.32 -0.26,8.25 0,2.93 0.09,5.809 0.26,8.738 0.18,2.879 0.44,5.27 0.81,7.129 l 71.12,0 0,-279.008 c -2.22,-0.359 -5.24,-0.621 -9.04,-0.8 -3.82,-0.18 -6.84,-0.258 -9.05,-0.258 -1.77,0 -4.7,0.078 -8.69,0.258 -4.08,0.179 -7.19,0.441 -9.32,0.8 l 0,248.329"
             style="fill:#ca1b34;fill-opacity:1;fill-rule:nonzero;stroke:none"
             id="path62"
             inkscape:connector-curvature="0" /><path
             d="m 4104.19,415.238 c 2.93,0.364 5.76,0.621 8.52,0.813 2.65,0.168 5.32,0.258 7.89,0.258 2.93,0 5.67,-0.09 8.25,-0.258 2.48,-0.192 5.23,-0.449 8.15,-0.813 0.71,-6.558 1.24,-14.808 1.69,-24.648 0.35,-9.852 0.53,-18.399 0.53,-25.731 3.63,6.582 8.34,13.231 14.19,19.961 5.86,6.789 12.68,12.871 20.49,18.36 7.9,5.5 16.94,9.941 27.14,13.39 10.19,3.461 21.28,5.239 33.34,5.239 32.1,0 55.43,-9.579 70.07,-28.739 14.54,-19.148 21.82,-46.031 21.82,-80.711 l 0,-176.129 c -2.13,-0.359 -5.15,-0.621 -9.05,-0.8 -3.81,-0.18 -6.83,-0.258 -8.96,-0.258 -1.86,0 -4.78,0.078 -8.78,0.258 -3.99,0.179 -7.1,0.441 -9.31,0.8 l 0,165.231 c 0,30.949 -4.79,53.211 -14.46,66.687 -9.67,13.481 -24.21,20.274 -43.54,20.274 -12.78,0 -24.75,-2.531 -36.1,-7.684 -11.27,-5.097 -21.02,-12.508 -29.26,-22.168 -8.17,-9.66 -14.64,-21.55 -19.43,-35.832 -4.7,-14.187 -7.1,-30.418 -7.1,-48.687 l 0,-137.821 c -2.21,-0.359 -5.14,-0.621 -9.04,-0.8 -3.82,-0.18 -6.83,-0.258 -8.95,-0.258 -1.87,0 -4.8,0.078 -8.79,0.258 -3.99,0.179 -7.09,0.441 -9.31,0.8 l 0,279.008"
             style="fill:#ca1b34;fill-opacity:1;fill-rule:nonzero;stroke:none"
             id="path64"
             inkscape:connector-curvature="0" /><path
             d="m 4454.86,324.422 c 0,-18.973 5.59,-34.942 16.67,-47.891 11.09,-12.949 28.57,-19.422 52.24,-19.422 23.68,0 41.25,6.473 52.51,19.422 11.35,12.949 16.94,28.918 16.94,47.891 0,18.937 -5.59,34.91 -16.94,47.859 -11.26,12.949 -28.83,19.418 -52.51,19.418 -23.67,0 -41.15,-6.469 -52.24,-19.418 -11.08,-12.949 -16.67,-28.922 -16.67,-47.859 z m 40.44,-193.113 c -17.12,0.402 -30.86,-4.477 -41.24,-14.5 -10.47,-10.02 -15.6,-23.2504 -15.6,-39.6488 0,-8.7813 1.95,-16.0508 6.03,-21.9102 3.99,-5.8086 9.57,-10.3711 16.67,-13.6484 7.09,-3.2813 15.43,-5.5899 24.92,-6.8321 9.41,-1.2812 19.43,-1.9492 30.07,-1.9492 33.88,0 60.31,5.7617 79.28,17.25 18.98,11.4805 28.48,25.2305 28.48,41.2891 0,13.8706 -4.8,23.7186 -14.28,29.5316 -9.49,5.847 -24.92,8.949 -46.48,9.308 l -67.85,1.11 z m 77.7,32.812 c 32.1,-0.75 54.99,-7.402 68.64,-19.949 13.65,-12.602 20.58,-29.274 20.58,-50.0704 0,-14.1914 -3.72,-27.0508 -11,-38.5821 C 4643.95,44.082 4633.75,34.2383 4620.63,25.9883 4607.5,17.832 4591.88,11.4492 4573.79,6.83984 4555.79,2.30859 4536.19,0 4514.99,0 c -16.41,0 -31.4,1.33984 -45.05,3.82031 -13.75,2.57032 -25.55,6.69919 -35.56,12.32029 -10.11,5.6914 -17.83,13.1289 -23.33,22.4414 -5.41,9.3164 -8.16,20.7071 -8.16,34.1875 0,13.8789 3.99,27.1797 12.06,39.9605 7.98,12.77 18.36,22.258 31.13,28.418 -6.92,4.391 -12.77,9.934 -17.47,16.723 -4.78,6.738 -7.1,14.988 -7.1,24.84 0,14.269 3.37,26.07 10.11,35.551 6.75,9.488 15.79,18.097 27.05,25.718 -12.76,8.032 -22.97,18.801 -30.59,32.29 -7.72,13.48 -11.53,29.531 -11.53,48.152 0,13.488 2.31,26.168 6.83,38.008 4.61,11.84 11.44,22.129 20.58,30.91 9.04,8.781 20.31,15.691 33.61,20.75 13.3,5.14 28.73,7.719 46.2,7.719 14.99,0 28.3,-1.957 39.91,-5.758 11.71,-3.821 21.91,-8.879 30.7,-15.082 3.63,1.5 8.15,3.101 13.65,4.961 5.5,1.781 11.44,3.371 18.09,4.609 6.57,1.293 13.3,2.402 20.22,3.281 6.92,0.942 13.66,1.418 20.22,1.418 1.42,-5.488 2.22,-11.527 2.22,-18.09 0,-6.918 -0.8,-13.128 -2.22,-18.589 l -51.97,0 c 5.15,-8.008 9.04,-16.528 11.8,-25.438 2.65,-8.922 4.08,-18.492 4.08,-28.699 0,-15.692 -2.76,-29.531 -8.25,-41.59 -5.41,-12.062 -13.04,-22.184 -22.71,-30.332 -9.67,-8.25 -20.93,-14.539 -33.88,-18.898 -12.94,-4.383 -26.87,-6.563 -41.86,-6.563 -15.69,0 -29.36,2 -41.06,6.043 -10.2,-6.57 -17.38,-12.863 -21.55,-18.891 -4.17,-6.043 -6.3,-12.863 -6.3,-20.492 0,-3.679 0.53,-7.14 1.6,-10.418 1.16,-3.281 3.36,-6.301 6.92,-9 3.46,-2.761 8.24,-4.972 14.45,-6.562 6.21,-1.688 14.19,-2.489 24.04,-2.489 l 71.13,-1.109"
             style="fill:#ca1b34;fill-opacity:1;fill-rule:nonzero;stroke:none"
             id="path66"
             inkscape:connector-curvature="0" /><path
             d="m 1711.64,1346.16 c 5.15,-0.52 11.27,-1.15 18.27,-1.68 7.1,-0.62 14.37,-0.89 21.82,-0.89 19.86,0 37.78,2.17 53.74,6.48 15.97,4.34 29.54,11.66 40.71,21.99 11.26,10.38 19.86,24.13 25.9,41.24 6.03,17.07 9.04,38.41 9.04,64.04 0,44.57 -11.43,77.29 -34.31,98.13 -22.8,20.84 -54.54,31.27 -95.08,31.27 -6.65,0 -13.74,-0.14 -21.38,-0.45 -7.63,-0.26 -13.83,-0.84 -18.71,-1.68 l 0,-258.45 z m -29.79,284.34 c 3.98,0.54 8.95,1.15 14.89,1.69 5.86,0.62 12.15,1.06 18.72,1.5 6.65,0.45 13.3,0.8 19.86,1.07 6.65,0.31 12.69,0.45 18.1,0.45 27.05,0 50.54,-3.65 70.59,-11.01 19.95,-7.31 36.45,-17.82 49.57,-31.49 13.14,-13.65 22.8,-30.32 29.1,-50.01 6.38,-19.69 9.49,-41.95 9.49,-66.65 0,-107.27 -52.86,-160.92 -158.75,-160.92 -6.04,0 -12.51,0.17 -19.34,0.44 -6.91,0.27 -13.66,0.62 -20.13,1.06 -6.48,0.45 -12.5,1.03 -18.09,1.73 -5.59,0.76 -10.29,1.38 -14.01,1.95 l 0,310.19"
             style="fill:#615f67;fill-opacity:1;fill-rule:nonzero;stroke:none"
             id="path68"
             inkscape:connector-curvature="0" /><path
             d="m 2140.36,1449.76 c 0,8.87 -1.15,17.64 -3.46,26.29 -2.3,8.65 -5.85,16.19 -10.73,22.66 -4.88,6.48 -11.27,11.71 -18.98,15.7 -7.81,4.08 -17.11,6.08 -28.02,6.08 -20.14,0 -35.83,-6.17 -47.1,-18.58 -11.17,-12.34 -17.91,-29.72 -20.21,-52.15 l 128.5,0 z m -129.39,-23.77 c 0,-29.31 6.74,-50.91 20.3,-64.7 13.49,-13.79 33.8,-20.71 60.84,-20.71 10.92,0 21.02,0.94 30.33,2.84 9.41,1.87 18.54,4.35 27.41,7.54 1.42,-3.19 2.57,-7.1 3.46,-11.66 0.89,-4.62 1.42,-8.79 1.77,-12.51 -8.33,-3.77 -18.18,-6.61 -29.36,-8.65 -11.26,-2 -23.41,-3.01 -36.71,-3.01 -18.98,0 -35.3,2.84 -48.95,8.42 -13.66,5.59 -24.84,13.44 -33.61,23.5 -8.79,10.07 -15.26,22.09 -19.43,36.01 -4.17,13.97 -6.21,29.26 -6.21,45.94 0,16.15 1.87,31.21 5.77,45.32 3.9,14.1 9.75,26.43 17.74,37.08 7.89,10.63 17.99,18.97 30.42,25.01 12.32,6.07 27.14,9.08 44.43,9.08 14.37,0 27.14,-2.43 38.31,-7.31 11.26,-4.88 20.66,-11.72 28.29,-20.49 7.63,-8.78 13.39,-19.29 17.3,-31.49 3.81,-12.24 5.76,-25.54 5.76,-39.9 0,-2.62 -0.09,-5.95 -0.18,-9.93 -0.17,-4.05 -0.35,-7.5 -0.62,-10.38 l -157.06,0"
             style="fill:#615f67;fill-opacity:1;fill-rule:nonzero;stroke:none"
             id="path70"
             inkscape:connector-curvature="0" /><path
             d="m 2274.99,1348.38 c 6.65,-2.62 13.49,-4.56 20.49,-5.85 7.1,-1.29 16.49,-1.95 28.29,-1.95 11.17,0 21.82,1.78 31.93,5.41 10.02,3.59 18.8,9.26 26.34,17.03 7.45,7.76 13.3,17.61 17.65,29.53 4.34,11.97 6.47,26.25 6.47,42.93 0,26.47 -4.97,47.18 -14.9,62.12 -9.93,14.95 -25.99,22.44 -48.07,22.44 -6.92,0 -14.36,-1.15 -22.44,-3.46 -8.06,-2.26 -15.43,-6.25 -22.25,-11.83 -6.74,-5.6 -12.34,-12.95 -16.77,-22 -4.52,-9.05 -6.74,-20.49 -6.74,-34.32 l 0,-100.05 z m -28.47,191.92 c 1.78,0.27 3.91,0.54 6.48,0.67 2.57,0.14 4.78,0.22 6.47,0.22 1.78,0 3.9,-0.08 6.48,-0.22 2.57,-0.13 4.78,-0.4 6.47,-0.67 l 2.57,-30.14 c 6.03,9.17 14.72,17.38 26.16,24.56 11.35,7.19 26.08,10.77 44.17,10.77 13.57,0 25.9,-2.08 37.07,-6.25 11.26,-4.17 20.84,-10.73 28.74,-19.6 7.89,-8.96 14.1,-20.13 18.54,-33.7 4.43,-13.48 6.65,-29.71 6.65,-48.69 0,-18.98 -2.58,-36.05 -7.73,-51.18 -5.13,-15.07 -12.76,-27.85 -22.6,-38.39 -9.94,-10.47 -22.18,-18.54 -36.72,-24.13 -14.54,-5.58 -31.14,-8.42 -49.85,-8.42 -6.92,0 -14.36,0.61 -22.44,1.73 -7.98,1.15 -15.34,2.88 -21.99,5.18 l 0,-103.54 c -1.69,-0.27 -4.17,-0.49 -7.28,-0.67 -3.18,-0.08 -5.49,-0.17 -6.91,-0.17 -1.78,0 -4.08,0.09 -7.09,0.17 -3.1,0.18 -5.41,0.4 -7.19,0.67 l 0,321.8"
             style="fill:#615f67;fill-opacity:1;fill-rule:nonzero;stroke:none"
             id="path72"
             inkscape:connector-curvature="0" /><path
             d="m 2636.93,1427.32 c -4.88,0.53 -11,1.2 -18.36,1.95 -7.27,0.71 -14.27,1.06 -20.93,1.06 -21.55,0 -38.23,-4.08 -50.02,-12.06 -11.8,-8.07 -17.65,-19.6 -17.65,-34.54 0,-9.49 1.77,-17.12 5.41,-22.84 3.55,-5.76 8.25,-10.16 14.01,-13.21 5.77,-3.02 12.07,-5.01 18.98,-6.04 6.92,-0.98 13.75,-1.5 20.66,-1.5 8.96,0 17.3,0.44 25.01,1.32 7.82,0.84 15.43,2 22.89,3.46 l 0,82.4 z m 0,38.4 c 0,18.98 -4.44,32.82 -13.39,41.6 -8.87,8.77 -22.08,13.17 -39.65,13.17 -11.53,0 -22,-0.8 -31.49,-2.35 -9.48,-1.6 -18,-3.55 -25.45,-5.85 -1.5,2.57 -2.65,6.28 -3.72,11.21 -0.97,4.88 -1.51,9.49 -1.51,13.79 7.54,2.31 16.68,4.25 27.67,5.85 10.91,1.56 22.08,2.35 33.62,2.35 27.93,0 48.59,-6.11 62.08,-18.31 13.56,-12.24 20.31,-31.44 20.31,-57.6 l 0,-145.41 c -10.03,-1.99 -22.27,-3.99 -36.63,-6.03 -14.45,-2 -28.12,-3.01 -40.98,-3.01 -26.77,0 -47.89,5.32 -63.23,15.96 -15.43,10.64 -23.06,27.89 -23.06,51.79 0,11.49 2.22,21.78 6.65,30.82 4.44,9.09 10.65,16.67 18.54,22.84 7.89,6.21 17.38,10.91 28.47,14.06 11.08,3.15 23.24,4.74 36.45,4.74 10.37,0 19.33,-0.35 26.78,-1.06 7.45,-0.71 13.66,-1.42 18.54,-1.96 l 0,13.4"
             style="fill:#615f67;fill-opacity:1;fill-rule:nonzero;stroke:none"
             id="path74"
             inkscape:connector-curvature="0" /><path
             d="m 2752.13,1540.3 c 2.31,0.27 4.53,0.54 6.66,0.67 2.13,0.14 4.26,0.22 6.29,0.22 2.3,0 4.43,-0.08 6.48,-0.22 1.95,-0.13 4.16,-0.4 6.47,-0.67 0.53,-5.14 0.97,-11.26 1.25,-18.31 0.26,-7.05 0.44,-13.44 0.44,-19.2 5.76,10.65 13.83,19.6 24.12,26.96 10.38,7.36 24.03,11 41.06,11 1.42,0 2.93,0 4.52,0 1.52,0 3.37,-0.18 5.33,-0.45 0.88,-4.87 1.32,-9.48 1.32,-13.78 0,-4.61 -0.44,-9.1 -1.32,-13.36 -2.31,0.28 -4.09,0.41 -5.33,0.41 -1.32,0 -2.65,0 -4.17,0 -19.51,0 -35.2,-6.17 -47,-18.54 -11.79,-12.37 -17.64,-32.95 -17.64,-61.68 l 0,-113.04 c -1.78,-0.31 -4.09,-0.49 -7.1,-0.66 -3.02,-0.14 -5.41,-0.18 -7.18,-0.18 -1.43,0 -3.73,0.04 -6.93,0.18 -3.09,0.17 -5.58,0.35 -7.27,0.66 l 0,219.99"
             style="fill:#615f67;fill-opacity:1;fill-rule:nonzero;stroke:none"
             id="path76"
             inkscape:connector-curvature="0" /><path
             d="m 2928.1,1516.18 -37.52,0 c -0.27,1.42 -0.54,3.28 -0.62,5.59 -0.18,2.3 -0.27,4.61 -0.27,6.92 0,2.31 0.09,4.44 0.27,6.47 0.08,2 0.35,3.73 0.62,5.14 l 37.52,0 0,41.42 26.77,26.35 1.69,0 0,-67.77 59.51,0 c 0.36,-1.41 0.53,-3.14 0.71,-5.14 0.1,-2.03 0.17,-4.16 0.17,-6.47 0,-2.31 -0.07,-4.62 -0.17,-6.92 -0.18,-2.31 -0.35,-4.17 -0.71,-5.59 l -59.51,0 0,-143.23 c 0,-7.19 0.98,-12.86 2.83,-17.03 1.87,-4.16 4.26,-7.44 7.28,-9.76 3.11,-2.3 6.47,-3.8 10.38,-4.52 3.9,-0.7 7.89,-1.06 11.89,-1.06 10.02,0 18.79,1.33 26.33,3.9 1.96,-7.49 3.46,-15.52 4.26,-24.17 -10.29,-3.14 -22.44,-4.74 -36.19,-4.74 -16.41,0 -29.71,4.39 -39.9,13.12 -10.2,8.78 -15.34,23.11 -15.34,42.93 l 0,144.56"
             style="fill:#615f67;fill-opacity:1;fill-rule:nonzero;stroke:none"
             id="path78"
             inkscape:connector-curvature="0" /><path
             d="m 3079.57,1540.3 c 2.31,0.27 4.52,0.54 6.65,0.67 2.13,0.14 4.26,0.22 6.3,0.22 2.3,0 4.43,-0.08 6.47,-0.22 1.96,-0.13 4.17,-0.4 6.48,-0.67 0.53,-5.14 0.98,-11.34 1.24,-18.53 0.26,-7.18 0.44,-13.65 0.44,-19.43 2.58,5.5 5.95,10.82 9.94,15.97 3.98,5.19 8.78,9.76 14.19,13.84 5.5,3.98 11.8,7.23 18.8,9.67 7.01,2.48 14.99,3.67 23.94,3.67 8.34,0 15.53,-1.02 21.56,-3.01 6.02,-2 11.26,-4.83 15.79,-8.43 4.43,-3.59 8.15,-7.85 11.17,-12.72 3.02,-4.88 5.85,-10.33 8.42,-16.41 3.2,4.61 6.75,9.4 10.82,14.28 3.99,4.87 8.61,9.27 13.75,13.12 5.23,3.91 11.17,7.06 17.92,9.5 6.74,2.48 14.27,3.67 22.7,3.67 25.54,0 43.99,-7.31 55.43,-21.99 11.35,-14.68 17.03,-35.7 17.03,-63.01 l 0,-140.18 c -1.77,-0.31 -4.18,-0.49 -7.18,-0.66 -3.02,-0.14 -5.33,-0.18 -7.1,-0.18 -1.42,0 -3.72,0.04 -6.92,0.18 -3.1,0.17 -5.58,0.35 -7.27,0.66 l 0,130.29 c 0,23.28 -3.81,40.57 -11.44,51.74 -7.63,11.23 -19.07,16.86 -34.32,16.86 -9.22,0 -17.3,-1.86 -24.13,-5.63 -6.91,-3.73 -12.68,-8.78 -17.29,-15.12 -4.61,-6.3 -8.17,-13.7 -10.56,-22.18 -2.48,-8.52 -3.63,-17.47 -3.63,-26.95 l 0,-129.01 c -1.78,-0.31 -4.17,-0.49 -7.19,-0.66 -3.01,-0.14 -5.32,-0.18 -7.09,-0.18 -1.42,0 -3.73,0.04 -6.92,0.18 -3.1,0.17 -5.59,0.35 -7.28,0.66 l 0,135.92 c 0,22.08 -3.54,38.49 -10.63,49.13 -7.01,10.65 -17.12,15.97 -30.42,15.97 -8.87,0 -17.03,-2.22 -24.57,-6.65 -7.45,-4.48 -13.93,-10.73 -19.43,-18.81 -5.41,-8.07 -9.66,-17.6 -12.68,-28.64 -3.01,-11.09 -4.51,-23.25 -4.51,-36.46 l 0,-110.46 c -1.78,-0.31 -4.09,-0.49 -7.1,-0.66 -3.02,-0.14 -5.41,-0.18 -7.19,-0.18 -1.42,0 -3.72,0.04 -6.91,0.18 -3.11,0.17 -5.59,0.35 -7.28,0.66 l 0,219.99"
             style="fill:#615f67;fill-opacity:1;fill-rule:nonzero;stroke:none"
             id="path80"
             inkscape:connector-curvature="0" /><path
             d="m 3602.83,1449.76 c 0,8.87 -1.15,17.64 -3.45,26.29 -2.31,8.65 -5.94,16.19 -10.83,22.66 -4.88,6.48 -11.17,11.71 -18.98,15.7 -7.71,4.08 -17.11,6.08 -28.02,6.08 -20.13,0 -35.83,-6.17 -47,-18.58 -11.27,-12.34 -18.01,-29.72 -20.31,-52.15 l 128.59,0 z m -129.39,-23.77 c 0,-29.31 6.74,-50.91 20.21,-64.7 13.58,-13.79 33.8,-20.71 60.85,-20.71 10.91,0 21.11,0.94 30.42,2.84 9.31,1.87 18.45,4.35 27.4,7.54 1.42,-3.19 2.57,-7.1 3.46,-11.66 0.8,-4.62 1.43,-8.79 1.69,-12.51 -8.34,-3.77 -18.09,-6.61 -29.36,-8.65 -11.18,-2 -23.41,-3.01 -36.63,-3.01 -18.98,0 -35.3,2.84 -48.95,8.42 -13.66,5.59 -24.92,13.44 -33.7,23.5 -8.69,10.07 -15.17,22.09 -19.34,36.01 -4.17,13.97 -6.3,29.26 -6.3,45.94 0,16.15 1.96,31.21 5.85,45.32 3.91,14.1 9.77,26.43 17.66,37.08 7.89,10.63 18.09,18.97 30.42,25.01 12.32,6.07 27.23,9.08 44.43,9.08 14.37,0 27.23,-2.43 38.4,-7.31 11.17,-4.88 20.67,-11.72 28.29,-20.49 7.54,-8.78 13.3,-19.29 17.21,-31.49 3.91,-12.24 5.86,-25.54 5.86,-39.9 0,-2.62 -0.1,-5.95 -0.27,-9.93 -0.09,-4.05 -0.36,-7.5 -0.63,-10.38 l -156.97,0"
             style="fill:#615f67;fill-opacity:1;fill-rule:nonzero;stroke:none"
             id="path82"
             inkscape:connector-curvature="0" /><path
             d="m 3708.99,1540.3 c 2.31,0.27 4.53,0.54 6.65,0.67 2.13,0.14 4.26,0.22 6.3,0.22 2.31,0 4.44,-0.08 6.48,-0.22 1.95,-0.13 4.17,-0.4 6.47,-0.67 0.53,-5.14 0.98,-11.61 1.24,-19.42 0.27,-7.72 0.44,-14.49 0.44,-20.22 2.84,5.14 6.65,10.38 11.27,15.7 4.52,5.32 9.93,10.16 16.14,14.46 6.21,4.34 13.31,7.84 21.37,10.55 7.99,2.75 16.77,4.12 26.25,4.12 25.37,0 43.73,-7.53 55.26,-22.66 11.53,-15.08 17.29,-36.27 17.29,-63.58 l 0,-138.94 c -1.77,-0.31 -4.17,-0.49 -7.18,-0.66 -3.01,-0.14 -5.32,-0.18 -7.1,-0.18 -1.41,0 -3.72,0.04 -6.91,0.18 -3.11,0.17 -5.6,0.35 -7.28,0.66 l 0,130.29 c 0,24.43 -3.8,41.99 -11.44,52.63 -7.62,10.65 -19.06,15.97 -34.32,15.97 -10.12,0 -19.6,-2.04 -28.46,-6.04 -8.96,-4.08 -16.6,-9.88 -23.06,-17.46 -6.49,-7.63 -11.62,-17.07 -15.35,-28.3 -3.72,-11.17 -5.59,-24.03 -5.59,-38.4 l 0,-108.69 c -1.78,-0.31 -4.08,-0.49 -7.09,-0.66 -3.02,-0.14 -5.41,-0.18 -7.19,-0.18 -1.41,0 -3.73,0.04 -6.91,0.18 -3.11,0.17 -5.59,0.35 -7.28,0.66 l 0,219.99"
             style="fill:#615f67;fill-opacity:1;fill-rule:nonzero;stroke:none"
             id="path84"
             inkscape:connector-curvature="0" /><path
             d="m 3980.73,1516.18 -37.6,0 c -0.27,1.42 -0.44,3.28 -0.62,5.59 -0.09,2.3 -0.18,4.61 -0.18,6.92 0,2.31 0.09,4.44 0.18,6.47 0.18,2 0.35,3.73 0.62,5.14 l 37.6,0 0,41.42 26.7,26.35 1.77,0 0,-67.77 59.51,0 c 0.27,-1.41 0.54,-3.14 0.63,-5.14 0.17,-2.03 0.26,-4.16 0.26,-6.47 0,-2.31 -0.09,-4.62 -0.26,-6.92 -0.09,-2.31 -0.36,-4.17 -0.63,-5.59 l -59.51,0 0,-143.23 c 0,-7.19 0.89,-12.86 2.75,-17.03 1.87,-4.16 4.35,-7.44 7.37,-9.76 3,-2.3 6.47,-3.8 10.37,-4.52 3.82,-0.7 7.81,-1.06 11.79,-1.06 10.12,0 18.89,1.33 26.35,3.9 2.03,-7.49 3.46,-15.52 4.34,-24.17 -10.37,-3.14 -22.43,-4.74 -36.27,-4.74 -16.41,0 -29.71,4.39 -39.91,13.12 -10.2,8.78 -15.26,23.11 -15.26,42.93 l 0,144.56"
             style="fill:#615f67;fill-opacity:1;fill-rule:nonzero;stroke:none"
             id="path86"
             inkscape:connector-curvature="0" /><path
             d="m 4340.9,1340.14 c 23.06,0 40.17,8.06 51.52,24.21 11.45,16.05 17.12,38.04 17.12,65.98 0,27.85 -5.67,49.85 -17.12,65.99 -11.35,16.09 -28.46,24.17 -51.52,24.17 -22.97,0 -40.18,-8.08 -51.52,-24.17 -11.36,-16.14 -17.04,-38.14 -17.04,-65.99 0,-27.94 5.68,-49.93 17.04,-65.98 11.34,-16.15 28.55,-24.21 51.52,-24.21 z m 0,-25.01 c -16.41,0 -30.77,2.97 -43.11,8.87 -12.41,5.84 -22.69,14.01 -30.86,24.38 -8.16,10.33 -14.27,22.53 -18.36,36.63 -3.99,14.1 -6.03,29.18 -6.03,45.32 0,16.1 2.04,31.17 6.03,45.28 4.09,14.1 10.2,26.3 18.36,36.68 8.17,10.37 18.45,18.43 30.86,24.38 12.34,5.85 26.7,8.82 43.11,8.82 16.4,0 30.68,-2.97 42.93,-8.82 12.23,-5.95 22.43,-14.01 30.68,-24.38 8.16,-10.38 14.37,-22.58 18.54,-36.68 4.17,-14.11 6.21,-29.18 6.21,-45.28 0,-16.14 -2.04,-31.22 -6.21,-45.32 -4.17,-14.1 -10.38,-26.3 -18.54,-36.63 -8.25,-10.37 -18.45,-18.54 -30.68,-24.38 -12.25,-5.9 -26.53,-8.87 -42.93,-8.87"
             style="fill:#615f67;fill-opacity:1;fill-rule:nonzero;stroke:none"
             id="path88"
             inkscape:connector-curvature="0" /><path
             d="m 4529,1516.18 -37.51,0 c -0.26,1.42 -0.45,3.15 -0.62,5.15 -0.18,2.04 -0.26,4.17 -0.26,6.47 0,2.31 0.08,4.61 0.26,6.92 0.17,2.3 0.36,4.17 0.62,5.58 l 37.51,0 0,19.43 c 0,27.05 6.04,47.31 17.92,60.84 11.98,13.48 30.86,20.26 56.76,20.26 6.03,0 11.53,-0.4 16.58,-1.1 5.06,-0.71 9.32,-1.51 12.78,-2.35 -0.62,-5.45 -1.24,-9.9 -1.96,-13.36 -0.7,-3.45 -1.68,-7.17 -2.83,-11.25 -2.58,0.62 -6.03,1.23 -10.38,1.95 -4.26,0.71 -8.87,1.06 -13.75,1.06 -7.54,0 -14.1,-0.8 -19.86,-2.35 -5.76,-1.55 -10.55,-4.48 -14.46,-8.64 -3.9,-4.17 -6.91,-9.99 -9.04,-17.49 -2.13,-7.44 -3.28,-17.1 -3.28,-28.86 l 0,-18.14 60.39,0 c 0.35,-1.41 0.53,-3.28 0.71,-5.58 0.09,-2.31 0.18,-4.61 0.18,-6.92 0,-2.3 -0.09,-4.43 -0.18,-6.47 -0.18,-2 -0.36,-3.73 -0.71,-5.15 l -60.39,0 0,-195.87 c -1.69,-0.31 -4.08,-0.49 -7.1,-0.66 -3.02,-0.14 -5.41,-0.18 -7.1,-0.18 -1.41,0 -3.72,0.04 -6.91,0.18 -3.2,0.17 -5.59,0.35 -7.37,0.66 l 0,195.87"
             style="fill:#615f67;fill-opacity:1;fill-rule:nonzero;stroke:none"
             id="path90"
             inkscape:connector-curvature="0" /><path
             d="m 1003.33,954.375 c 18.8,0 34.05,15.254 34.05,34.063 0,18.802 -15.25,34.052 -34.05,34.052 l -425.658,0 -98.887,169.33 98.887,175.09 425.658,0 c 18.8,0 34.05,15.27 34.05,34.07 0,18.8 -15.25,34.05 -34.05,34.05 l -445.217,0 c -12.101,0 -23.324,-6.39 -29.441,-16.93 L 409.918,1209.03 c -6.164,-10.65 -6.164,-23.77 0.043,-34.33 L 518.711,988.477 409.961,807.121 c -6.207,-10.562 -6.207,-23.68 0,-34.332 L 528.715,569.262 c 6.074,-10.473 17.297,-16.864 29.398,-16.864 l 445.217,0 c 18.8,0 34.05,15.262 34.05,34.071 0,18.793 -15.25,34.051 -34.05,34.051 l -425.658,0 -98.887,169.48 98.887,164.375 425.658,0"
             style="fill:#ca1b34;fill-opacity:1;fill-rule:nonzero;stroke:none"
             id="path92"
             inkscape:connector-curvature="0" /></g></g></g></g></svg>