<?xml version="1.0" encoding="UTF-8" standalone="no"?>
<!-- Created with Inkscape (http://www.inkscape.org/) -->

<svg
   xmlns:dc="http://purl.org/dc/elements/1.1/"
   xmlns:cc="http://creativecommons.org/ns#"
   xmlns:rdf="http://www.w3.org/1999/02/22-rdf-syntax-ns#"
   xmlns:svg="http://www.w3.org/2000/svg"
   xmlns="http://www.w3.org/2000/svg"
   xmlns:sodipodi="http://sodipodi.sourceforge.net/DTD/sodipodi-0.dtd"
   xmlns:inkscape="http://www.inkscape.org/namespaces/inkscape"
   width="161.4341mm"
   height="51.051582mm"
   viewBox="0 0 572.01057 180.89143"
   id="svg5542"
   version="1.1"
   inkscape:version="0.91 r13725"
   sodipodi:docname="simplernngatto.svg">
  <defs
     id="defs5544">
    <marker
       inkscape:isstock="true"
       style="overflow:visible"
       id="marker6781"
       refX="0"
       refY="0"
       orient="auto"
       inkscape:stockid="Arrow1Mend">
      <path
         transform="matrix(-0.4,0,0,-0.4,-4,0)"
         style="fill:#000000;fill-opacity:1;fill-rule:evenodd;stroke:#000000;stroke-width:1pt;stroke-opacity:1"
         d="M 0,0 5,-5 -12.5,0 5,5 0,0 Z"
         id="path6783"
         inkscape:connector-curvature="0" />
    </marker>
    <marker
       inkscape:isstock="true"
       style="overflow:visible"
       id="marker6739"
       refX="0"
       refY="0"
       orient="auto"
       inkscape:stockid="Arrow1Mend">
      <path
         transform="matrix(-0.4,0,0,-0.4,-4,0)"
         style="fill:#000000;fill-opacity:1;fill-rule:evenodd;stroke:#000000;stroke-width:1pt;stroke-opacity:1"
         d="M 0,0 5,-5 -12.5,0 5,5 0,0 Z"
         id="path6741"
         inkscape:connector-curvature="0" />
    </marker>
    <marker
       inkscape:stockid="Arrow1Mend"
       orient="auto"
       refY="0"
       refX="0"
       id="Arrow1Mend"
       style="overflow:visible"
       inkscape:isstock="true"
       inkscape:collect="always">
      <path
         id="path6440"
         d="M 0,0 5,-5 -12.5,0 5,5 0,0 Z"
         style="fill:#000000;fill-opacity:1;fill-rule:evenodd;stroke:#000000;stroke-width:1pt;stroke-opacity:1"
         transform="matrix(-0.4,0,0,-0.4,-4,0)"
         inkscape:connector-curvature="0" />
    </marker>
    <marker
       inkscape:stockid="Arrow1Lend"
       orient="auto"
       refY="0"
       refX="0"
       id="Arrow1Lend"
       style="overflow:visible"
       inkscape:isstock="true">
      <path
         id="path6434"
         d="M 0,0 5,-5 -12.5,0 5,5 0,0 Z"
         style="fill:#000000;fill-opacity:1;fill-rule:evenodd;stroke:#000000;stroke-width:1pt;stroke-opacity:1"
         transform="matrix(-0.8,0,0,-0.8,-10,0)"
         inkscape:connector-curvature="0" />
    </marker>
  </defs>
  <sodipodi:namedview
     id="base"
     pagecolor="#ffffff"
     bordercolor="#666666"
     borderopacity="1.0"
     inkscape:pageopacity="0.0"
     inkscape:pageshadow="2"
     inkscape:zoom="1.979899"
     inkscape:cx="261.27858"
     inkscape:cy="48.596537"
     inkscape:document-units="px"
     inkscape:current-layer="layer1"
     showgrid="false"
     showguides="false"
     inkscape:window-width="1920"
     inkscape:window-height="1016"
     inkscape:window-x="0"
     inkscape:window-y="27"
     inkscape:window-maximized="1"
     fit-margin-top="0"
     fit-margin-left="0"
     fit-margin-right="0"
     fit-margin-bottom="0" />
  <metadata
     id="metadata5547">
    <rdf:RDF>
      <cc:Work
         rdf:about="">
        <dc:format>image/svg+xml</dc:format>
        <dc:type
           rdf:resource="http://purl.org/dc/dcmitype/StillImage" />
        <dc:title></dc:title>
      </cc:Work>
    </rdf:RDF>
  </metadata>
  <g
     inkscape:label="Layer 1"
     inkscape:groupmode="layer"
     id="layer1"
     transform="translate(27.03323,-438.18945)">
    <rect
       style="fill:#ffffff;fill-opacity:1;stroke:none;stroke-opacity:1"
       id="rect8450"
       width="473.9119"
       height="179.99998"
       x="-27.03323"
       y="439.0809" />
    <path
       style="display:inline;fill:none;fill-rule:evenodd;stroke:#000000;stroke-width:1px;stroke-linecap:butt;stroke-linejoin:miter;stroke-opacity:1;marker-end:url(#Arrow1Mend)"
       d="m 272.58782,506.83353 -0.0442,-17.6317"
       id="path6396"
       inkscape:connector-type="polyline"
       inkscape:connector-curvature="3"
       inkscape:connection-end="#path6404"
       inkscape:connection-start="#rect5550" />
    <path
       style="fill:none;fill-rule:evenodd;stroke:#000000;stroke-width:1px;stroke-linecap:butt;stroke-linejoin:miter;stroke-opacity:1;marker-end:url(#marker6739)"
       d="m 272.70797,571.78232 -0.0312,-20.66308"
       id="path6423"
       inkscape:connector-type="polyline"
       inkscape:connector-curvature="3"
       inkscape:connection-start="#path6404-5"
       inkscape:connection-end="#rect5550" />
    <g
       id="g8225"
       transform="matrix(1,0,0,-1,0,1057.9528)">
      <rect
         y="506.83356"
         x="250.50041"
         height="44.285713"
         width="44.285713"
         id="rect5550"
         style="fill:#ffffff;fill-opacity:1;fill-rule:evenodd;stroke:#000000;stroke-width:1px;stroke-linecap:butt;stroke-linejoin:miter;stroke-opacity:1" />
      <path
         sodipodi:nodetypes="cc"
         inkscape:connector-curvature="0"
         id="path6773"
         d="m 250.03307,535.88098 c -31.78208,36.13734 -33.66163,-41.92361 -1.01016,-9.59645"
         style="fill:none;fill-rule:evenodd;stroke:#000000;stroke-width:1px;stroke-linecap:butt;stroke-linejoin:miter;stroke-opacity:1;marker-end:url(#marker6781)" />
    </g>
    <g
       id="g8436"
       transform="translate(134.35029,0)">
      <g
         id="flowRoot8229"
         style="font-style:normal;font-weight:normal;font-size:5px;line-height:125%;font-family:sans-serif;letter-spacing:0px;word-spacing:0px;fill:#000000;fill-opacity:1;stroke:none;stroke-width:1px;stroke-linecap:butt;stroke-linejoin:miter;stroke-opacity:1"
         transform="translate(77.781746,9.0913732)">
        <path
           id="path8426"
           style="font-size:22.5px"
           d="m 56.086426,573.32627 2.03247,0 0,10.09644 6.031495,-5.3064 2.581787,0 -6.525879,5.75684 6.800537,6.54785 -2.636719,0 -6.251221,-6.00952 0,6.00952 -2.03247,0 0,-17.09473 z"
           inkscape:connector-curvature="0" />
        <path
           id="path8428"
           style="font-size:22.5px"
           d="m 96.296387,584.23569 q -2.449951,0 -3.394776,0.56031 -0.944824,0.5603 -0.944824,1.91162 0,1.07666 0.703125,1.71387 0.714111,0.62622 1.933594,0.62622 1.680908,0 2.69165,-1.18653 1.021729,-1.19751 1.021729,-3.17505 l 0,-0.45044 -2.010498,0 z m 4.031983,-0.83496 0,7.02027 -2.021485,0 0,-1.86768 q -0.692139,1.12061 -1.724854,1.65894 -1.032715,0.52734 -2.526855,0.52734 -1.889649,0 -3.010254,-1.05469 -1.109619,-1.06567 -1.109619,-2.84546 0,-2.07641 1.384277,-3.1311 1.395264,-1.05469 4.152832,-1.05469 l 2.834473,0 0,-0.19775 q 0,-1.39526 -0.922852,-2.15332 -0.911865,-0.76904 -2.570801,-0.76904 -1.054687,0 -2.054443,0.25268 -0.999756,0.25269 -1.922607,0.75806 l 0,-1.86768 q 1.109619,-0.42846 2.15332,-0.63721 1.043701,-0.21972 2.032471,-0.21972 2.669677,0 3.988037,1.38428 1.31836,1.38427 1.31836,4.19677 z"
           inkscape:connector-curvature="0" />
        <path
           id="path8430"
           style="font-size:22.5px"
           d="m 127.99194,574.62266 0,3.49365 4.16382,0 0,1.57104 -4.16382,0 0,6.67969 q 0,1.50513 0.4065,1.9336 0.41748,0.42846 1.68091,0.42846 l 2.07641,0 0,1.6919 -2.07641,0 q -2.34009,0 -3.22998,-0.86792 -0.8899,-0.87891 -0.8899,-3.18604 l 0,-6.67969 -1.48315,0 0,-1.57104 1.48315,0 0,-3.49365 2.03247,0 z"
           inkscape:connector-curvature="0" />
        <path
           id="path8432"
           style="font-size:22.5px"
           d="m 155.43579,578.11631 9.60205,0 0,1.8457 -7.60254,8.844 7.60254,0 0,1.61499 -9.87671,0 0,-1.84571 7.60254,-8.84399 -7.32788,0 0,-1.61499 z"
           inkscape:connector-curvature="0" />
        <path
           id="path8434"
           style="font-size:22.5px"
           d="m 200.15015,583.76328 0,0.98877 -9.29444,0 q 0.13184,2.0874 1.25244,3.18604 1.1316,1.08764 3.14209,1.08764 1.16455,0 2.2522,-0.28564 1.09863,-0.28565 2.17529,-0.85694 l 0,1.91163 q -1.08764,0.46142 -2.23022,0.70312 -1.14258,0.2417 -2.31812,0.2417 -2.94433,0 -4.66918,-1.71387 -1.71387,-1.71386 -1.71387,-4.63623 0,-3.02124 1.62597,-4.79004 1.63697,-1.77978 4.40552,-1.77978 2.48291,0 3.92212,1.604 1.4502,1.59302 1.4502,4.3396 z m -2.02149,-0.59326 q -0.022,-1.65894 -0.93384,-2.6477 -0.90087,-0.98877 -2.39502,-0.98877 -1.69189,0 -2.71362,0.95581 -1.01074,0.95581 -1.16455,2.69165 l 7.20703,-0.011 z"
           inkscape:connector-curvature="0" />
      </g>
      <g
         id="flowRoot8229-3"
         style="font-style:normal;font-weight:normal;font-size:5px;line-height:125%;font-family:sans-serif;letter-spacing:0px;word-spacing:0px;fill:#000000;fill-opacity:1;stroke:none;stroke-width:1px;stroke-linecap:butt;stroke-linejoin:miter;stroke-opacity:1"
         transform="translate(175.93763,-117.07444)">
        <path
           id="path8415"
           style="font-size:22.5px;fill:#ff0000;fill-opacity:1"
           d="m 64.260254,584.12583 q 0,-2.19726 -0.911865,-3.40576 -0.900879,-1.2085 -2.537842,-1.2085 -1.625977,0 -2.537842,1.2085 -0.900879,1.2085 -0.900879,3.40576 0,2.18628 0.900879,3.39478 0.911865,1.20849 2.537842,1.20849 1.636963,0 2.537842,-1.20849 0.911865,-1.2085 0.911865,-3.39478 z m 2.021484,4.76807 q 0,3.14209 -1.395263,4.66919 -1.395264,1.53808 -4.273682,1.53808 -1.065674,0 -2.010498,-0.16479 -0.944824,-0.15381 -1.834717,-0.4834 l 0,-1.96655 q 0.889893,0.48339 1.757813,0.71411 0.86792,0.23071 1.768798,0.23071 1.988526,0 2.977295,-1.0437 0.98877,-1.03272 0.98877,-3.1311 l 0,-0.99976 q -0.626221,1.08765 -1.604004,1.62598 -0.977783,0.53833 -2.340088,0.53833 -2.263183,0 -3.647461,-1.72486 -1.384277,-1.72485 -1.384277,-4.57031 0,-2.85644 1.384277,-4.5813 1.384278,-1.72485 3.647461,-1.72485 1.362305,0 2.340088,0.53833 0.977783,0.53833 1.604004,1.62598 l 0,-1.86768 2.021484,0 0,10.77759 z"
           inkscape:connector-curvature="0" />
        <path
           id="path8417"
           style="font-size:22.5px;fill:#ff0000;fill-opacity:1"
           d="m 97.526855,584.23569 q -2.449951,0 -3.394775,0.56031 -0.944824,0.5603 -0.944824,1.91162 0,1.07666 0.703125,1.71387 0.714111,0.62622 1.933594,0.62622 1.680908,0 2.69165,-1.18653 1.021729,-1.19751 1.021729,-3.17505 l 0,-0.45044 -2.010499,0 z m 4.031985,-0.83496 0,7.02027 -2.021486,0 0,-1.86768 q -0.692139,1.12061 -1.724854,1.65894 -1.032715,0.52734 -2.526855,0.52734 -1.889649,0 -3.010254,-1.05469 -1.10962,-1.06567 -1.10962,-2.84546 0,-2.07641 1.384278,-3.1311 1.395263,-1.05469 4.152832,-1.05469 l 2.834473,0 0,-0.19775 q 0,-1.39526 -0.922852,-2.15332 -0.911865,-0.76904 -2.570801,-0.76904 -1.054687,0 -2.054443,0.25268 -0.999756,0.25269 -1.922608,0.75806 l 0,-1.86768 q 1.10962,-0.42846 2.153321,-0.63721 1.043701,-0.21972 2.03247,-0.21972 2.669678,0 3.988039,1.38428 1.31836,1.38427 1.31836,4.19677 z"
           inkscape:connector-curvature="0" />
        <path
           id="path8419"
           style="font-size:22.5px;fill:#ff0000;fill-opacity:1"
           d="m 129.22241,574.62266 0,3.49365 4.16382,0 0,1.57104 -4.16382,0 0,6.67969 q 0,1.50513 0.4065,1.9336 0.41748,0.42846 1.6809,0.42846 l 2.07642,0 0,1.6919 -2.07642,0 q -2.34008,0 -3.22998,-0.86792 -0.88989,-0.87891 -0.88989,-3.18604 l 0,-6.67969 -1.48315,0 0,-1.57104 1.48315,0 0,-3.49365 2.03247,0 z"
           inkscape:connector-curvature="0" />
        <path
           id="path8421"
           style="font-size:22.5px;fill:#ff0000;fill-opacity:1"
           d="m 159.54468,574.62266 0,3.49365 4.16382,0 0,1.57104 -4.16382,0 0,6.67969 q 0,1.50513 0.40649,1.9336 0.41748,0.42846 1.68091,0.42846 l 2.07642,0 0,1.6919 -2.07642,0 q -2.34009,0 -3.22998,-0.86792 -0.88989,-0.87891 -0.88989,-3.18604 l 0,-6.67969 -1.48316,0 0,-1.57104 1.48316,0 0,-3.49365 2.03247,0 z"
           inkscape:connector-curvature="0" />
        <path
           id="path8423"
           style="font-size:22.5px;fill:#ff0000;fill-opacity:1"
           d="m 192.6355,579.53355 q -1.62598,0 -2.5708,1.27441 -0.94483,1.26343 -0.94483,3.47168 0,2.20825 0.93384,3.48267 0.94483,1.26342 2.58179,1.26342 1.61499,0 2.55981,-1.27441 0.94483,-1.27442 0.94483,-3.47168 0,-2.18628 -0.94483,-3.46069 -0.94482,-1.2854 -2.55981,-1.2854 z m 0,-1.71387 q 2.63672,0 4.14184,1.71387 1.50513,1.71386 1.50513,4.74609 0,3.02124 -1.50513,4.74609 -1.50512,1.71387 -4.14184,1.71387 -2.64771,0 -4.15283,-1.71387 -1.49414,-1.72485 -1.49414,-4.74609 0,-3.03223 1.49414,-4.74609 1.50512,-1.71387 4.15283,-1.71387 z"
           inkscape:connector-curvature="0" />
      </g>
    </g>
    <rect
       style="fill:#ffffff;fill-opacity:1;stroke:none;stroke-opacity:1"
       id="rect8277"
       width="261.50571"
       height="58.083771"
       x="283.47162"
       y="438.18945" />
    <circle
       style="fill:none;fill-opacity:1;stroke:#000000;stroke-opacity:1"
       id="path6404"
       cx="272.48865"
       cy="467.23135"
       r="21.970818" />
    <circle
       style="fill:none;fill-opacity:1;stroke:#000000;stroke-opacity:1"
       id="path6404-5"
       cx="272.74118"
       cy="593.75293"
       r="21.970818" />
    <text
       xml:space="preserve"
       style="font-style:normal;font-weight:normal;font-size:15px;line-height:125%;font-family:sans-serif;letter-spacing:0px;word-spacing:0px;fill:#000000;fill-opacity:1;stroke:none;stroke-width:1px;stroke-linecap:butt;stroke-linejoin:miter;stroke-opacity:1"
       x="255.55693"
       y="533.97552"
       id="text8927"
       sodipodi:linespacing="125%"><tspan
         sodipodi:role="line"
         id="tspan8929"
         x="255.55693"
         y="533.97552">RNN</tspan></text>
    <text
       xml:space="preserve"
       style="font-style:normal;font-weight:normal;font-size:15px;line-height:125%;font-family:sans-serif;letter-spacing:0px;word-spacing:0px;fill:#000000;fill-opacity:1;stroke:none;stroke-width:1px;stroke-linecap:butt;stroke-linejoin:miter;stroke-opacity:1"
       x="276.51758"
       y="500.6405"
       id="o"
       sodipodi:linespacing="125%"><tspan
         sodipodi:role="line"
         id="tspan8943"
         x="276.51758"
         y="500.6405">o<tspan
   style="font-size:64.99999762%;baseline-shift:sub"
   id="tspan8945">t</tspan></tspan></text>
    <text
       xml:space="preserve"
       style="font-style:normal;font-weight:normal;font-size:15px;line-height:125%;font-family:sans-serif;letter-spacing:0px;word-spacing:0px;fill:#000000;fill-opacity:1;stroke:none;stroke-width:1px;stroke-linecap:butt;stroke-linejoin:miter;stroke-opacity:1"
       x="276.51761"
       y="566.55298"
       id="i"
       sodipodi:linespacing="125%"><tspan
         sodipodi:role="line"
         id="tspan8949"
         x="276.51761"
         y="566.55298">i<tspan
   style="font-size:65%;baseline-shift:sub"
   id="tspan8951">t</tspan></tspan></text>
    <text
       xml:space="preserve"
       style="font-style:normal;font-weight:normal;font-size:15px;line-height:125%;font-family:sans-serif;letter-spacing:0px;word-spacing:0px;fill:#000000;fill-opacity:1;stroke:none;stroke-width:1px;stroke-linecap:butt;stroke-linejoin:miter;stroke-opacity:1"
       x="201.26125"
       y="529.93494"
       id="h"
       sodipodi:linespacing="125%"><tspan
         sodipodi:role="line"
         id="tspan8955"
         x="201.26125"
         y="529.93494">h<tspan
   style="font-size:64.99999762%;baseline-shift:sub"
   id="tspan8957">t-1</tspan></tspan></text>
    <rect
       style="fill:none;fill-opacity:1;stroke:none;stroke-opacity:1"
       id="rect8959"
       width="117.68277"
       height="174.75636"
       x="-27.03323"
       y="441.7991" />
    <flowRoot
       xml:space="preserve"
       id="flowRoot8961"
       style="font-style:normal;font-weight:normal;font-size:15px;line-height:125%;font-family:sans-serif;letter-spacing:0px;word-spacing:0px;fill:#000000;fill-opacity:1;stroke:none;stroke-width:1px;stroke-linecap:butt;stroke-linejoin:miter;stroke-opacity:1"
       transform="matrix(1.4538618,0,0,1.4538618,-16.000571,436.50338)"><flowRegion
         id="flowRegion8963"><rect
           id="rect8965"
           width="108.5914"
           height="30.809652"
           x="4.0406103"
           y="10.175653" /></flowRegion><flowPara
         id="flowPara8967">italian:</flowPara></flowRoot>    <flowRoot
       transform="matrix(1.4538618,0,0,1.4538618,-30.591094,558.44134)"
       xml:space="preserve"
       id="flowRoot8961-6"
       style="font-style:normal;font-weight:normal;font-size:15px;line-height:125%;font-family:sans-serif;letter-spacing:0px;word-spacing:0px;fill:#000000;fill-opacity:1;stroke:none;stroke-width:1px;stroke-linecap:butt;stroke-linejoin:miter;stroke-opacity:1"><flowRegion
         id="flowRegion8963-2"><rect
           id="rect8965-6"
           width="108.5914"
           height="30.809652"
           x="4.0406103"
           y="10.175653" /></flowRegion><flowPara
         id="flowPara8967-1">german:</flowPara></flowRoot>  </g>
</svg>
