<?xml version="1.0" encoding="UTF-8" standalone="no"?>
<!-- Created with Inkscape (http://www.inkscape.org/) -->

<svg
   xmlns:dc="http://purl.org/dc/elements/1.1/"
   xmlns:cc="http://creativecommons.org/ns#"
   xmlns:rdf="http://www.w3.org/1999/02/22-rdf-syntax-ns#"
   xmlns:svg="http://www.w3.org/2000/svg"
   xmlns="http://www.w3.org/2000/svg"
   xmlns:xlink="http://www.w3.org/1999/xlink"
   xmlns:sodipodi="http://sodipodi.sourceforge.net/DTD/sodipodi-0.dtd"
   xmlns:inkscape="http://www.inkscape.org/namespaces/inkscape"
   width="152.94182mm"
   height="50.806293mm"
   viewBox="0 0 541.91981 180.0223"
   id="svg5542"
   version="1.1"
   inkscape:version="0.91 r13725"
   sodipodi:docname="simplernngattoexpanded-topath1.svg">
  <defs
     id="defs5544">
    <marker
       inkscape:isstock="true"
       style="overflow:visible;"
       id="marker10153"
       refX="0.0"
       refY="0.0"
       orient="auto"
       inkscape:stockid="Arrow1Mend">
      <path
         transform="scale(0.4) rotate(180) translate(10,0)"
         style="fill-rule:evenodd;stroke:#000000;stroke-width:1pt;stroke-opacity:1;fill:#000000;fill-opacity:1"
         d="M 0.0,0.0 L 5.0,-5.0 L -12.5,0.0 L 5.0,5.0 L 0.0,0.0 z "
         id="path10155" />
    </marker>
    <marker
       inkscape:isstock="true"
       style="overflow:visible;"
       id="marker10149"
       refX="0.0"
       refY="0.0"
       orient="auto"
       inkscape:stockid="Arrow1Mend">
      <path
         transform="scale(0.4) rotate(180) translate(10,0)"
         style="fill-rule:evenodd;stroke:#000000;stroke-width:1pt;stroke-opacity:1;fill:#000000;fill-opacity:1"
         d="M 0.0,0.0 L 5.0,-5.0 L -12.5,0.0 L 5.0,5.0 L 0.0,0.0 z "
         id="path10151" />
    </marker>
    <marker
       inkscape:isstock="true"
       style="overflow:visible;"
       id="marker10145"
       refX="0.0"
       refY="0.0"
       orient="auto"
       inkscape:stockid="Arrow1Mend">
      <path
         transform="scale(0.4) rotate(180) translate(10,0)"
         style="fill-rule:evenodd;stroke:#000000;stroke-width:1pt;stroke-opacity:1;fill:#000000;fill-opacity:1"
         d="M 0.0,0.0 L 5.0,-5.0 L -12.5,0.0 L 5.0,5.0 L 0.0,0.0 z "
         id="path10147" />
    </marker>
    <marker
       inkscape:isstock="true"
       style="overflow:visible;"
       id="marker10141"
       refX="0.0"
       refY="0.0"
       orient="auto"
       inkscape:stockid="Arrow1Mend">
      <path
         transform="scale(0.4) rotate(180) translate(10,0)"
         style="fill-rule:evenodd;stroke:#000000;stroke-width:1pt;stroke-opacity:1;fill:#000000;fill-opacity:1"
         d="M 0.0,0.0 L 5.0,-5.0 L -12.5,0.0 L 5.0,5.0 L 0.0,0.0 z "
         id="path10143" />
    </marker>
    <marker
       inkscape:isstock="true"
       style="overflow:visible;"
       id="marker10137"
       refX="0.0"
       refY="0.0"
       orient="auto"
       inkscape:stockid="Arrow1Mend">
      <path
         transform="scale(0.4) rotate(180) translate(10,0)"
         style="fill-rule:evenodd;stroke:#000000;stroke-width:1pt;stroke-opacity:1;fill:#000000;fill-opacity:1"
         d="M 0.0,0.0 L 5.0,-5.0 L -12.5,0.0 L 5.0,5.0 L 0.0,0.0 z "
         id="path10139" />
    </marker>
    <marker
       inkscape:isstock="true"
       style="overflow:visible;"
       id="marker10133"
       refX="0.0"
       refY="0.0"
       orient="auto"
       inkscape:stockid="Arrow1Mend">
      <path
         transform="scale(0.4) rotate(180) translate(10,0)"
         style="fill-rule:evenodd;stroke:#000000;stroke-width:1pt;stroke-opacity:1;fill:#000000;fill-opacity:1"
         d="M 0.0,0.0 L 5.0,-5.0 L -12.5,0.0 L 5.0,5.0 L 0.0,0.0 z "
         id="path10135" />
    </marker>
    <marker
       inkscape:stockid="Arrow1Mend"
       orient="auto"
       refY="0.0"
       refX="0.0"
       id="marker10129"
       style="overflow:visible;"
       inkscape:isstock="true"
       inkscape:collect="always">
      <path
         id="path10131"
         d="M 0.0,0.0 L 5.0,-5.0 L -12.5,0.0 L 5.0,5.0 L 0.0,0.0 z "
         style="fill-rule:evenodd;stroke:#000000;stroke-width:1pt;stroke-opacity:1;fill:#000000;fill-opacity:1"
         transform="scale(0.4) rotate(180) translate(10,0)" />
    </marker>
    <marker
       inkscape:isstock="true"
       style="overflow:visible;"
       id="marker10125"
       refX="0.0"
       refY="0.0"
       orient="auto"
       inkscape:stockid="Arrow1Mend">
      <path
         transform="scale(0.4) rotate(180) translate(10,0)"
         style="fill-rule:evenodd;stroke:#000000;stroke-width:1pt;stroke-opacity:1;fill:#000000;fill-opacity:1"
         d="M 0.0,0.0 L 5.0,-5.0 L -12.5,0.0 L 5.0,5.0 L 0.0,0.0 z "
         id="path10127" />
    </marker>
    <marker
       inkscape:isstock="true"
       style="overflow:visible;"
       id="marker10121"
       refX="0.0"
       refY="0.0"
       orient="auto"
       inkscape:stockid="Arrow1Mend">
      <path
         transform="scale(0.4) rotate(180) translate(10,0)"
         style="fill-rule:evenodd;stroke:#000000;stroke-width:1pt;stroke-opacity:1;fill:#000000;fill-opacity:1"
         d="M 0.0,0.0 L 5.0,-5.0 L -12.5,0.0 L 5.0,5.0 L 0.0,0.0 z "
         id="path10123" />
    </marker>
    <marker
       inkscape:isstock="true"
       style="overflow:visible;"
       id="marker10117"
       refX="0.0"
       refY="0.0"
       orient="auto"
       inkscape:stockid="Arrow1Mend">
      <path
         transform="scale(0.4) rotate(180) translate(10,0)"
         style="fill-rule:evenodd;stroke:#000000;stroke-width:1pt;stroke-opacity:1;fill:#000000;fill-opacity:1"
         d="M 0.0,0.0 L 5.0,-5.0 L -12.5,0.0 L 5.0,5.0 L 0.0,0.0 z "
         id="path10119" />
    </marker>
    <marker
       inkscape:isstock="true"
       style="overflow:visible;"
       id="marker10113"
       refX="0.0"
       refY="0.0"
       orient="auto"
       inkscape:stockid="Arrow1Mend">
      <path
         transform="scale(0.4) rotate(180) translate(10,0)"
         style="fill-rule:evenodd;stroke:#000000;stroke-width:1pt;stroke-opacity:1;fill:#000000;fill-opacity:1"
         d="M 0.0,0.0 L 5.0,-5.0 L -12.5,0.0 L 5.0,5.0 L 0.0,0.0 z "
         id="path10115" />
    </marker>
    <marker
       inkscape:isstock="true"
       style="overflow:visible;"
       id="marker10109"
       refX="0.0"
       refY="0.0"
       orient="auto"
       inkscape:stockid="Arrow1Mend">
      <path
         transform="scale(0.4) rotate(180) translate(10,0)"
         style="fill-rule:evenodd;stroke:#000000;stroke-width:1pt;stroke-opacity:1;fill:#000000;fill-opacity:1"
         d="M 0.0,0.0 L 5.0,-5.0 L -12.5,0.0 L 5.0,5.0 L 0.0,0.0 z "
         id="path10111" />
    </marker>
    <marker
       inkscape:stockid="Arrow1Mend"
       orient="auto"
       refY="0.0"
       refX="0.0"
       id="marker10105"
       style="overflow:visible;"
       inkscape:isstock="true"
       inkscape:collect="always">
      <path
         id="path10107"
         d="M 0.0,0.0 L 5.0,-5.0 L -12.5,0.0 L 5.0,5.0 L 0.0,0.0 z "
         style="fill-rule:evenodd;stroke:#000000;stroke-width:1pt;stroke-opacity:1;fill:#000000;fill-opacity:1"
         transform="scale(0.4) rotate(180) translate(10,0)" />
    </marker>
    <marker
       inkscape:stockid="Arrow1Mend"
       orient="auto"
       refY="0.0"
       refX="0.0"
       id="Arrow1Mend"
       style="overflow:visible;"
       inkscape:isstock="true">
      <path
         id="path9856"
         d="M 0.0,0.0 L 5.0,-5.0 L -12.5,0.0 L 5.0,5.0 L 0.0,0.0 z "
         style="fill-rule:evenodd;stroke:#000000;stroke-width:1pt;stroke-opacity:1;fill:#000000;fill-opacity:1"
         transform="scale(0.4) rotate(180) translate(10,0)" />
    </marker>
    <marker
       inkscape:stockid="Arrow1Mend"
       orient="auto"
       refY="0"
       refX="0"
       id="marker4703"
       style="overflow:visible"
       inkscape:isstock="true">
      <path
         inkscape:connector-curvature="0"
         id="path4705"
         d="M 0,0 5,-5 -12.5,0 5,5 0,0 Z"
         style="fill:#000000;fill-opacity:1;fill-rule:evenodd;stroke:#000000;stroke-width:1pt;stroke-opacity:1"
         transform="matrix(-0.4,0,0,-0.4,-4,0)" />
    </marker>
    <marker
       inkscape:isstock="true"
       style="overflow:visible"
       id="marker4541"
       refX="0"
       refY="0"
       orient="auto"
       inkscape:stockid="Arrow1Mend"
       inkscape:collect="always">
      <path
         transform="matrix(-0.4,0,0,-0.4,-4,0)"
         style="fill:#000000;fill-opacity:1;fill-rule:evenodd;stroke:#000000;stroke-width:1pt;stroke-opacity:1"
         d="M 0,0 5,-5 -12.5,0 5,5 0,0 Z"
         id="path4543"
         inkscape:connector-curvature="0" />
    </marker>
    <marker
       inkscape:stockid="Arrow1Mend"
       orient="auto"
       refY="0"
       refX="0"
       id="marker13706"
       style="overflow:visible"
       inkscape:isstock="true"
       inkscape:collect="always">
      <path
         inkscape:connector-curvature="0"
         id="path13708"
         d="M 0,0 5,-5 -12.5,0 5,5 0,0 Z"
         style="fill:#000000;fill-opacity:1;fill-rule:evenodd;stroke:#000000;stroke-width:1pt;stroke-opacity:1"
         transform="matrix(-0.4,0,0,-0.4,-4,0)" />
    </marker>
    <marker
       inkscape:stockid="Arrow1Mend"
       orient="auto"
       refY="0"
       refX="0"
       id="marker13510"
       style="overflow:visible"
       inkscape:isstock="true">
      <path
         inkscape:connector-curvature="0"
         id="path13512"
         d="M 0,0 5,-5 -12.5,0 5,5 0,0 Z"
         style="fill:#000000;fill-opacity:1;fill-rule:evenodd;stroke:#000000;stroke-width:1pt;stroke-opacity:1"
         transform="matrix(-0.4,0,0,-0.4,-4,0)" />
    </marker>
    <marker
       inkscape:stockid="Arrow1Mend"
       orient="auto"
       refY="0"
       refX="0"
       id="marker13320"
       style="overflow:visible"
       inkscape:isstock="true">
      <path
         inkscape:connector-curvature="0"
         id="path13322"
         d="M 0,0 5,-5 -12.5,0 5,5 0,0 Z"
         style="fill:#000000;fill-opacity:1;fill-rule:evenodd;stroke:#000000;stroke-width:1pt;stroke-opacity:1"
         transform="matrix(-0.4,0,0,-0.4,-4,0)" />
    </marker>
    <marker
       inkscape:stockid="Arrow1Mend"
       orient="auto"
       refY="0"
       refX="0"
       id="marker13136"
       style="overflow:visible"
       inkscape:isstock="true">
      <path
         inkscape:connector-curvature="0"
         id="path13138"
         d="M 0,0 5,-5 -12.5,0 5,5 0,0 Z"
         style="fill:#000000;fill-opacity:1;fill-rule:evenodd;stroke:#000000;stroke-width:1pt;stroke-opacity:1"
         transform="matrix(-0.4,0,0,-0.4,-4,0)" />
    </marker>
    <marker
       inkscape:stockid="Arrow1Mend"
       orient="auto"
       refY="0"
       refX="0"
       id="marker12958"
       style="overflow:visible"
       inkscape:isstock="true">
      <path
         inkscape:connector-curvature="0"
         id="path12960"
         d="M 0,0 5,-5 -12.5,0 5,5 0,0 Z"
         style="fill:#000000;fill-opacity:1;fill-rule:evenodd;stroke:#000000;stroke-width:1pt;stroke-opacity:1"
         transform="matrix(-0.4,0,0,-0.4,-4,0)" />
    </marker>
    <marker
       inkscape:stockid="Arrow1Mend"
       orient="auto"
       refY="0"
       refX="0"
       id="marker12786"
       style="overflow:visible"
       inkscape:isstock="true">
      <path
         inkscape:connector-curvature="0"
         id="path12788"
         d="M 0,0 5,-5 -12.5,0 5,5 0,0 Z"
         style="fill:#000000;fill-opacity:1;fill-rule:evenodd;stroke:#000000;stroke-width:1pt;stroke-opacity:1"
         transform="matrix(-0.4,0,0,-0.4,-4,0)" />
    </marker>
    <linearGradient
       inkscape:collect="always"
       id="linearGradient12580">
      <stop
         style="stop-color:#ffffff;stop-opacity:1;"
         offset="0"
         id="stop12582" />
      <stop
         style="stop-color:#ffffff;stop-opacity:0;"
         offset="1"
         id="stop12584" />
    </linearGradient>
    <marker
       inkscape:isstock="true"
       style="overflow:visible"
       id="marker6781"
       refX="0"
       refY="0"
       orient="auto"
       inkscape:stockid="Arrow1Mend"
       inkscape:collect="always">
      <path
         transform="matrix(-0.4,0,0,-0.4,-4,0)"
         style="fill:#000000;fill-opacity:1;fill-rule:evenodd;stroke:#000000;stroke-width:1pt;stroke-opacity:1"
         d="M 0,0 5,-5 -12.5,0 5,5 0,0 Z"
         id="path6783"
         inkscape:connector-curvature="0" />
    </marker>
    <marker
       inkscape:isstock="true"
       style="overflow:visible"
       id="marker6739"
       refX="0"
       refY="0"
       orient="auto"
       inkscape:stockid="Arrow1Mend">
      <path
         transform="matrix(-0.4,0,0,-0.4,-4,0)"
         style="fill:#000000;fill-opacity:1;fill-rule:evenodd;stroke:#000000;stroke-width:1pt;stroke-opacity:1"
         d="M 0,0 5,-5 -12.5,0 5,5 0,0 Z"
         id="path6741"
         inkscape:connector-curvature="0" />
    </marker>
    <marker
       inkscape:stockid="Arrow1Lend"
       orient="auto"
       refY="0"
       refX="0"
       id="Arrow1Lend"
       style="overflow:visible"
       inkscape:isstock="true">
      <path
         id="path6434"
         d="M 0,0 5,-5 -12.5,0 5,5 0,0 Z"
         style="fill:#000000;fill-opacity:1;fill-rule:evenodd;stroke:#000000;stroke-width:1pt;stroke-opacity:1"
         transform="matrix(-0.8,0,0,-0.8,-10,0)"
         inkscape:connector-curvature="0" />
    </marker>
    <marker
       inkscape:isstock="true"
       style="overflow:visible"
       id="marker6739-9"
       refX="0"
       refY="0"
       orient="auto"
       inkscape:stockid="Arrow1Mend">
      <path
         transform="matrix(-0.4,0,0,-0.4,-4,0)"
         style="fill:#000000;fill-opacity:1;fill-rule:evenodd;stroke:#000000;stroke-width:1pt;stroke-opacity:1"
         d="M 0,0 5,-5 -12.5,0 5,5 0,0 Z"
         id="path6741-2"
         inkscape:connector-curvature="0" />
    </marker>
    <marker
       inkscape:isstock="true"
       style="overflow:visible"
       id="marker6739-1"
       refX="0"
       refY="0"
       orient="auto"
       inkscape:stockid="Arrow1Mend">
      <path
         transform="matrix(-0.4,0,0,-0.4,-4,0)"
         style="fill:#000000;fill-opacity:1;fill-rule:evenodd;stroke:#000000;stroke-width:1pt;stroke-opacity:1"
         d="M 0,0 5,-5 -12.5,0 5,5 0,0 Z"
         id="path6741-29"
         inkscape:connector-curvature="0" />
    </marker>
    <marker
       inkscape:isstock="true"
       style="overflow:visible"
       id="marker6739-1-1"
       refX="0"
       refY="0"
       orient="auto"
       inkscape:stockid="Arrow1Mend">
      <path
         transform="matrix(-0.4,0,0,-0.4,-4,0)"
         style="fill:#000000;fill-opacity:1;fill-rule:evenodd;stroke:#000000;stroke-width:1pt;stroke-opacity:1"
         d="M 0,0 5,-5 -12.5,0 5,5 0,0 Z"
         id="path6741-29-0"
         inkscape:connector-curvature="0" />
    </marker>
    <marker
       inkscape:isstock="true"
       style="overflow:visible"
       id="marker6739-9-2"
       refX="0"
       refY="0"
       orient="auto"
       inkscape:stockid="Arrow1Mend">
      <path
         transform="matrix(-0.4,0,0,-0.4,-4,0)"
         style="fill:#000000;fill-opacity:1;fill-rule:evenodd;stroke:#000000;stroke-width:1pt;stroke-opacity:1"
         d="M 0,0 5,-5 -12.5,0 5,5 0,0 Z"
         id="path6741-2-0"
         inkscape:connector-curvature="0" />
    </marker>
    <marker
       inkscape:isstock="true"
       style="overflow:visible"
       id="marker6739-5"
       refX="0"
       refY="0"
       orient="auto"
       inkscape:stockid="Arrow1Mend">
      <path
         transform="matrix(-0.4,0,0,-0.4,-4,0)"
         style="fill:#000000;fill-opacity:1;fill-rule:evenodd;stroke:#000000;stroke-width:1pt;stroke-opacity:1"
         d="M 0,0 5,-5 -12.5,0 5,5 0,0 Z"
         id="path6741-5"
         inkscape:connector-curvature="0" />
    </marker>
    <marker
       inkscape:isstock="true"
       style="overflow:visible"
       id="marker6739-1-1-7"
       refX="0"
       refY="0"
       orient="auto"
       inkscape:stockid="Arrow1Mend">
      <path
         transform="matrix(-0.4,0,0,-0.4,-4,0)"
         style="fill:#000000;fill-opacity:1;fill-rule:evenodd;stroke:#000000;stroke-width:1pt;stroke-opacity:1"
         d="M 0,0 5,-5 -12.5,0 5,5 0,0 Z"
         id="path6741-29-0-1"
         inkscape:connector-curvature="0" />
    </marker>
    <marker
       inkscape:isstock="true"
       style="overflow:visible"
       id="marker6739-9-2-7"
       refX="0"
       refY="0"
       orient="auto"
       inkscape:stockid="Arrow1Mend">
      <path
         transform="matrix(-0.4,0,0,-0.4,-4,0)"
         style="fill:#000000;fill-opacity:1;fill-rule:evenodd;stroke:#000000;stroke-width:1pt;stroke-opacity:1"
         d="M 0,0 5,-5 -12.5,0 5,5 0,0 Z"
         id="path6741-2-0-2"
         inkscape:connector-curvature="0" />
    </marker>
    <marker
       inkscape:isstock="true"
       style="overflow:visible"
       id="marker6739-5-1"
       refX="0"
       refY="0"
       orient="auto"
       inkscape:stockid="Arrow1Mend">
      <path
         transform="matrix(-0.4,0,0,-0.4,-4,0)"
         style="fill:#000000;fill-opacity:1;fill-rule:evenodd;stroke:#000000;stroke-width:1pt;stroke-opacity:1"
         d="M 0,0 5,-5 -12.5,0 5,5 0,0 Z"
         id="path6741-5-0"
         inkscape:connector-curvature="0" />
    </marker>
    <marker
       inkscape:isstock="true"
       style="overflow:visible"
       id="marker6739-1-5"
       refX="0"
       refY="0"
       orient="auto"
       inkscape:stockid="Arrow1Mend">
      <path
         transform="matrix(-0.4,0,0,-0.4,-4,0)"
         style="fill:#000000;fill-opacity:1;fill-rule:evenodd;stroke:#000000;stroke-width:1pt;stroke-opacity:1"
         d="M 0,0 5,-5 -12.5,0 5,5 0,0 Z"
         id="path6741-29-9"
         inkscape:connector-curvature="0" />
    </marker>
    <marker
       inkscape:isstock="true"
       style="overflow:visible"
       id="marker6739-9-0"
       refX="0"
       refY="0"
       orient="auto"
       inkscape:stockid="Arrow1Mend">
      <path
         transform="matrix(-0.4,0,0,-0.4,-4,0)"
         style="fill:#000000;fill-opacity:1;fill-rule:evenodd;stroke:#000000;stroke-width:1pt;stroke-opacity:1"
         d="M 0,0 5,-5 -12.5,0 5,5 0,0 Z"
         id="path6741-2-9"
         inkscape:connector-curvature="0" />
    </marker>
    <marker
       inkscape:isstock="true"
       style="overflow:visible"
       id="marker6739-7"
       refX="0"
       refY="0"
       orient="auto"
       inkscape:stockid="Arrow1Mend">
      <path
         transform="matrix(-0.4,0,0,-0.4,-4,0)"
         style="fill:#000000;fill-opacity:1;fill-rule:evenodd;stroke:#000000;stroke-width:1pt;stroke-opacity:1"
         d="M 0,0 5,-5 -12.5,0 5,5 0,0 Z"
         id="path6741-1"
         inkscape:connector-curvature="0" />
    </marker>
    <marker
       inkscape:isstock="true"
       style="overflow:visible"
       id="marker6739-9-2-7-9"
       refX="0"
       refY="0"
       orient="auto"
       inkscape:stockid="Arrow1Mend">
      <path
         transform="matrix(-0.4,0,0,-0.4,-4,0)"
         style="fill:#000000;fill-opacity:1;fill-rule:evenodd;stroke:#000000;stroke-width:1pt;stroke-opacity:1"
         d="M 0,0 5,-5 -12.5,0 5,5 0,0 Z"
         id="path6741-2-0-2-6"
         inkscape:connector-curvature="0" />
    </marker>
    <marker
       inkscape:isstock="true"
       style="overflow:visible"
       id="marker6739-1-5-3"
       refX="0"
       refY="0"
       orient="auto"
       inkscape:stockid="Arrow1Mend">
      <path
         transform="matrix(-0.4,0,0,-0.4,-4,0)"
         style="fill:#000000;fill-opacity:1;fill-rule:evenodd;stroke:#000000;stroke-width:1pt;stroke-opacity:1"
         d="M 0,0 5,-5 -12.5,0 5,5 0,0 Z"
         id="path6741-29-9-3"
         inkscape:connector-curvature="0" />
    </marker>
    <linearGradient
       inkscape:collect="always"
       xlink:href="#linearGradient12580"
       id="linearGradient12586"
       x1="386.38336"
       y1="4.6198144"
       x2="649.52808"
       y2="49.066528"
       gradientUnits="userSpaceOnUse" />
    <linearGradient
       inkscape:collect="always"
       xlink:href="#linearGradient12580"
       id="linearGradient3561"
       gradientUnits="userSpaceOnUse"
       x1="386.38336"
       y1="4.6198144"
       x2="649.52808"
       y2="49.066528" />
    <linearGradient
       inkscape:collect="always"
       xlink:href="#linearGradient12580"
       id="linearGradient3563"
       gradientUnits="userSpaceOnUse"
       x1="386.38336"
       y1="4.6198144"
       x2="649.52808"
       y2="49.066528" />
    <linearGradient
       inkscape:collect="always"
       xlink:href="#linearGradient12580"
       id="linearGradient3565"
       gradientUnits="userSpaceOnUse"
       x1="386.38336"
       y1="4.6198144"
       x2="649.52808"
       y2="49.066528" />
  </defs>
  <sodipodi:namedview
     id="base"
     pagecolor="#ffffff"
     bordercolor="#666666"
     borderopacity="1.0"
     inkscape:pageopacity="0.0"
     inkscape:pageshadow="2"
     inkscape:zoom="1.4"
     inkscape:cx="250.99792"
     inkscape:cy="20.162671"
     inkscape:document-units="px"
     inkscape:current-layer="layer1"
     showgrid="false"
     showguides="false"
     inkscape:window-width="2560"
     inkscape:window-height="1376"
     inkscape:window-x="0"
     inkscape:window-y="27"
     inkscape:window-maximized="1"
     fit-margin-top="0.1"
     fit-margin-left="0.1"
     fit-margin-right="0.1"
     fit-margin-bottom="0.1" />
  <metadata
     id="metadata5547">
    <rdf:RDF>
      <cc:Work
         rdf:about="">
        <dc:format>image/svg+xml</dc:format>
        <dc:type
           rdf:resource="http://purl.org/dc/dcmitype/StillImage" />
        <dc:title></dc:title>
      </cc:Work>
    </rdf:RDF>
  </metadata>
  <g
     inkscape:label="Layer 1"
     inkscape:groupmode="layer"
     id="layer1"
     transform="translate(-157.5615,-441.44769)">
    <g
       transform="translate(44.687601,447.28082)"
       style="font-style:normal;font-weight:normal;font-size:15px;line-height:125%;font-family:sans-serif;letter-spacing:0px;word-spacing:0px;fill:#000000;fill-opacity:1;stroke:none;stroke-width:1px;stroke-linecap:butt;stroke-linejoin:miter;stroke-opacity:1"
       id="flowRoot12588">
      <path
         d="m 395.08447,19.741065 q 0,-2.197266 -0.91186,-3.405762 -0.90088,-1.208496 -2.53784,-1.208496 -1.62598,0 -2.53785,1.208496 -0.90088,1.208496 -0.90088,3.405762 0,2.186279 0.90088,3.394775 0.91187,1.208497 2.53785,1.208497 1.63696,0 2.53784,-1.208497 0.91186,-1.208496 0.91186,-3.394775 z m 2.02149,4.768067 q 0,3.142089 -1.39527,4.669189 -1.39526,1.538086 -4.27368,1.538086 -1.06567,0 -2.0105,-0.164795 -0.94482,-0.153809 -1.83471,-0.483398 l 0,-1.966553 q 0.88989,0.483398 1.75781,0.714111 0.86792,0.230713 1.7688,0.230713 1.98852,0 2.97729,-1.043701 0.98877,-1.032715 0.98877,-3.131104 l 0,-0.999756 q -0.62622,1.087647 -1.604,1.625977 -0.97778,0.53833 -2.34009,0.53833 -2.26318,0 -3.64746,-1.724853 -1.38428,-1.724854 -1.38428,-4.570313 0,-2.856445 1.38428,-4.581299 1.38428,-1.724853 3.64746,-1.724853 1.36231,0 2.34009,0.53833 0.97778,0.53833 1.604,1.625976 l 0,-1.867675 2.02149,0 0,10.777588 z"
         style="font-size:22.5px;fill:#ff0000;fill-opacity:1"
         id="path4662"
         inkscape:connector-curvature="0" />
      <path
         d="m 449.84033,19.850928 q -2.44995,0 -3.39477,0.560303 -0.94483,0.560303 -0.94483,1.911621 0,1.07666 0.70313,1.713867 0.71411,0.626221 1.93359,0.626221 1.68091,0 2.69165,-1.186523 1.02173,-1.19751 1.02173,-3.175049 l 0,-0.45044 -2.0105,0 z m 4.03198,-0.834961 0,7.020264 -2.02148,0 0,-1.867676 q -0.69214,1.120606 -1.72485,1.658936 -1.03272,0.527344 -2.52686,0.527344 -1.88965,0 -3.01025,-1.054688 -1.10962,-1.065674 -1.10962,-2.845459 0,-2.076416 1.38428,-3.131103 1.39526,-1.054688 4.15283,-1.054688 l 2.83447,0 0,-0.197754 q 0,-1.395263 -0.92285,-2.15332 -0.91187,-0.769043 -2.5708,-0.769043 -1.05469,0 -2.05445,0.252685 -0.99975,0.252686 -1.9226,0.758057 l 0,-1.867676 q 1.10962,-0.428466 2.15332,-0.637207 1.0437,-0.219726 2.03247,-0.219726 2.66968,0 3.98804,1.384277 1.31835,1.384277 1.31835,4.196777 z"
         style="font-size:22.5px;fill:#ff0000;fill-opacity:1"
         id="path4664"
         inkscape:connector-curvature="0" />
      <path
         d="m 503.02515,10.237891 0,3.493653 4.16381,0 0,1.571045 -4.16381,0 0,6.679687 q 0,1.505127 0.40649,1.933594 0.41748,0.428467 1.68091,0.428467 l 2.07641,0 0,1.691894 -2.07641,0 q -2.34009,0 -3.22998,-0.86792 -0.88989,-0.878906 -0.88989,-3.186035 l 0,-6.679687 -1.48316,0 0,-1.571045 1.48316,0 0,-3.493653 2.03247,0 z"
         style="font-size:22.5px;fill:#ff0000;fill-opacity:1"
         id="path4666"
         inkscape:connector-curvature="0" />
      <path
         d="m 554.83667,10.237891 0,3.493653 4.16382,0 0,1.571045 -4.16382,0 0,6.679687 q 0,1.505127 0.40649,1.933594 0.41748,0.428467 1.68091,0.428467 l 2.07642,0 0,1.691894 -2.07642,0 q -2.34009,0 -3.22998,-0.86792 -0.88989,-0.878906 -0.88989,-3.186035 l 0,-6.679687 -1.48316,0 0,-1.571045 1.48316,0 0,-3.493653 2.03247,0 z"
         style="font-size:22.5px;fill:#ff0000;fill-opacity:1"
         id="path4668"
         inkscape:connector-curvature="0" />
      <path
         d="m 609.41675,15.14878 q -1.62598,0 -2.5708,1.274414 -0.94483,1.263428 -0.94483,3.47168 0,2.208252 0.93384,3.482666 0.94483,1.263427 2.58179,1.263427 1.61499,0 2.55981,-1.274414 0.94483,-1.274414 0.94483,-3.471679 0,-2.18628 -0.94483,-3.460694 -0.94482,-1.2854 -2.55981,-1.2854 z m 0,-1.713867 q 2.63672,0 4.14184,1.713867 1.50513,1.713867 1.50513,4.746094 0,3.02124 -1.50513,4.746093 -1.50512,1.713868 -4.14184,1.713868 -2.64771,0 -4.15283,-1.713868 -1.49414,-1.724853 -1.49414,-4.746093 0,-3.032227 1.49414,-4.746094 1.50512,-1.713867 4.15283,-1.713867 z"
         style="font-size:22.5px;fill:#ff0000;fill-opacity:1"
         id="path4670"
         inkscape:connector-curvature="0" />
    </g>
    <g
       transform="translate(-10.365713,441.21991)"
       style="font-style:normal;font-weight:normal;font-size:15px;line-height:125%;font-family:sans-serif;letter-spacing:0px;word-spacing:0px;fill:#000000;fill-opacity:1;stroke:none;stroke-width:1px;stroke-linecap:butt;stroke-linejoin:miter;stroke-opacity:1"
       id="flowRoot12596">
      <path
         d="m 278.3208,141.77744 2.03247,0 0,10.09644 6.0315,-5.3064 2.58178,0 -6.52588,5.75684 6.80054,6.54785 -2.63672,0 -6.25122,-6.00952 0,6.00952 -2.03247,0 0,-17.09473 z"
         style="font-size:22.5px"
         id="path4651"
         inkscape:connector-curvature="0" />
      <path
         d="m 340.02002,152.68687 q -2.44995,0 -3.39478,0.5603 -0.94482,0.5603 -0.94482,1.91162 0,1.07666 0.70312,1.71387 0.71412,0.62622 1.9336,0.62622 1.68091,0 2.69165,-1.18653 1.02173,-1.19751 1.02173,-3.17504 l 0,-0.45044 -2.0105,0 z m 4.03198,-0.83497 0,7.02027 -2.02148,0 0,-1.86768 q -0.69214,1.12061 -1.72486,1.65894 -1.03271,0.52734 -2.52685,0.52734 -1.88965,0 -3.01026,-1.05469 -1.10961,-1.06567 -1.10961,-2.84545 0,-2.07642 1.38427,-3.13111 1.39527,-1.05469 4.15283,-1.05469 l 2.83448,0 0,-0.19775 q 0,-1.39526 -0.92285,-2.15332 -0.91187,-0.76904 -2.5708,-0.76904 -1.05469,0 -2.05445,0.25268 -0.99975,0.25269 -1.92261,0.75806 l 0,-1.86768 q 1.10962,-0.42846 2.15332,-0.6372 1.04371,-0.21973 2.03248,-0.21973 2.66967,0 3.98803,1.38428 1.31836,1.38427 1.31836,4.19677 z"
         style="font-size:22.5px"
         id="path4653"
         inkscape:connector-curvature="0" />
      <path
         d="m 393.20483,143.07383 0,3.49365 4.16382,0 0,1.57105 -4.16382,0 0,6.67968 q 0,1.50513 0.4065,1.9336 0.41748,0.42846 1.68091,0.42846 l 2.07641,0 0,1.6919 -2.07641,0 q -2.34009,0 -3.22998,-0.86792 -0.8899,-0.87891 -0.8899,-3.18604 l 0,-6.67968 -1.48315,0 0,-1.57105 1.48315,0 0,-3.49365 2.03247,0 z"
         style="font-size:22.5px"
         id="path4655"
         inkscape:connector-curvature="0" />
      <path
         d="m 442.13794,146.56748 9.60205,0 0,1.8457 -7.60254,8.844 7.60254,0 0,1.61499 -9.87671,0 0,-1.8457 7.60254,-8.844 -7.32788,0 0,-1.61499 z"
         style="font-size:22.5px"
         id="path4657"
         inkscape:connector-curvature="0" />
      <path
         d="m 508.34155,152.21445 0,0.98877 -9.29443,0 q 0.13184,2.08741 1.25244,3.18604 1.13159,1.08764 3.14209,1.08764 1.16455,0 2.2522,-0.28564 1.09863,-0.28564 2.17529,-0.85693 l 0,1.91162 q -1.08765,0.46142 -2.23022,0.70312 -1.14258,0.2417 -2.31812,0.2417 -2.94434,0 -4.66919,-1.71387 -1.71387,-1.71386 -1.71387,-4.63623 0,-3.02124 1.62598,-4.79003 1.63696,-1.77979 4.40552,-1.77979 2.48291,0 3.92212,1.604 1.45019,1.59302 1.45019,4.3396 z m -2.02148,-0.59326 q -0.022,-1.65893 -0.93384,-2.6477 -0.90088,-0.98877 -2.39502,-0.98877 -1.69189,0 -2.71362,0.95581 -1.01074,0.95581 -1.16455,2.69165 l 7.20703,-0.011 z"
         style="font-size:22.5px"
         id="path4659"
         inkscape:connector-curvature="0" />
    </g>
    <g
       transform="translate(162.33054,510.62283)"
       style="font-style:normal;font-weight:normal;font-size:10px;line-height:125%;font-family:sans-serif;letter-spacing:0px;word-spacing:0px;fill:#000000;fill-opacity:1;stroke:none;stroke-width:1px;stroke-linecap:butt;stroke-linejoin:miter;stroke-opacity:1"
       id="flowRoot10172">
      <path
         d="m 118.625,50.170617 -1.97754,2.661132 2.08008,2.807618 -1.05957,0 -1.5918,-2.148438 -1.59179,2.148438 -1.05958,0 2.12403,-2.861329 -1.94336,-2.607421 1.05957,0 1.45019,1.948242 1.4502,-1.948242 1.05957,0 z"
         style=""
         id="path10402" />
      <path
         d="m 121.12085,53.32296 q -0.49512,0 -0.74585,0.48877 -0.24756,0.485596 -0.24756,1.463135 0,0.974365 0.24756,1.463134 0.25073,0.485596 0.74585,0.485596 0.49829,0 0.74585,-0.485596 0.25073,-0.488769 0.25073,-1.463134 0,-0.977539 -0.25073,-1.463135 -0.24756,-0.48877 -0.74585,-0.48877 z m 0,-0.507812 q 0.79663,0 1.21558,0.631592 0.42211,0.628418 0.42211,1.828125 0,1.196533 -0.42211,1.828125 -0.41895,0.628418 -1.21558,0.628418 -0.79663,0 -1.21875,-0.628418 -0.41895,-0.631592 -0.41895,-1.828125 0,-1.199707 0.41895,-1.828125 0.42212,-0.631592 1.21875,-0.631592 z"
         style="font-size:64.99999762%;baseline-shift:sub"
         id="path10404" />
      <path
         d="m 173.25195,50.170617 -1.97754,2.661132 2.08008,2.807618 -1.05957,0 -1.5918,-2.148438 -1.59179,2.148438 -1.05957,0 2.12402,-2.861329 -1.94336,-2.607421 1.05957,0 1.4502,1.948242 1.45019,-1.948242 1.05957,0 z"
         style=""
         id="path10406" />
      <path
         d="m 174.48779,57.099816 1.04737,0 0,-3.61499 -1.13941,0.228515 0,-0.583984 1.13306,-0.228516 0.64111,0 0,4.198975 1.04737,0 0,0.539551 -2.7295,0 0,-0.539551 z"
         style="font-size:64.99999762%;baseline-shift:sub"
         id="path10408" />
      <path
         d="m 226.76465,50.170617 -1.97754,2.661132 2.08008,2.807618 -1.05957,0 -1.5918,-2.148438 -1.5918,2.148438 -1.05957,0 2.12403,-2.861329 -1.94336,-2.607421 1.05957,0 1.45019,1.948242 1.4502,-1.948242 1.05957,0 z"
         style=""
         id="path10410" />
      <path
         d="m 228.44165,57.099816 2.23755,0 0,0.539551 -3.00879,0 0,-0.539551 q 0.36499,-0.377686 0.99341,-1.012451 0.63159,-0.63794 0.79346,-0.822022 0.30786,-0.345947 0.42846,-0.583984 0.12378,-0.241211 0.12378,-0.472901 0,-0.377685 -0.2666,-0.615722 -0.26343,-0.238037 -0.68872,-0.238037 -0.30151,0 -0.63794,0.104736 -0.33325,0.104736 -0.71411,0.317383 l 0,-0.647461 q 0.38721,-0.155518 0.72363,-0.234863 0.33643,-0.07935 0.61572,-0.07935 0.73633,0 1.17432,0.368164 0.43799,0.368164 0.43799,0.983887 0,0.291992 -0.11109,0.55542 -0.10791,0.260253 -0.39672,0.615722 -0.0793,0.09204 -0.50464,0.533203 -0.4253,0.437989 -1.19971,1.228272 z"
         style="font-size:64.99999762%;baseline-shift:sub"
         id="path10412" />
      <path
         d="m 282.34668,50.170617 -1.97754,2.661132 2.08008,2.807618 -1.05957,0 -1.5918,-2.148438 -1.5918,2.148438 -1.05957,0 2.12403,-2.861329 -1.94336,-2.607421 1.05957,0 1.45019,1.948242 1.4502,-1.948242 1.05957,0 z"
         style=""
         id="path10414" />
      <path
         d="m 285.41382,55.084435 q 0.4602,0.09839 0.71728,0.409424 0.26026,0.311035 0.26026,0.768066 0,0.701416 -0.48242,1.085449 -0.48243,0.384034 -1.3711,0.384034 -0.29834,0 -0.61572,-0.0603 -0.31421,-0.05713 -0.65064,-0.174561 l 0,-0.618896 q 0.26661,0.155517 0.58399,0.234863 0.31738,0.07935 0.66333,0.07935 0.60303,0 0.91724,-0.238037 0.31738,-0.238037 0.31738,-0.691895 0,-0.418945 -0.29517,-0.653808 -0.29199,-0.238037 -0.81567,-0.238037 l -0.55225,0 0,-0.526856 0.57764,0 q 0.4729,0 0.72363,-0.187256 0.25073,-0.19043 0.25073,-0.545898 0,-0.36499 -0.26025,-0.558594 -0.25708,-0.196777 -0.7395,-0.196777 -0.26343,0 -0.56494,0.05713 -0.30152,0.05713 -0.66333,0.177734 l 0,-0.571289 q 0.36499,-0.101563 0.68237,-0.152344 0.32056,-0.05078 0.60303,-0.05078 0.72998,0 1.15527,0.333252 0.42529,0.330078 0.42529,0.895019 0,0.393555 -0.22534,0.666504 -0.22534,0.269776 -0.64111,0.374512 z"
         style="font-size:64.99999762%;baseline-shift:sub"
         id="path10416" />
      <path
         d="m 340.15723,50.170617 -1.97754,2.661132 2.08008,2.807618 -1.05957,0 -1.5918,-2.148438 -1.5918,2.148438 -1.05957,0 2.12402,-2.861329 -1.94335,-2.607421 1.05957,0 1.45019,1.948242 1.4502,-1.948242 1.05957,0 z"
         style=""
         id="path10418" />
      <path
         d="m 343.04346,53.459435 -1.61866,2.529541 1.61866,0 0,-2.529541 z m -0.16822,-0.558594 0.80616,0 0,3.088135 0.67602,0 0,0.533203 -0.67602,0 0,1.117188 -0.63794,0 0,-1.117188 -2.13916,0 0,-0.618896 1.97094,-3.002442 z"
         style="font-size:64.99999762%;baseline-shift:sub"
         id="path10420" />
      <path
         d="m 393.66992,50.170617 -1.97754,2.661132 2.08008,2.807618 -1.05957,0 -1.5918,-2.148438 -1.59179,2.148438 -1.05957,0 2.12402,-2.861329 -1.94336,-2.607421 1.05957,0 1.4502,1.948242 1.45019,-1.948242 1.05957,0 z"
         style=""
         id="path10422" />
      <path
         d="m 394.80103,52.900841 2.51684,0 0,0.539551 -1.92969,0 0,1.161621 q 0.13965,-0.04761 0.2793,-0.06982 0.13965,-0.02539 0.2793,-0.02539 0.79345,0 1.25683,0.434815 0.46338,0.434814 0.46338,1.17749 0,0.764893 -0.47607,1.190185 -0.47608,0.42212 -1.34253,0.42212 -0.29834,0 -0.60938,-0.05078 -0.30786,-0.05078 -0.63794,-0.152343 l 0,-0.644287 q 0.28565,0.155517 0.59034,0.231689 0.30468,0.07617 0.64428,0.07617 0.54908,0 0.86963,-0.288819 0.32056,-0.288818 0.32056,-0.783935 0,-0.495117 -0.32056,-0.783936 -0.32055,-0.288818 -0.86963,-0.288818 -0.25708,0 -0.51416,0.05713 -0.2539,0.05713 -0.5205,0.177734 l 0,-2.380371 z"
         style="font-size:64.99999762%;baseline-shift:sub"
         id="path10424" />
      <path
         d="m 446.06836,50.170617 -1.97754,2.661132 2.08008,2.807618 -1.05957,0 -1.5918,-2.148438 -1.5918,2.148438 -1.05957,0 2.12403,-2.861329 -1.94336,-2.607421 1.05957,0 1.45019,1.948242 1.4502,-1.948242 1.05957,0 z"
         style=""
         id="path10426" />
      <path
         d="m 448.64355,55.014611 q -0.43164,0 -0.68554,0.295166 -0.25073,0.295166 -0.25073,0.809326 0,0.510986 0.25073,0.809326 0.2539,0.295166 0.68554,0.295166 0.43165,0 0.68238,-0.295166 0.2539,-0.29834 0.2539,-0.809326 0,-0.51416 -0.2539,-0.809326 -0.25073,-0.295166 -0.68238,-0.295166 z m 1.27271,-2.009033 0,0.583984 q -0.24121,-0.114258 -0.48877,-0.174561 -0.24438,-0.0603 -0.4856,-0.0603 -0.63476,0 -0.97119,0.428466 -0.33325,0.428467 -0.38086,1.294922 0.18726,-0.276123 0.46973,-0.422119 0.28247,-0.14917 0.62207,-0.14917 0.71411,0 1.12671,0.434815 0.41577,0.43164 0.41577,1.17749 0,0.72998 -0.43164,1.171143 -0.43164,0.441162 -1.14893,0.441162 -0.82202,0 -1.25683,-0.628418 -0.43482,-0.631592 -0.43482,-1.828125 0,-1.123535 0.53321,-1.790039 0.5332,-0.669678 1.43139,-0.669678 0.24121,0 0.4856,0.04761 0.24756,0.04761 0.51416,0.142823 z"
         style="font-size:64.99999762%;baseline-shift:sub"
         id="path10428" />
      <path
         d="m 499.58105,50.170617 -1.97753,2.661132 2.08007,2.807618 -1.05957,0 -1.59179,-2.148438 -1.5918,2.148438 -1.05957,0 2.12402,-2.861329 -1.94336,-2.607421 1.05957,0 1.4502,1.948242 1.45019,-1.948242 1.05957,0 z"
         style=""
         id="path10430" />
      <path
         d="m 500.54395,52.900841 3.04687,0 0,0.272949 -1.72021,4.465577 -0.66968,0 1.61865,-4.198975 -2.27563,0 0,-0.539551 z"
         style="font-size:64.99999762%;baseline-shift:sub"
         id="path10432" />
    </g>
    <g
       transform="matrix(0.99100335,0,0,1,181.40974,485.69662)"
       style="font-style:normal;font-weight:normal;font-size:10px;line-height:125%;font-family:sans-serif;letter-spacing:0px;word-spacing:0px;fill:#000000;fill-opacity:1;stroke:none;stroke-width:1px;stroke-linecap:butt;stroke-linejoin:miter;stroke-opacity:1"
       id="flowRoot10172-5">
      <path
         d="m 118.625,52.338585 0,3.300782 -0.89844,0 0,-3.271485 q 0,-0.776367 -0.30273,-1.162109 -0.30274,-0.385742 -0.9082,-0.385742 -0.72754,0 -1.14747,0.463867 -0.41992,0.463867 -0.41992,1.264648 l 0,3.090821 -0.90332,0 0,-7.597657 0.90332,0 0,2.978516 q 0.32227,-0.493164 0.75684,-0.737305 0.43945,-0.24414 1.01074,-0.24414 0.94238,0 1.42578,0.585937 0.4834,0.581055 0.4834,1.713867 z"
         style=""
         id="path10373" />
      <path
         d="m 121.55054,53.32296 q -0.49512,0 -0.74585,0.48877 -0.24756,0.485596 -0.24756,1.463135 0,0.974365 0.24756,1.463134 0.25073,0.485596 0.74585,0.485596 0.49829,0 0.74585,-0.485596 0.25073,-0.488769 0.25073,-1.463134 0,-0.977539 -0.25073,-1.463135 -0.24756,-0.48877 -0.74585,-0.48877 z m 0,-0.507812 q 0.79663,0 1.21557,0.631592 0.42212,0.628418 0.42212,1.828125 0,1.196533 -0.42212,1.828125 -0.41894,0.628418 -1.21557,0.628418 -0.79663,0 -1.21875,-0.628418 -0.41895,-0.631592 -0.41895,-1.828125 0,-1.199707 0.41895,-1.828125 0.42212,-0.631592 1.21875,-0.631592 z"
         style="font-size:64.99999762%;baseline-shift:sub"
         id="path10375" />
      <path
         d="m 173.68164,52.338585 0,3.300782 -0.89844,0 0,-3.271485 q 0,-0.776367 -0.30273,-1.162109 -0.30274,-0.385742 -0.9082,-0.385742 -0.72754,0 -1.14747,0.463867 -0.41992,0.463867 -0.41992,1.264648 l 0,3.090821 -0.90332,0 0,-7.597657 0.90332,0 0,2.978516 q 0.32227,-0.493164 0.75684,-0.737305 0.43945,-0.24414 1.01074,-0.24414 0.94238,0 1.42578,0.585937 0.4834,0.581055 0.4834,1.713867 z"
         style=""
         id="path10377" />
      <path
         d="m 175.34717,57.099816 1.04736,0 0,-3.61499 -1.1394,0.228515 0,-0.583984 1.13305,-0.228516 0.64112,0 0,4.198975 1.04736,0 0,0.539551 -2.72949,0 0,-0.539551 z"
         style="font-size:64.99999762%;baseline-shift:sub"
         id="path10379" />
      <path
         d="m 227.62402,52.338585 0,3.300782 -0.89843,0 0,-3.271485 q 0,-0.776367 -0.30274,-1.162109 -0.30273,-0.385742 -0.9082,-0.385742 -0.72754,0 -1.14746,0.463867 -0.41992,0.463867 -0.41992,1.264648 l 0,3.090821 -0.90332,0 0,-7.597657 0.90332,0 0,2.978516 q 0.32226,-0.493164 0.75683,-0.737305 0.43945,-0.24414 1.01074,-0.24414 0.94239,0 1.42578,0.585937 0.4834,0.581055 0.4834,1.713867 z"
         style=""
         id="path10381" />
      <path
         d="m 229.73071,57.099816 2.23755,0 0,0.539551 -3.00879,0 0,-0.539551 q 0.36499,-0.377686 0.99341,-1.012451 0.63159,-0.63794 0.79346,-0.822022 0.30786,-0.345947 0.42846,-0.583984 0.12378,-0.241211 0.12378,-0.472901 0,-0.377685 -0.2666,-0.615722 -0.26343,-0.238037 -0.68872,-0.238037 -0.30151,0 -0.63794,0.104736 -0.33325,0.104736 -0.71411,0.317383 l 0,-0.647461 q 0.38721,-0.155518 0.72363,-0.234863 0.33643,-0.07935 0.61573,-0.07935 0.73632,0 1.17431,0.368164 0.43799,0.368164 0.43799,0.983887 0,0.291992 -0.11108,0.55542 -0.10791,0.260253 -0.39673,0.615722 -0.0794,0.09204 -0.50464,0.533203 -0.42529,0.437989 -1.19971,1.228272 z"
         style="font-size:64.99999762%;baseline-shift:sub"
         id="path10383" />
      <path
         d="m 283.63574,52.338585 0,3.300782 -0.89844,0 0,-3.271485 q 0,-0.776367 -0.30273,-1.162109 -0.30273,-0.385742 -0.9082,-0.385742 -0.72754,0 -1.14746,0.463867 -0.41993,0.463867 -0.41993,1.264648 l 0,3.090821 -0.90332,0 0,-7.597657 0.90332,0 0,2.978516 q 0.32227,-0.493164 0.75684,-0.737305 0.43945,-0.24414 1.01074,-0.24414 0.94239,0 1.42578,0.585937 0.4834,0.581055 0.4834,1.713867 z"
         style=""
         id="path10385" />
      <path
         d="m 287.13257,55.084435 q 0.4602,0.09839 0.71728,0.409424 0.26026,0.311035 0.26026,0.768066 0,0.701416 -0.48242,1.085449 -0.48243,0.384034 -1.3711,0.384034 -0.29834,0 -0.61572,-0.0603 -0.31421,-0.05713 -0.65064,-0.174561 l 0,-0.618896 q 0.26661,0.155517 0.58399,0.234863 0.31738,0.07935 0.66333,0.07935 0.60303,0 0.91724,-0.238037 0.31738,-0.238037 0.31738,-0.691895 0,-0.418945 -0.29517,-0.653808 -0.29199,-0.238037 -0.81567,-0.238037 l -0.55225,0 0,-0.526856 0.57764,0 q 0.4729,0 0.72363,-0.187256 0.25073,-0.19043 0.25073,-0.545898 0,-0.36499 -0.26025,-0.558594 -0.25708,-0.196777 -0.7395,-0.196777 -0.26343,0 -0.56494,0.05713 -0.30152,0.05713 -0.66333,0.177734 l 0,-0.571289 q 0.36499,-0.101563 0.68237,-0.152344 0.32056,-0.05078 0.60303,-0.05078 0.72998,0 1.15527,0.333252 0.42529,0.330078 0.42529,0.895019 0,0.393555 -0.22534,0.666504 -0.22534,0.269776 -0.64111,0.374512 z"
         style="font-size:64.99999762%;baseline-shift:sub"
         id="path10387" />
      <path
         d="m 341.87598,52.338585 0,3.300782 -0.89844,0 0,-3.271485 q 0,-0.776367 -0.30274,-1.162109 -0.30273,-0.385742 -0.9082,-0.385742 -0.72754,0 -1.14746,0.463867 -0.41992,0.463867 -0.41992,1.264648 l 0,3.090821 -0.90332,0 0,-7.597657 0.90332,0 0,2.978516 q 0.32226,-0.493164 0.75683,-0.737305 0.43946,-0.24414 1.01075,-0.24414 0.94238,0 1.42578,0.585937 0.4834,0.581055 0.4834,1.713867 z"
         style=""
         id="path10389" />
      <path
         d="m 345.19189,53.459435 -1.61865,2.529541 1.61865,0 0,-2.529541 z m -0.16821,-0.558594 0.80615,0 0,3.088135 0.67603,0 0,0.533203 -0.67603,0 0,1.117188 -0.63794,0 0,-1.117188 -2.13916,0 0,-0.618896 1.97095,-3.002442 z"
         style="font-size:64.99999762%;baseline-shift:sub"
         id="path10391" />
      <path
         d="m 395.81836,52.338585 0,3.300782 -0.89844,0 0,-3.271485 q 0,-0.776367 -0.30273,-1.162109 -0.30274,-0.385742 -0.90821,-0.385742 -0.72753,0 -1.14746,0.463867 -0.41992,0.463867 -0.41992,1.264648 l 0,3.090821 -0.90332,0 0,-7.597657 0.90332,0 0,2.978516 q 0.32227,-0.493164 0.75684,-0.737305 0.43945,-0.24414 1.01074,-0.24414 0.94238,0 1.42578,0.585937 0.4834,0.581055 0.4834,1.713867 z"
         style=""
         id="path10393" />
      <path
         d="m 397.37915,52.900841 2.51685,0 0,0.539551 -1.92969,0 0,1.161621 q 0.13965,-0.04761 0.2793,-0.06982 0.13964,-0.02539 0.27929,-0.02539 0.79346,0 1.25684,0.434815 0.46338,0.434814 0.46338,1.17749 0,0.764893 -0.47608,1.190185 -0.47607,0.42212 -1.34253,0.42212 -0.29834,0 -0.60937,-0.05078 -0.30786,-0.05078 -0.63794,-0.152343 l 0,-0.644287 q 0.28564,0.155517 0.59033,0.231689 0.30469,0.07617 0.64429,0.07617 0.54907,0 0.86963,-0.288819 0.32055,-0.288818 0.32055,-0.783935 0,-0.495117 -0.32055,-0.783936 -0.32056,-0.288818 -0.86963,-0.288818 -0.25708,0 -0.51416,0.05713 -0.25391,0.05713 -0.52051,0.177734 l 0,-2.380371 z"
         style="font-size:64.99999762%;baseline-shift:sub"
         id="path10395" />
      <path
         d="m 448.64648,52.338585 0,3.300782 -0.89843,0 0,-3.271485 q 0,-0.776367 -0.30274,-1.162109 -0.30273,-0.385742 -0.9082,-0.385742 -0.72754,0 -1.14746,0.463867 -0.41992,0.463867 -0.41992,1.264648 l 0,3.090821 -0.90332,0 0,-7.597657 0.90332,0 0,2.978516 q 0.32226,-0.493164 0.75683,-0.737305 0.43946,-0.24414 1.01074,-0.24414 0.94239,0 1.42579,0.585937 0.48339,0.581055 0.48339,1.713867 z"
         style=""
         id="path10397" />
      <path
         d="m 451.65137,55.014611 q -0.43164,0 -0.68555,0.295166 -0.25073,0.295166 -0.25073,0.809326 0,0.510986 0.25073,0.809326 0.25391,0.295166 0.68555,0.295166 0.43164,0 0.68237,-0.295166 0.25391,-0.29834 0.25391,-0.809326 0,-0.51416 -0.25391,-0.809326 -0.25073,-0.295166 -0.68237,-0.295166 z m 1.2727,-2.009033 0,0.583984 q -0.24121,-0.114258 -0.48877,-0.174561 -0.24438,-0.0603 -0.48559,-0.0603 -0.63477,0 -0.97119,0.428466 -0.33326,0.428467 -0.38086,1.294922 0.18725,-0.276123 0.46972,-0.422119 0.28247,-0.14917 0.62207,-0.14917 0.71411,0 1.12671,0.434815 0.41577,0.43164 0.41577,1.17749 0,0.72998 -0.43164,1.171143 -0.43164,0.441162 -1.14892,0.441162 -0.82202,0 -1.25684,-0.628418 -0.43481,-0.631592 -0.43481,-1.828125 0,-1.123535 0.5332,-1.790039 0.5332,-0.669678 1.4314,-0.669678 0.24121,0 0.48559,0.04761 0.24756,0.04761 0.51416,0.142823 z"
         style="font-size:64.99999762%;baseline-shift:sub"
         id="path10399" />
    </g>
    <g
       transform="matrix(0.99228859,0,0,1,162.56685,446.86005)"
       style="font-style:normal;font-weight:normal;font-size:10px;line-height:125%;font-family:sans-serif;letter-spacing:0px;word-spacing:0px;fill:#000000;fill-opacity:1;stroke:none;stroke-width:1px;stroke-linecap:butt;stroke-linejoin:miter;stroke-opacity:1"
       id="flowRoot10172-5-6">
      <path
         d="m 118.625,52.338585 0,3.300782 -0.89844,0 0,-3.271485 q 0,-0.776367 -0.30273,-1.162109 -0.30274,-0.385742 -0.9082,-0.385742 -0.72754,0 -1.14747,0.463867 -0.41992,0.463867 -0.41992,1.264648 l 0,3.090821 -0.90332,0 0,-7.597657 0.90332,0 0,2.978516 q 0.32227,-0.493164 0.75684,-0.737305 0.43945,-0.24414 1.01074,-0.24414 0.94238,0 1.42578,0.585937 0.4834,0.581055 0.4834,1.713867 z"
         style=""
         id="path10340" />
      <path
         d="m 121.55054,53.32296 q -0.49512,0 -0.74585,0.48877 -0.24756,0.485596 -0.24756,1.463135 0,0.974365 0.24756,1.463134 0.25073,0.485596 0.74585,0.485596 0.49829,0 0.74585,-0.485596 0.25073,-0.488769 0.25073,-1.463134 0,-0.977539 -0.25073,-1.463135 -0.24756,-0.48877 -0.74585,-0.48877 z m 0,-0.507812 q 0.79663,0 1.21557,0.631592 0.42212,0.628418 0.42212,1.828125 0,1.196533 -0.42212,1.828125 -0.41894,0.628418 -1.21557,0.628418 -0.79663,0 -1.21875,-0.628418 -0.41895,-0.631592 -0.41895,-1.828125 0,-1.199707 0.41895,-1.828125 0.42212,-0.631592 1.21875,-0.631592 z"
         style="font-size:64.99999762%;baseline-shift:sub"
         id="path10342" />
      <path
         d="m 173.68164,52.338585 0,3.300782 -0.89844,0 0,-3.271485 q 0,-0.776367 -0.30273,-1.162109 -0.30274,-0.385742 -0.9082,-0.385742 -0.72754,0 -1.14747,0.463867 -0.41992,0.463867 -0.41992,1.264648 l 0,3.090821 -0.90332,0 0,-7.597657 0.90332,0 0,2.978516 q 0.32227,-0.493164 0.75684,-0.737305 0.43945,-0.24414 1.01074,-0.24414 0.94238,0 1.42578,0.585937 0.4834,0.581055 0.4834,1.713867 z"
         style=""
         id="path10344" />
      <path
         d="m 175.34717,57.099816 1.04736,0 0,-3.61499 -1.1394,0.228515 0,-0.583984 1.13305,-0.228516 0.64112,0 0,4.198975 1.04736,0 0,0.539551 -2.72949,0 0,-0.539551 z"
         style="font-size:64.99999762%;baseline-shift:sub"
         id="path10346" />
      <path
         d="m 227.62402,52.338585 0,3.300782 -0.89843,0 0,-3.271485 q 0,-0.776367 -0.30274,-1.162109 -0.30273,-0.385742 -0.9082,-0.385742 -0.72754,0 -1.14746,0.463867 -0.41992,0.463867 -0.41992,1.264648 l 0,3.090821 -0.90332,0 0,-7.597657 0.90332,0 0,2.978516 q 0.32226,-0.493164 0.75683,-0.737305 0.43945,-0.24414 1.01074,-0.24414 0.94239,0 1.42578,0.585937 0.4834,0.581055 0.4834,1.713867 z"
         style=""
         id="path10348" />
      <path
         d="m 229.73071,57.099816 2.23755,0 0,0.539551 -3.00879,0 0,-0.539551 q 0.36499,-0.377686 0.99341,-1.012451 0.63159,-0.63794 0.79346,-0.822022 0.30786,-0.345947 0.42846,-0.583984 0.12378,-0.241211 0.12378,-0.472901 0,-0.377685 -0.2666,-0.615722 -0.26343,-0.238037 -0.68872,-0.238037 -0.30151,0 -0.63794,0.104736 -0.33325,0.104736 -0.71411,0.317383 l 0,-0.647461 q 0.38721,-0.155518 0.72363,-0.234863 0.33643,-0.07935 0.61573,-0.07935 0.73632,0 1.17431,0.368164 0.43799,0.368164 0.43799,0.983887 0,0.291992 -0.11108,0.55542 -0.10791,0.260253 -0.39673,0.615722 -0.0794,0.09204 -0.50464,0.533203 -0.42529,0.437989 -1.19971,1.228272 z"
         style="font-size:64.99999762%;baseline-shift:sub"
         id="path10350" />
      <path
         d="m 283.63574,52.338585 0,3.300782 -0.89844,0 0,-3.271485 q 0,-0.776367 -0.30273,-1.162109 -0.30273,-0.385742 -0.9082,-0.385742 -0.72754,0 -1.14746,0.463867 -0.41993,0.463867 -0.41993,1.264648 l 0,3.090821 -0.90332,0 0,-7.597657 0.90332,0 0,2.978516 q 0.32227,-0.493164 0.75684,-0.737305 0.43945,-0.24414 1.01074,-0.24414 0.94239,0 1.42578,0.585937 0.4834,0.581055 0.4834,1.713867 z"
         style=""
         id="path10352" />
      <path
         d="m 287.13257,55.084435 q 0.4602,0.09839 0.71728,0.409424 0.26026,0.311035 0.26026,0.768066 0,0.701416 -0.48242,1.085449 -0.48243,0.384034 -1.3711,0.384034 -0.29834,0 -0.61572,-0.0603 -0.31421,-0.05713 -0.65064,-0.174561 l 0,-0.618896 q 0.26661,0.155517 0.58399,0.234863 0.31738,0.07935 0.66333,0.07935 0.60303,0 0.91724,-0.238037 0.31738,-0.238037 0.31738,-0.691895 0,-0.418945 -0.29517,-0.653808 -0.29199,-0.238037 -0.81567,-0.238037 l -0.55225,0 0,-0.526856 0.57764,0 q 0.4729,0 0.72363,-0.187256 0.25073,-0.19043 0.25073,-0.545898 0,-0.36499 -0.26025,-0.558594 -0.25708,-0.196777 -0.7395,-0.196777 -0.26343,0 -0.56494,0.05713 -0.30152,0.05713 -0.66333,0.177734 l 0,-0.571289 q 0.36499,-0.101563 0.68237,-0.152344 0.32056,-0.05078 0.60303,-0.05078 0.72998,0 1.15527,0.333252 0.42529,0.330078 0.42529,0.895019 0,0.393555 -0.22534,0.666504 -0.22534,0.269776 -0.64111,0.374512 z"
         style="font-size:64.99999762%;baseline-shift:sub"
         id="path10354" />
      <path
         d="m 341.87598,52.338585 0,3.300782 -0.89844,0 0,-3.271485 q 0,-0.776367 -0.30274,-1.162109 -0.30273,-0.385742 -0.9082,-0.385742 -0.72754,0 -1.14746,0.463867 -0.41992,0.463867 -0.41992,1.264648 l 0,3.090821 -0.90332,0 0,-7.597657 0.90332,0 0,2.978516 q 0.32226,-0.493164 0.75683,-0.737305 0.43946,-0.24414 1.01075,-0.24414 0.94238,0 1.42578,0.585937 0.4834,0.581055 0.4834,1.713867 z"
         style=""
         id="path10356" />
      <path
         d="m 345.19189,53.459435 -1.61865,2.529541 1.61865,0 0,-2.529541 z m -0.16821,-0.558594 0.80615,0 0,3.088135 0.67603,0 0,0.533203 -0.67603,0 0,1.117188 -0.63794,0 0,-1.117188 -2.13916,0 0,-0.618896 1.97095,-3.002442 z"
         style="font-size:64.99999762%;baseline-shift:sub"
         id="path10358" />
      <path
         d="m 395.81836,52.338585 0,3.300782 -0.89844,0 0,-3.271485 q 0,-0.776367 -0.30273,-1.162109 -0.30274,-0.385742 -0.90821,-0.385742 -0.72753,0 -1.14746,0.463867 -0.41992,0.463867 -0.41992,1.264648 l 0,3.090821 -0.90332,0 0,-7.597657 0.90332,0 0,2.978516 q 0.32227,-0.493164 0.75684,-0.737305 0.43945,-0.24414 1.01074,-0.24414 0.94238,0 1.42578,0.585937 0.4834,0.581055 0.4834,1.713867 z"
         style=""
         id="path10360" />
      <path
         d="m 397.37915,52.900841 2.51685,0 0,0.539551 -1.92969,0 0,1.161621 q 0.13965,-0.04761 0.2793,-0.06982 0.13964,-0.02539 0.27929,-0.02539 0.79346,0 1.25684,0.434815 0.46338,0.434814 0.46338,1.17749 0,0.764893 -0.47608,1.190185 -0.47607,0.42212 -1.34253,0.42212 -0.29834,0 -0.60937,-0.05078 -0.30786,-0.05078 -0.63794,-0.152343 l 0,-0.644287 q 0.28564,0.155517 0.59033,0.231689 0.30469,0.07617 0.64429,0.07617 0.54907,0 0.86963,-0.288819 0.32055,-0.288818 0.32055,-0.783935 0,-0.495117 -0.32055,-0.783936 -0.32056,-0.288818 -0.86963,-0.288818 -0.25708,0 -0.51416,0.05713 -0.25391,0.05713 -0.52051,0.177734 l 0,-2.380371 z"
         style="font-size:64.99999762%;baseline-shift:sub"
         id="path10362" />
      <path
         d="m 448.64648,52.338585 0,3.300782 -0.89843,0 0,-3.271485 q 0,-0.776367 -0.30274,-1.162109 -0.30273,-0.385742 -0.9082,-0.385742 -0.72754,0 -1.14746,0.463867 -0.41992,0.463867 -0.41992,1.264648 l 0,3.090821 -0.90332,0 0,-7.597657 0.90332,0 0,2.978516 q 0.32226,-0.493164 0.75683,-0.737305 0.43946,-0.24414 1.01074,-0.24414 0.94239,0 1.42579,0.585937 0.48339,0.581055 0.48339,1.713867 z"
         style=""
         id="path10364" />
      <path
         d="m 451.65137,55.014611 q -0.43164,0 -0.68555,0.295166 -0.25073,0.295166 -0.25073,0.809326 0,0.510986 0.25073,0.809326 0.25391,0.295166 0.68555,0.295166 0.43164,0 0.68237,-0.295166 0.25391,-0.29834 0.25391,-0.809326 0,-0.51416 -0.25391,-0.809326 -0.25073,-0.295166 -0.68237,-0.295166 z m 1.2727,-2.009033 0,0.583984 q -0.24121,-0.114258 -0.48877,-0.174561 -0.24438,-0.0603 -0.48559,-0.0603 -0.63477,0 -0.97119,0.428466 -0.33326,0.428467 -0.38086,1.294922 0.18725,-0.276123 0.46972,-0.422119 0.28247,-0.14917 0.62207,-0.14917 0.71411,0 1.12671,0.434815 0.41577,0.43164 0.41577,1.17749 0,0.72998 -0.43164,1.171143 -0.43164,0.441162 -1.14892,0.441162 -0.82202,0 -1.25684,-0.628418 -0.43481,-0.631592 -0.43481,-1.828125 0,-1.123535 0.5332,-1.790039 0.5332,-0.669678 1.4314,-0.669678 0.24121,0 0.48559,0.04761 0.24756,0.04761 0.51416,0.142823 z"
         style="font-size:64.99999762%;baseline-shift:sub"
         id="path10366" />
      <path
         d="m 502.58887,52.338585 0,3.300782 -0.89844,0 0,-3.271485 q 0,-0.776367 -0.30273,-1.162109 -0.30274,-0.385742 -0.90821,-0.385742 -0.72754,0 -1.14746,0.463867 -0.41992,0.463867 -0.41992,1.264648 l 0,3.090821 -0.90332,0 0,-7.597657 0.90332,0 0,2.978516 q 0.32226,-0.493164 0.75684,-0.737305 0.43945,-0.24414 1.01074,-0.24414 0.94238,0 1.42578,0.585937 0.4834,0.581055 0.4834,1.713867 z"
         style=""
         id="path10368" />
      <path
         d="m 503.98145,52.900841 3.04687,0 0,0.272949 -1.72021,4.465577 -0.66968,0 1.61865,-4.198975 -2.27563,0 0,-0.539551 z"
         style="font-size:64.99999762%;baseline-shift:sub"
         id="path10370" />
    </g>
    <rect
       style="fill:#dedede;fill-opacity:1;stroke:none;stroke-width:0;stroke-linecap:round;stroke-linejoin:round;stroke-miterlimit:4;stroke-dasharray:none;stroke-dashoffset:0;stroke-opacity:1"
       id="banner3"
       width="399.52304"
       height="71.250008"
       x="300.3558"
       y="546.23718" />
    <rect
       style="fill:#dedede;fill-opacity:1;stroke:none;stroke-width:0;stroke-linecap:round;stroke-linejoin:round;stroke-miterlimit:4;stroke-dasharray:none;stroke-dashoffset:0;stroke-opacity:1"
       id="banner2"
       width="442.0921"
       height="32.084656"
       x="257.64816"
       y="514.45709" />
    <rect
       style="fill:#dedede;fill-opacity:1;stroke:none;stroke-width:0;stroke-linecap:round;stroke-linejoin:round;stroke-miterlimit:4;stroke-dasharray:none;stroke-dashoffset:0;stroke-opacity:1"
       id="banner1"
       width="442.43872"
       height="73.571434"
       x="257.56149"
       y="441.46997" />
    <rect
       style="fill:#ffffff;fill-opacity:1;stroke:none;stroke-width:0;stroke-linecap:round;stroke-linejoin:round;stroke-miterlimit:4;stroke-dasharray:none;stroke-dashoffset:0;stroke-opacity:1"
       id="rect11529"
       width="35.355339"
       height="199.50513"
       x="673.24438"
       y="432.57144" />
    <path
       style="fill:none;fill-opacity:1;fill-rule:evenodd;stroke:#000000;stroke-width:0.65299684px;stroke-linecap:butt;stroke-linejoin:miter;stroke-opacity:1"
       d="m 258.19595,543.6142 28.91843,0 0,-28.91843 -28.91843,0 z"
       id="rect5550"
       inkscape:connector-curvature="0" />
    <circle
       style="fill:none;fill-opacity:1;stroke:#000000;stroke-width:0.66284519;stroke-opacity:1"
       id="path6404"
       cx="272.48865"
       cy="467.23135"
       r="0" />
    <circle
       style="fill:none;fill-opacity:1;stroke:#000000;stroke-width:0.68532217;stroke-opacity:1"
       id="path6404-5"
       cx="272.74118"
       cy="593.75293"
       r="0" />
    <g
       transform="matrix(1.4538618,0,0,1.4538618,165.428,436.50338)"
       style="font-style:normal;font-weight:normal;font-size:15px;line-height:125%;font-family:sans-serif;letter-spacing:0px;word-spacing:0px;fill:#000000;fill-opacity:1;stroke:none;stroke-width:1px;stroke-linecap:butt;stroke-linejoin:miter;stroke-opacity:1"
       id="flowRoot8961">
      <path
         d="m 5.4545898,16.923894 1.3476563,0 0,8.203125 -1.3476563,0 0,-8.203125 z m 0,-3.19336 1.3476563,0 0,1.706543 -1.3476563,0 0,-1.706543 z"
         id="path4779"
         inkscape:connector-curvature="0" />
      <path
         d="m 10.947754,14.594792 0,2.329102 2.775879,0 0,1.047363 -2.775879,0 0,4.453125 q 0,1.003418 0.270996,1.289062 0.27832,0.285645 1.120605,0.285645 l 1.384278,0 0,1.12793 -1.384278,0 q -1.560058,0 -2.15332,-0.578614 -0.5932616,-0.585937 -0.5932616,-2.124023 l 0,-4.453125 -0.9887695,0 0,-1.047363 0.9887695,0 0,-2.329102 1.3549806,0 z"
         id="path4781"
         inkscape:connector-curvature="0" />
      <path
         d="m 19.231445,21.003484 q -1.6333,0 -2.263183,0.373535 -0.629883,0.373535 -0.629883,1.274414 0,0.717773 0.46875,1.142578 0.476074,0.41748 1.289062,0.41748 1.120606,0 1.794434,-0.791015 0.681152,-0.79834 0.681152,-2.1167 l 0,-0.300292 -1.340332,0 z m 2.687989,-0.556641 0,4.680176 -1.347657,0 0,-1.245118 q -0.461425,0.747071 -1.149902,1.105958 -0.688477,0.351562 -1.68457,0.351562 -1.259766,0 -2.006836,-0.703125 -0.739746,-0.710449 -0.739746,-1.896973 0,-1.384277 0.922851,-2.087402 0.930176,-0.703125 2.768555,-0.703125 l 1.889648,0 0,-0.131836 q 0,-0.930176 -0.615234,-1.435547 -0.60791,-0.512695 -1.713867,-0.512695 -0.703125,0 -1.369629,0.168457 -0.666504,0.168457 -1.281738,0.505371 l 0,-1.245117 q 0.739746,-0.285645 1.435546,-0.424805 0.695801,-0.146484 1.354981,-0.146484 1.779785,0 2.658691,0.922851 0.878907,0.922852 0.878907,2.797852 z"
         id="path4783"
         inkscape:connector-curvature="0" />
      <path
         d="m 24.702637,13.730534 1.347656,0 0,11.396485 -1.347656,0 0,-11.396485 z"
         id="path4785"
         inkscape:connector-curvature="0" />
      <path
         d="m 28.862793,16.923894 1.347656,0 0,8.203125 -1.347656,0 0,-8.203125 z m 0,-3.19336 1.347656,0 0,1.706543 -1.347656,0 0,-1.706543 z"
         id="path4787"
         inkscape:connector-curvature="0" />
      <path
         d="m 36.750977,21.003484 q -1.633301,0 -2.263184,0.373535 -0.629883,0.373535 -0.629883,1.274414 0,0.717773 0.46875,1.142578 0.476074,0.41748 1.289063,0.41748 1.120605,0 1.794433,-0.791015 0.681153,-0.79834 0.681153,-2.1167 l 0,-0.300292 -1.340332,0 z m 2.687988,-0.556641 0,4.680176 -1.347656,0 0,-1.245118 q -0.461426,0.747071 -1.149903,1.105958 -0.688476,0.351562 -1.68457,0.351562 -1.259766,0 -2.006836,-0.703125 -0.739746,-0.710449 -0.739746,-1.896973 0,-1.384277 0.922851,-2.087402 0.930176,-0.703125 2.768555,-0.703125 l 1.889649,0 0,-0.131836 q 0,-0.930176 -0.615235,-1.435547 -0.60791,-0.512695 -1.713867,-0.512695 -0.703125,0 -1.369629,0.168457 -0.666504,0.168457 -1.281738,0.505371 l 0,-1.245117 q 0.739746,-0.285645 1.435547,-0.424805 0.6958,-0.146484 1.35498,-0.146484 1.779785,0 2.658692,0.922851 0.878906,0.922852 0.878906,2.797852 z"
         id="path4789"
         inkscape:connector-curvature="0" />
      <path
         d="m 49.041016,20.175847 0,4.951172 -1.347657,0 0,-4.907227 q 0,-1.164551 -0.454101,-1.743164 -0.454102,-0.578613 -1.362305,-0.578613 -1.091308,0 -1.721191,0.695801 -0.629883,0.6958 -0.629883,1.896972 l 0,4.636231 -1.354981,0 0,-8.203125 1.354981,0 0,1.274414 q 0.483398,-0.739746 1.135254,-1.105957 0.659179,-0.366211 1.516113,-0.366211 1.413574,0 2.138672,0.878906 0.725098,0.871582 0.725098,2.570801 z"
         id="path4791"
         inkscape:connector-curvature="0" />
      <path
         d="m 52.087891,23.266667 1.54541,0 0,1.860352 -1.54541,0 0,-1.860352 z m 0,-5.895996 1.54541,0 0,1.860352 -1.54541,0 0,-1.860352 z"
         id="path4793"
         inkscape:connector-curvature="0" />
    </g>
    <g
       transform="matrix(1.4538618,0,0,1.4538618,150.83748,558.44134)"
       style="font-style:normal;font-weight:normal;font-size:15px;line-height:125%;font-family:sans-serif;letter-spacing:0px;word-spacing:0px;fill:#000000;fill-opacity:1;stroke:none;stroke-width:1px;stroke-linecap:butt;stroke-linejoin:miter;stroke-opacity:1"
       id="flowRoot8961-6">
      <path
         d="m 10.852539,20.930241 q 0,-1.464843 -0.60791,-2.270507 -0.600586,-0.805665 -1.6918946,-0.805665 -1.0839844,0 -1.6918946,0.805665 -0.6005859,0.805664 -0.6005859,2.270507 0,1.45752 0.6005859,2.263184 0.6079102,0.805664 1.6918946,0.805664 1.0913086,0 1.6918946,-0.805664 0.60791,-0.805664 0.60791,-2.263184 z m 1.347656,3.178711 q 0,2.094727 -0.930175,3.112793 -0.930176,1.025391 -2.8491216,1.025391 -0.7104492,0 -1.340332,-0.109863 -0.6298828,-0.102539 -1.2231445,-0.322266 l 0,-1.311035 q 0.5932617,0.322265 1.171875,0.476074 0.5786133,0.153809 1.1791992,0.153809 1.3256836,0 1.9848629,-0.695801 0.65918,-0.688477 0.65918,-2.087403 l 0,-0.666503 q -0.41748,0.725097 -1.0693359,1.083984 -0.6518554,0.358887 -1.5600586,0.358887 -1.508789,0 -2.4316406,-1.149903 -0.9228516,-1.149902 -0.9228516,-3.046875 0,-1.904297 0.9228516,-3.054199 0.9228516,-1.149902 2.4316406,-1.149902 0.9082032,0 1.5600586,0.358886 0.6518559,0.358887 1.0693359,1.083985 l 0,-1.245117 1.347656,0 0,7.185058 z"
         id="path4764"
         inkscape:connector-curvature="0" />
      <path
         d="m 21.992676,20.688542 0,0.65918 -6.196289,0 q 0.08789,1.391601 0.834961,2.124023 0.754394,0.725098 2.094726,0.725098 0.776367,0 1.501465,-0.19043 0.732422,-0.190429 1.450195,-0.571289 l 0,1.274414 q -0.725097,0.307617 -1.486816,0.46875 -0.761719,0.161133 -1.54541,0.161133 -1.962891,0 -3.112793,-1.142578 -1.142578,-1.142578 -1.142578,-3.09082 0,-2.014161 1.083984,-3.19336 1.091309,-1.186523 2.937012,-1.186523 1.655273,0 2.614746,1.069336 0.966797,1.062011 0.966797,2.893066 z M 20.64502,20.293034 q -0.01465,-1.105957 -0.622559,-1.765136 -0.600586,-0.65918 -1.59668,-0.65918 -1.127929,0 -1.809082,0.637207 -0.673828,0.637207 -0.776367,1.794434 l 4.804688,-0.0073 z"
         id="path4766"
         inkscape:connector-curvature="0" />
      <path
         d="m 28.958008,18.183659 q -0.227051,-0.131836 -0.498047,-0.190429 -0.263672,-0.06592 -0.585938,-0.06592 -1.142578,0 -1.757812,0.74707 -0.60791,0.739746 -0.60791,2.131348 l 0,4.321289 -1.354981,0 0,-8.203125 1.354981,0 0,1.274414 q 0.424804,-0.747071 1.105957,-1.105957 0.681152,-0.366211 1.655273,-0.366211 0.13916,0 0.307617,0.02197 0.168457,0.01465 0.373536,0.05127 l 0.0073,1.384277 z"
         id="path4768"
         inkscape:connector-curvature="0" />
      <path
         d="m 36.509277,18.498601 q 0.505371,-0.908203 1.208496,-1.340332 0.703125,-0.432129 1.655274,-0.432129 1.281738,0 1.977539,0.900879 0.695801,0.893554 0.695801,2.548828 l 0,4.951172 -1.354981,0 0,-4.907227 q 0,-1.179199 -0.41748,-1.750488 -0.417481,-0.571289 -1.274414,-0.571289 -1.047364,0 -1.655274,0.695801 -0.60791,0.6958 -0.60791,1.896972 l 0,4.636231 -1.35498,0 0,-4.907227 q 0,-1.186523 -0.417481,-1.750488 -0.41748,-0.571289 -1.289062,-0.571289 -1.032715,0 -1.640625,0.703125 -0.60791,0.695801 -0.60791,1.889648 l 0,4.636231 -1.354981,0 0,-8.203125 1.354981,0 0,1.274414 q 0.461425,-0.754395 1.105957,-1.113282 0.644531,-0.358886 1.530761,-0.358886 0.893555,0 1.516114,0.454101 0.629882,0.454102 0.930175,1.31836 z"
         id="path4770"
         inkscape:connector-curvature="0" />
      <path
         d="m 48.469727,21.003484 q -1.633301,0 -2.263184,0.373535 -0.629883,0.373535 -0.629883,1.274414 0,0.717773 0.46875,1.142578 0.476074,0.41748 1.289063,0.41748 1.120605,0 1.794433,-0.791015 0.681153,-0.79834 0.681153,-2.1167 l 0,-0.300292 -1.340332,0 z m 2.687988,-0.556641 0,4.680176 -1.347656,0 0,-1.245118 q -0.461426,0.747071 -1.149903,1.105958 -0.688476,0.351562 -1.68457,0.351562 -1.259766,0 -2.006836,-0.703125 -0.739746,-0.710449 -0.739746,-1.896973 0,-1.384277 0.922851,-2.087402 0.930176,-0.703125 2.768555,-0.703125 l 1.889649,0 0,-0.131836 q 0,-0.930176 -0.615235,-1.435547 -0.60791,-0.512695 -1.713867,-0.512695 -0.703125,0 -1.369629,0.168457 -0.666504,0.168457 -1.281738,0.505371 l 0,-1.245117 q 0.739746,-0.285645 1.435547,-0.424805 0.6958,-0.146484 1.35498,-0.146484 1.779785,0 2.658692,0.922851 0.878906,0.922852 0.878906,2.797852 z"
         id="path4772"
         inkscape:connector-curvature="0" />
      <path
         d="m 60.759766,20.175847 0,4.951172 -1.347657,0 0,-4.907227 q 0,-1.164551 -0.454101,-1.743164 -0.454102,-0.578613 -1.362305,-0.578613 -1.091308,0 -1.721191,0.695801 -0.629883,0.6958 -0.629883,1.896972 l 0,4.636231 -1.354981,0 0,-8.203125 1.354981,0 0,1.274414 q 0.483398,-0.739746 1.135254,-1.105957 0.659179,-0.366211 1.516113,-0.366211 1.413574,0 2.138672,0.878906 0.725098,0.871582 0.725098,2.570801 z"
         id="path4774"
         inkscape:connector-curvature="0" />
      <path
         d="m 63.806641,23.266667 1.54541,0 0,1.860352 -1.54541,0 0,-1.860352 z m 0,-5.895996 1.54541,0 0,1.860352 -1.54541,0 0,-1.860352 z"
         id="path4776"
         inkscape:connector-curvature="0" />
    </g>
    <path
       style="fill:none;fill-opacity:1;fill-rule:evenodd;stroke:#000000;stroke-width:0.65299684px;stroke-linecap:butt;stroke-linejoin:miter;stroke-opacity:1"
       d="m 313.91156,543.92778 28.91843,0 0,-28.91843 -28.91843,0 z"
       id="rect5550-9"
       inkscape:connector-curvature="0" />
    <path
       style="fill:none;fill-opacity:1;stroke:#000000;stroke-width:0.66284519;stroke-opacity:1"
       d="m 342.7675,466.74139 a 14.563251,14.563251 0 0 1 -14.56325,14.56325 14.563251,14.563251 0 0 1 -14.56325,-14.56325 14.563251,14.563251 0 0 1 14.56325,-14.56325 14.563251,14.563251 0 0 1 14.56325,14.56325 z"
       id="path6404-4"
       inkscape:connector-curvature="0" />
    <path
       style="fill:none;fill-opacity:1;stroke:#000000;stroke-width:0.68532217;stroke-opacity:1"
       d="m 343.51388,593.26294 a 15.057089,15.057089 0 0 1 -15.05709,15.05709 15.057089,15.057089 0 0 1 -15.05709,-15.05709 15.057089,15.057089 0 0 1 15.05709,-15.05709 15.057089,15.057089 0 0 1 15.05709,15.05709 z"
       id="path6404-5-7"
       inkscape:connector-curvature="0" />
    <path
       style="fill:none;fill-opacity:1;fill-rule:evenodd;stroke:#000000;stroke-width:0.65299684px;stroke-linecap:butt;stroke-linejoin:miter;stroke-opacity:1"
       d="m 367.36346,543.71446 28.91843,0 0,-28.91843 -28.91843,0 z"
       id="rect5550-3-8"
       inkscape:connector-curvature="0" />
    <path
       style="fill:none;fill-opacity:1;stroke:#000000;stroke-width:0.66284519;stroke-opacity:1"
       d="m 396.21941,466.52811 a 14.563251,14.563251 0 0 1 -14.56325,14.56325 14.563251,14.563251 0 0 1 -14.56325,-14.56325 14.563251,14.563251 0 0 1 14.56325,-14.56325 14.563251,14.563251 0 0 1 14.56325,14.56325 z"
       id="path6404-7-4"
       inkscape:connector-curvature="0" />
    <path
       style="fill:none;fill-opacity:1;stroke:#000000;stroke-width:0.68532217;stroke-opacity:1"
       d="m 396.96578,593.04962 a 15.057089,15.057089 0 0 1 -15.05709,15.05709 15.057089,15.057089 0 0 1 -15.05709,-15.05709 15.057089,15.057089 0 0 1 15.05709,-15.05709 15.057089,15.057089 0 0 1 15.05709,15.05709 z"
       id="path6404-5-5-3"
       inkscape:connector-curvature="0" />
    <path
       transform="scale(1,-1)"
       style="fill:none;fill-opacity:1;fill-rule:evenodd;stroke:#000000;stroke-width:0.65299684px;stroke-linecap:butt;stroke-linejoin:miter;stroke-opacity:1"
       d="m 422.61002,-543.79193 28.91843,0 0,28.91843 -28.91843,0 z"
       id="rect5550-7"
       inkscape:connector-curvature="0" />
    <path
       style="fill:none;fill-opacity:1;stroke:#000000;stroke-width:0.66284519;stroke-opacity:1"
       d="m 451.46596,466.15918 a 14.563251,14.563251 0 0 1 -14.56325,14.56325 14.563251,14.563251 0 0 1 -14.56325,-14.56325 14.563251,14.563251 0 0 1 14.56325,-14.56325 14.563251,14.563251 0 0 1 14.56325,14.56325 z"
       id="path6404-6"
       inkscape:connector-curvature="0" />
    <path
       style="fill:none;fill-opacity:1;stroke:#000000;stroke-width:0.68532217;stroke-opacity:1"
       d="m 452.21233,592.68066 a 15.057089,15.057089 0 0 1 -15.05709,15.05709 15.057089,15.057089 0 0 1 -15.05709,-15.05709 15.057089,15.057089 0 0 1 15.05709,-15.05708 15.057089,15.057089 0 0 1 15.05709,15.05708 z"
       id="path6404-5-73"
       inkscape:connector-curvature="0" />
    <path
       style="fill:none;fill-opacity:1;fill-rule:evenodd;stroke:#000000;stroke-width:0.65299684px;stroke-linecap:butt;stroke-linejoin:miter;stroke-opacity:1"
       d="m 479.33578,543.83765 28.91844,0 0,-28.91843 -28.91844,0 z"
       id="rect5550-9-1"
       inkscape:connector-curvature="0" />
    <path
       style="fill:none;fill-opacity:1;stroke:#000000;stroke-width:0.66284519;stroke-opacity:1"
       d="m 508.1917,465.66919 a 14.563251,14.563251 0 0 1 -14.56325,14.56325 14.563251,14.563251 0 0 1 -14.56325,-14.56325 14.563251,14.563251 0 0 1 14.56325,-14.56325 14.563251,14.563251 0 0 1 14.56325,14.56325 z"
       id="path6404-4-1"
       inkscape:connector-curvature="0" />
    <path
       style="fill:none;fill-opacity:1;stroke:#000000;stroke-width:0.68532217;stroke-opacity:1"
       d="m 508.9381,592.19067 a 15.057089,15.057089 0 0 1 -15.05709,15.05709 15.057089,15.057089 0 0 1 -15.05709,-15.05709 15.057089,15.057089 0 0 1 15.05709,-15.05709 15.057089,15.057089 0 0 1 15.05709,15.05709 z"
       id="path6404-5-7-5"
       inkscape:connector-curvature="0" />
    <path
       style="fill:none;fill-opacity:1;fill-rule:evenodd;stroke:#000000;stroke-width:0.65299684px;stroke-linecap:butt;stroke-linejoin:miter;stroke-opacity:1"
       d="m 533.79779,543.62433 28.91843,0 0,-28.91843 -28.91843,0 z"
       id="rect5550-3-8-6"
       inkscape:connector-curvature="0" />
    <path
       style="fill:none;fill-opacity:1;stroke:#000000;stroke-width:0.66284519;stroke-opacity:1"
       d="m 562.65377,465.45593 a 14.563251,14.563251 0 0 1 -14.56325,14.56325 14.563251,14.563251 0 0 1 -14.56326,-14.56325 14.563251,14.563251 0 0 1 14.56326,-14.56325 14.563251,14.563251 0 0 1 14.56325,14.56325 z"
       id="path6404-7-4-2"
       inkscape:connector-curvature="0" />
    <path
       style="fill:none;fill-opacity:1;stroke:#000000;stroke-width:0.68532217;stroke-opacity:1"
       d="m 563.40011,591.97736 a 15.057089,15.057089 0 0 1 -15.05709,15.05708 15.057089,15.057089 0 0 1 -15.05709,-15.05708 15.057089,15.057089 0 0 1 15.05709,-15.05709 15.057089,15.057089 0 0 1 15.05709,15.05709 z"
       id="path6404-5-5-3-1"
       inkscape:connector-curvature="0" />
    <path
       style="fill:none;fill-opacity:1;fill-rule:evenodd;stroke:#000000;stroke-width:0.65299684px;stroke-linecap:butt;stroke-linejoin:miter;stroke-opacity:1"
       d="m 585.30438,544.35858 28.91843,0 0,-28.91843 -28.91843,0 z"
       id="rect5550-9-1-8"
       inkscape:connector-curvature="0" />
    <path
       style="fill:none;fill-opacity:1;stroke:#000000;stroke-width:0.66284519;stroke-opacity:1"
       d="M 614.1603,464.7258 A 14.563251,14.563251 0 0 1 599.59705,479.28905 14.563251,14.563251 0 0 1 585.0338,464.7258 14.563251,14.563251 0 0 1 599.59705,450.16255 14.563251,14.563251 0 0 1 614.1603,464.7258 Z"
       id="path6404-4-1-8"
       inkscape:connector-curvature="0" />
    <path
       style="fill:none;fill-opacity:1;stroke:#000000;stroke-width:0.68532217;stroke-opacity:1"
       d="m 614.9067,591.24731 a 15.057089,15.057089 0 0 1 -15.05709,15.05709 15.057089,15.057089 0 0 1 -15.05709,-15.05709 15.057089,15.057089 0 0 1 15.05709,-15.05708 15.057089,15.057089 0 0 1 15.05709,15.05708 z"
       id="path6404-5-7-5-8"
       inkscape:connector-curvature="0" />
    <path
       style="fill:none;fill-opacity:1;fill-rule:evenodd;stroke:#000000;stroke-width:0.65299684px;stroke-linecap:butt;stroke-linejoin:miter;stroke-opacity:1"
       d="m 639.76648,544.14526 28.91843,0 0,-28.91843 -28.91843,0 z"
       id="rect5550-3-8-6-0"
       inkscape:connector-curvature="0" />
    <path
       style="fill:none;fill-opacity:1;stroke:#000000;stroke-width:0.66284519;stroke-opacity:1"
       d="m 668.62245,464.51254 a 14.563251,14.563251 0 0 1 -14.56325,14.56325 14.563251,14.563251 0 0 1 -14.56325,-14.56325 14.563251,14.563251 0 0 1 14.56325,-14.56325 14.563251,14.563251 0 0 1 14.56325,14.56325 z"
       id="path6404-7-4-2-9"
       inkscape:connector-curvature="0" />
    <path
       style="fill:none;fill-opacity:1;stroke:#000000;stroke-width:0.68532217;stroke-opacity:1"
       d="M 669.3688,591.034 A 15.057089,15.057089 0 0 1 654.31171,606.09109 15.057089,15.057089 0 0 1 639.25462,591.034 15.057089,15.057089 0 0 1 654.31171,575.97691 15.057089,15.057089 0 0 1 669.3688,591.034 Z"
       id="path6404-5-5-3-1-2"
       inkscape:connector-curvature="0" />
    <flowRoot
       xml:space="preserve"
       id="flowRoot12572"
       style="font-style:normal;font-weight:normal;font-size:15px;line-height:125%;font-family:sans-serif;letter-spacing:0px;word-spacing:0px;fill:url(#linearGradient12586);fill-opacity:1;stroke:none;stroke-width:1px;stroke-linecap:butt;stroke-linejoin:miter;stroke-opacity:1"><flowRegion
         id="flowRegion12574"
         style="fill:url(#linearGradient3563);fill-opacity:1"><rect
           id="rect12576"
           width="268.1955"
           height="36.870567"
           x="444.46713"
           y="10.175653"
           style="fill:url(#linearGradient3561);fill-opacity:1" /></flowRegion><flowPara
         id="flowPara12578"
         style="fill:url(#linearGradient3565);fill-opacity:1" /></flowRoot>    <path
       style="fill:none;fill-rule:evenodd;stroke:#000000;stroke-width:1px;stroke-linecap:butt;stroke-linejoin:miter;stroke-opacity:1;marker-end:url(#marker13706)"
       d="m 287.11438,530.27782 26.79718,-0.23567"
       id="path12758"
       inkscape:connector-curvature="0" />
    <path
       style="fill:none;fill-rule:evenodd;stroke:#000000;stroke-width:1px;stroke-linecap:butt;stroke-linejoin:miter;stroke-opacity:1;marker-end:url(#marker6781)"
       d="m 342.82999,529.85729 24.53347,-0.0979"
       id="path12762"
       inkscape:connector-curvature="0" />
    <path
       style="fill:none;fill-rule:evenodd;stroke:#000000;stroke-width:1px;stroke-linecap:butt;stroke-linejoin:miter;stroke-opacity:1;marker-end:url(#marker12786)"
       d="m 396.28189,529.60511 26.32813,-0.17583"
       id="path12764"
       inkscape:connector-curvature="0" />
    <path
       style="fill:none;fill-rule:evenodd;stroke:#000000;stroke-width:1px;stroke-linecap:butt;stroke-linejoin:miter;stroke-opacity:1;marker-end:url(#marker12958)"
       d="m 451.52845,529.20782 27.80733,-0.2402"
       id="path12766"
       inkscape:connector-curvature="0" />
    <path
       style="fill:none;fill-rule:evenodd;stroke:#000000;stroke-width:1px;stroke-linecap:butt;stroke-linejoin:miter;stroke-opacity:1;marker-end:url(#marker13136)"
       d="m 508.25422,528.78609 25.54357,-0.10005"
       id="path12768"
       inkscape:connector-curvature="0" />
    <path
       style="fill:none;fill-rule:evenodd;stroke:#000000;stroke-width:1px;stroke-linecap:butt;stroke-linejoin:miter;stroke-opacity:1;marker-end:url(#marker13320)"
       d="m 562.71622,528.42447 22.58816,-0.32016"
       id="path12770"
       inkscape:connector-curvature="0" />
    <path
       style="fill:none;fill-rule:evenodd;stroke:#000000;stroke-width:1px;stroke-linecap:butt;stroke-linejoin:miter;stroke-opacity:1;marker-end:url(#marker13510)"
       d="m 614.22281,529.84273 25.54367,-0.10005"
       id="path12772"
       inkscape:connector-curvature="0" />
    <path
       style="fill:none;fill-opacity:1;stroke:#000000;stroke-width:0.66284519;stroke-opacity:1"
       d="m 287.3694,467.29227 a 14.563251,14.563251 0 0 1 -14.56325,14.56325 14.563251,14.563251 0 0 1 -14.56325,-14.56325 14.563251,14.563251 0 0 1 14.56325,-14.56325 14.563251,14.563251 0 0 1 14.56325,14.56325 z"
       id="path6404-4-3"
       inkscape:connector-curvature="0" />
    <path
       style="fill:none;fill-opacity:1;stroke:#000000;stroke-width:0.68532217;stroke-opacity:1"
       d="m 288.11577,593.81372 a 15.057089,15.057089 0 0 1 -15.05708,15.05709 15.057089,15.057089 0 0 1 -15.05709,-15.05709 15.057089,15.057089 0 0 1 15.05709,-15.05709 15.057089,15.057089 0 0 1 15.05708,15.05709 z"
       id="path6404-5-7-6"
       inkscape:connector-curvature="0" />
    <path
       style="fill:none;fill-rule:evenodd;stroke:#000000;stroke-width:1px;stroke-linecap:butt;stroke-linejoin:miter;stroke-opacity:1;marker-end:url(#marker4541)"
       d="M 272.96287,578.75722 272.74718,544.8642"
       id="path3601"
       inkscape:connector-curvature="3" />
    <path
       style="fill:none;fill-rule:evenodd;stroke:#000000;stroke-width:0.98169994px;stroke-linecap:butt;stroke-linejoin:miter;stroke-opacity:1;marker-end:url(#marker4703)"
       d="m 272.68787,514.80526 0.0839,-31.93039"
       id="path4695"
       inkscape:connector-curvature="3" />
    <path
       style="fill:none;fill-rule:evenodd;stroke:#000000;stroke-width:1px;stroke-linecap:butt;stroke-linejoin:miter;stroke-opacity:1;marker-end:url(#marker10153)"
       d="m 328.33266,515.45578 -0.09,-34.15137"
       id="path4863"
       inkscape:connector-curvature="3" />
    <path
       style="fill:none;fill-rule:evenodd;stroke:#000000;stroke-width:0.98788232px;stroke-linecap:butt;stroke-linejoin:miter;stroke-opacity:1;marker-end:url(#Arrow1Mend)"
       d="m 328.43705,578.15907 -0.0468,-32.39071"
       id="path4865"
       inkscape:connector-curvature="3" />
    <path
       style="fill:none;fill-rule:evenodd;stroke:#000000;stroke-width:0.98476815px;stroke-linecap:butt;stroke-linejoin:miter;stroke-opacity:1;marker-end:url(#marker10121)"
       d="m 381.88914,577.93417 -0.0471,-32.03072"
       id="path4867"
       inkscape:connector-curvature="3" />
    <path
       style="fill:none;fill-rule:evenodd;stroke:#000000;stroke-width:1px;stroke-linecap:butt;stroke-linejoin:miter;stroke-opacity:1;marker-end:url(#marker10129)"
       d="m 381.78457,515.24246 -0.09,-34.15134"
       id="path4869"
       inkscape:connector-curvature="3" />
    <path
       style="fill:none;fill-rule:evenodd;stroke:#000000;stroke-width:0.98161876px;stroke-linecap:butt;stroke-linejoin:miter;stroke-opacity:1;marker-end:url(#marker10117)"
       d="m 437.13587,577.55369 -0.0473,-31.67084"
       id="path4871"
       inkscape:connector-curvature="3" />
    <path
       style="fill:none;fill-rule:evenodd;stroke:#000000;stroke-width:1px;stroke-linecap:butt;stroke-linejoin:miter;stroke-opacity:1;marker-end:url(#marker10133)"
       d="m 437.03112,514.8735 -0.09,-34.15131"
       id="path4873"
       inkscape:connector-curvature="3" />
    <path
       style="fill:none;fill-rule:evenodd;stroke:#000000;stroke-width:0.98788232px;stroke-linecap:butt;stroke-linejoin:miter;stroke-opacity:1;marker-end:url(#marker10113)"
       d="m 493.86128,577.0868 -0.0468,-32.39071"
       id="path4879"
       inkscape:connector-curvature="3" />
    <path
       style="fill:none;fill-rule:evenodd;stroke:#000000;stroke-width:1px;stroke-linecap:butt;stroke-linejoin:miter;stroke-opacity:1;marker-end:url(#marker10137)"
       d="m 493.75688,514.38351 -0.09,-34.15131"
       id="path4881"
       inkscape:connector-curvature="3" />
    <path
       style="fill:none;fill-rule:evenodd;stroke:#000000;stroke-width:0.98788232px;stroke-linecap:butt;stroke-linejoin:miter;stroke-opacity:1;marker-end:url(#marker10109)"
       d="m 548.32328,576.87349 -0.0468,-32.39072"
       id="path4883"
       inkscape:connector-curvature="3" />
    <path
       style="fill:none;fill-rule:evenodd;stroke:#000000;stroke-width:1px;stroke-linecap:butt;stroke-linejoin:miter;stroke-opacity:1;marker-end:url(#marker10141)"
       d="m 548.2189,514.17019 -0.09,-34.15124"
       id="path4885"
       inkscape:connector-curvature="3" />
    <path
       style="fill:none;fill-rule:evenodd;stroke:#000000;stroke-width:0.96888471px;stroke-linecap:butt;stroke-linejoin:miter;stroke-opacity:1;marker-end:url(#marker10105)"
       d="m 599.83101,576.07119 -0.0483,-30.22927"
       id="path4887"
       inkscape:connector-curvature="3" />
    <path
       style="fill:none;fill-rule:evenodd;stroke:#000000;stroke-width:1px;stroke-linecap:butt;stroke-linejoin:miter;stroke-opacity:1;marker-end:url(#marker10145)"
       d="m 599.72548,515.44015 -0.09,-34.15134"
       id="path4889"
       inkscape:connector-curvature="3" />
    <path
       style="fill:none;fill-rule:evenodd;stroke:#000000;stroke-width:0.96865517px;stroke-linecap:butt;stroke-linejoin:miter;stroke-opacity:1;marker-end:url(#marker10125)"
       d="m 654.29309,575.86154 -0.0482,-30.23248"
       id="path4891"
       inkscape:connector-curvature="3" />
    <path
       style="fill:none;fill-rule:evenodd;stroke:#000000;stroke-width:1px;stroke-linecap:butt;stroke-linejoin:miter;stroke-opacity:1;marker-end:url(#marker10149)"
       d="m 654.18759,515.22683 -0.09,-34.15127"
       id="path4893"
       inkscape:connector-curvature="3" />
    <text
       xml:space="preserve"
       style="font-style:normal;font-weight:normal;font-size:11.70896912px;line-height:125%;font-family:sans-serif;letter-spacing:0px;word-spacing:0px;fill:#000000;fill-opacity:1;stroke:none;stroke-width:1px;stroke-linecap:butt;stroke-linejoin:miter;stroke-opacity:1"
       x="259.63681"
       y="534.10938"
       id="text8927"
       sodipodi:linespacing="125%"><tspan
         sodipodi:role="line"
         id="tspan8929"
         x="259.63681"
         y="534.10938">RNN</tspan></text>
    <text
       xml:space="preserve"
       style="font-style:normal;font-weight:normal;font-size:11.70896912px;line-height:125%;font-family:sans-serif;letter-spacing:0px;word-spacing:0px;fill:#000000;fill-opacity:1;stroke:none;stroke-width:1px;stroke-linecap:butt;stroke-linejoin:miter;stroke-opacity:1"
       x="315.44772"
       y="533.81403"
       id="text8927-9"
       sodipodi:linespacing="125%"><tspan
         sodipodi:role="line"
         id="tspan8929-4"
         x="315.44772"
         y="533.81403">RNN</tspan></text>
    <text
       xml:space="preserve"
       style="font-style:normal;font-weight:normal;font-size:11.70896912px;line-height:125%;font-family:sans-serif;letter-spacing:0px;word-spacing:0px;fill:#000000;fill-opacity:1;stroke:none;stroke-width:1px;stroke-linecap:butt;stroke-linejoin:miter;stroke-opacity:1"
       x="368.35446"
       y="532.9516"
       id="text8927-7"
       sodipodi:linespacing="125%"><tspan
         sodipodi:role="line"
         id="tspan8929-8"
         x="368.35446"
         y="532.9516">RNN</tspan></text>
    <text
       xml:space="preserve"
       style="font-style:normal;font-weight:normal;font-size:11.70896912px;line-height:125%;font-family:sans-serif;letter-spacing:0px;word-spacing:0px;fill:#000000;fill-opacity:1;stroke:none;stroke-width:1px;stroke-linecap:butt;stroke-linejoin:miter;stroke-opacity:1"
       x="424.16537"
       y="532.65625"
       id="text8927-9-4"
       sodipodi:linespacing="125%"><tspan
         sodipodi:role="line"
         id="tspan8929-4-5"
         x="424.16537"
         y="532.65625">RNN</tspan></text>
    <text
       xml:space="preserve"
       style="font-style:normal;font-weight:normal;font-size:11.70896912px;line-height:125%;font-family:sans-serif;letter-spacing:0px;word-spacing:0px;fill:#000000;fill-opacity:1;stroke:none;stroke-width:1px;stroke-linecap:butt;stroke-linejoin:miter;stroke-opacity:1"
       x="480.48141"
       y="532.9516"
       id="text8927-0"
       sodipodi:linespacing="125%"><tspan
         sodipodi:role="line"
         id="tspan8929-3"
         x="480.48141"
         y="532.9516">RNN</tspan></text>
    <text
       xml:space="preserve"
       style="font-style:normal;font-weight:normal;font-size:11.70896912px;line-height:125%;font-family:sans-serif;letter-spacing:0px;word-spacing:0px;fill:#000000;fill-opacity:1;stroke:none;stroke-width:1px;stroke-linecap:butt;stroke-linejoin:miter;stroke-opacity:1"
       x="535.78723"
       y="532.90881"
       id="text8927-9-6"
       sodipodi:linespacing="125%"><tspan
         sodipodi:role="line"
         id="tspan8929-4-1"
         x="535.78723"
         y="532.90881">RNN</tspan></text>
    <text
       xml:space="preserve"
       style="font-style:normal;font-weight:normal;font-size:11.70896912px;line-height:125%;font-family:sans-serif;letter-spacing:0px;word-spacing:0px;fill:#000000;fill-opacity:1;stroke:none;stroke-width:1px;stroke-linecap:butt;stroke-linejoin:miter;stroke-opacity:1"
       x="586.54742"
       y="533.96173"
       id="text8927-06"
       sodipodi:linespacing="125%"><tspan
         sodipodi:role="line"
         id="tspan8929-32"
         x="586.54742"
         y="533.96173">RNN</tspan></text>
    <text
       xml:space="preserve"
       style="font-style:normal;font-weight:normal;font-size:11.70896912px;line-height:125%;font-family:sans-serif;letter-spacing:0px;word-spacing:0px;fill:#000000;fill-opacity:1;stroke:none;stroke-width:1px;stroke-linecap:butt;stroke-linejoin:miter;stroke-opacity:1"
       x="640.35834"
       y="533.66638"
       id="text8927-9-0"
       sodipodi:linespacing="125%"><tspan
         sodipodi:role="line"
         id="tspan8929-4-6"
         x="640.35834"
         y="533.66638">RNN</tspan></text>
  </g>
</svg>
