<?xml version="1.0" encoding="UTF-8" standalone="no"?>
<!-- Created with Inkscape (http://www.inkscape.org/) -->

<svg
   xmlns:dc="http://purl.org/dc/elements/1.1/"
   xmlns:cc="http://creativecommons.org/ns#"
   xmlns:rdf="http://www.w3.org/1999/02/22-rdf-syntax-ns#"
   xmlns:svg="http://www.w3.org/2000/svg"
   xmlns="http://www.w3.org/2000/svg"
   xmlns:xlink="http://www.w3.org/1999/xlink"
   xmlns:sodipodi="http://sodipodi.sourceforge.net/DTD/sodipodi-0.dtd"
   xmlns:inkscape="http://www.inkscape.org/namespaces/inkscape"
   width="152.94182mm"
   height="50.806293mm"
   viewBox="0 0 541.91981 180.0223"
   id="svg5542"
   version="1.1"
   inkscape:version="0.91 r13725"
   sodipodi:docname="simplernngattoexpanded-topath.svg">
  <defs
     id="defs5544">
    <marker
       inkscape:stockid="Arrow1Mend"
       orient="auto"
       refY="0"
       refX="0"
       id="marker4703"
       style="overflow:visible"
       inkscape:isstock="true">
      <path
         inkscape:connector-curvature="0"
         id="path4705"
         d="M 0,0 5,-5 -12.5,0 5,5 0,0 Z"
         style="fill:#000000;fill-opacity:1;fill-rule:evenodd;stroke:#000000;stroke-width:1pt;stroke-opacity:1"
         transform="matrix(-0.4,0,0,-0.4,-4,0)" />
    </marker>
    <marker
       inkscape:isstock="true"
       style="overflow:visible"
       id="marker4541"
       refX="0"
       refY="0"
       orient="auto"
       inkscape:stockid="Arrow1Mend"
       inkscape:collect="always">
      <path
         transform="matrix(-0.4,0,0,-0.4,-4,0)"
         style="fill:#000000;fill-opacity:1;fill-rule:evenodd;stroke:#000000;stroke-width:1pt;stroke-opacity:1"
         d="M 0,0 5,-5 -12.5,0 5,5 0,0 Z"
         id="path4543"
         inkscape:connector-curvature="0" />
    </marker>
    <marker
       inkscape:stockid="Arrow1Mend"
       orient="auto"
       refY="0"
       refX="0"
       id="marker13706"
       style="overflow:visible"
       inkscape:isstock="true"
       inkscape:collect="always">
      <path
         inkscape:connector-curvature="0"
         id="path13708"
         d="M 0,0 5,-5 -12.5,0 5,5 0,0 Z"
         style="fill:#000000;fill-opacity:1;fill-rule:evenodd;stroke:#000000;stroke-width:1pt;stroke-opacity:1"
         transform="matrix(-0.4,0,0,-0.4,-4,0)" />
    </marker>
    <marker
       inkscape:stockid="Arrow1Mend"
       orient="auto"
       refY="0"
       refX="0"
       id="marker13510"
       style="overflow:visible"
       inkscape:isstock="true">
      <path
         inkscape:connector-curvature="0"
         id="path13512"
         d="M 0,0 5,-5 -12.5,0 5,5 0,0 Z"
         style="fill:#000000;fill-opacity:1;fill-rule:evenodd;stroke:#000000;stroke-width:1pt;stroke-opacity:1"
         transform="matrix(-0.4,0,0,-0.4,-4,0)" />
    </marker>
    <marker
       inkscape:stockid="Arrow1Mend"
       orient="auto"
       refY="0"
       refX="0"
       id="marker13320"
       style="overflow:visible"
       inkscape:isstock="true">
      <path
         inkscape:connector-curvature="0"
         id="path13322"
         d="M 0,0 5,-5 -12.5,0 5,5 0,0 Z"
         style="fill:#000000;fill-opacity:1;fill-rule:evenodd;stroke:#000000;stroke-width:1pt;stroke-opacity:1"
         transform="matrix(-0.4,0,0,-0.4,-4,0)" />
    </marker>
    <marker
       inkscape:stockid="Arrow1Mend"
       orient="auto"
       refY="0"
       refX="0"
       id="marker13136"
       style="overflow:visible"
       inkscape:isstock="true">
      <path
         inkscape:connector-curvature="0"
         id="path13138"
         d="M 0,0 5,-5 -12.5,0 5,5 0,0 Z"
         style="fill:#000000;fill-opacity:1;fill-rule:evenodd;stroke:#000000;stroke-width:1pt;stroke-opacity:1"
         transform="matrix(-0.4,0,0,-0.4,-4,0)" />
    </marker>
    <marker
       inkscape:stockid="Arrow1Mend"
       orient="auto"
       refY="0"
       refX="0"
       id="marker12958"
       style="overflow:visible"
       inkscape:isstock="true">
      <path
         inkscape:connector-curvature="0"
         id="path12960"
         d="M 0,0 5,-5 -12.5,0 5,5 0,0 Z"
         style="fill:#000000;fill-opacity:1;fill-rule:evenodd;stroke:#000000;stroke-width:1pt;stroke-opacity:1"
         transform="matrix(-0.4,0,0,-0.4,-4,0)" />
    </marker>
    <marker
       inkscape:stockid="Arrow1Mend"
       orient="auto"
       refY="0"
       refX="0"
       id="marker12786"
       style="overflow:visible"
       inkscape:isstock="true">
      <path
         inkscape:connector-curvature="0"
         id="path12788"
         d="M 0,0 5,-5 -12.5,0 5,5 0,0 Z"
         style="fill:#000000;fill-opacity:1;fill-rule:evenodd;stroke:#000000;stroke-width:1pt;stroke-opacity:1"
         transform="matrix(-0.4,0,0,-0.4,-4,0)" />
    </marker>
    <linearGradient
       inkscape:collect="always"
       id="linearGradient12580">
      <stop
         style="stop-color:#ffffff;stop-opacity:1;"
         offset="0"
         id="stop12582" />
      <stop
         style="stop-color:#ffffff;stop-opacity:0;"
         offset="1"
         id="stop12584" />
    </linearGradient>
    <marker
       inkscape:isstock="true"
       style="overflow:visible"
       id="marker6781"
       refX="0"
       refY="0"
       orient="auto"
       inkscape:stockid="Arrow1Mend"
       inkscape:collect="always">
      <path
         transform="matrix(-0.4,0,0,-0.4,-4,0)"
         style="fill:#000000;fill-opacity:1;fill-rule:evenodd;stroke:#000000;stroke-width:1pt;stroke-opacity:1"
         d="M 0,0 5,-5 -12.5,0 5,5 0,0 Z"
         id="path6783"
         inkscape:connector-curvature="0" />
    </marker>
    <marker
       inkscape:isstock="true"
       style="overflow:visible"
       id="marker6739"
       refX="0"
       refY="0"
       orient="auto"
       inkscape:stockid="Arrow1Mend">
      <path
         transform="matrix(-0.4,0,0,-0.4,-4,0)"
         style="fill:#000000;fill-opacity:1;fill-rule:evenodd;stroke:#000000;stroke-width:1pt;stroke-opacity:1"
         d="M 0,0 5,-5 -12.5,0 5,5 0,0 Z"
         id="path6741"
         inkscape:connector-curvature="0" />
    </marker>
    <marker
       inkscape:stockid="Arrow1Lend"
       orient="auto"
       refY="0"
       refX="0"
       id="Arrow1Lend"
       style="overflow:visible"
       inkscape:isstock="true">
      <path
         id="path6434"
         d="M 0,0 5,-5 -12.5,0 5,5 0,0 Z"
         style="fill:#000000;fill-opacity:1;fill-rule:evenodd;stroke:#000000;stroke-width:1pt;stroke-opacity:1"
         transform="matrix(-0.8,0,0,-0.8,-10,0)"
         inkscape:connector-curvature="0" />
    </marker>
    <marker
       inkscape:isstock="true"
       style="overflow:visible"
       id="marker6739-9"
       refX="0"
       refY="0"
       orient="auto"
       inkscape:stockid="Arrow1Mend">
      <path
         transform="matrix(-0.4,0,0,-0.4,-4,0)"
         style="fill:#000000;fill-opacity:1;fill-rule:evenodd;stroke:#000000;stroke-width:1pt;stroke-opacity:1"
         d="M 0,0 5,-5 -12.5,0 5,5 0,0 Z"
         id="path6741-2"
         inkscape:connector-curvature="0" />
    </marker>
    <marker
       inkscape:isstock="true"
       style="overflow:visible"
       id="marker6739-1"
       refX="0"
       refY="0"
       orient="auto"
       inkscape:stockid="Arrow1Mend">
      <path
         transform="matrix(-0.4,0,0,-0.4,-4,0)"
         style="fill:#000000;fill-opacity:1;fill-rule:evenodd;stroke:#000000;stroke-width:1pt;stroke-opacity:1"
         d="M 0,0 5,-5 -12.5,0 5,5 0,0 Z"
         id="path6741-29"
         inkscape:connector-curvature="0" />
    </marker>
    <marker
       inkscape:isstock="true"
       style="overflow:visible"
       id="marker6739-1-1"
       refX="0"
       refY="0"
       orient="auto"
       inkscape:stockid="Arrow1Mend">
      <path
         transform="matrix(-0.4,0,0,-0.4,-4,0)"
         style="fill:#000000;fill-opacity:1;fill-rule:evenodd;stroke:#000000;stroke-width:1pt;stroke-opacity:1"
         d="M 0,0 5,-5 -12.5,0 5,5 0,0 Z"
         id="path6741-29-0"
         inkscape:connector-curvature="0" />
    </marker>
    <marker
       inkscape:isstock="true"
       style="overflow:visible"
       id="marker6739-9-2"
       refX="0"
       refY="0"
       orient="auto"
       inkscape:stockid="Arrow1Mend">
      <path
         transform="matrix(-0.4,0,0,-0.4,-4,0)"
         style="fill:#000000;fill-opacity:1;fill-rule:evenodd;stroke:#000000;stroke-width:1pt;stroke-opacity:1"
         d="M 0,0 5,-5 -12.5,0 5,5 0,0 Z"
         id="path6741-2-0"
         inkscape:connector-curvature="0" />
    </marker>
    <marker
       inkscape:isstock="true"
       style="overflow:visible"
       id="marker6739-5"
       refX="0"
       refY="0"
       orient="auto"
       inkscape:stockid="Arrow1Mend">
      <path
         transform="matrix(-0.4,0,0,-0.4,-4,0)"
         style="fill:#000000;fill-opacity:1;fill-rule:evenodd;stroke:#000000;stroke-width:1pt;stroke-opacity:1"
         d="M 0,0 5,-5 -12.5,0 5,5 0,0 Z"
         id="path6741-5"
         inkscape:connector-curvature="0" />
    </marker>
    <marker
       inkscape:isstock="true"
       style="overflow:visible"
       id="marker6739-1-1-7"
       refX="0"
       refY="0"
       orient="auto"
       inkscape:stockid="Arrow1Mend">
      <path
         transform="matrix(-0.4,0,0,-0.4,-4,0)"
         style="fill:#000000;fill-opacity:1;fill-rule:evenodd;stroke:#000000;stroke-width:1pt;stroke-opacity:1"
         d="M 0,0 5,-5 -12.5,0 5,5 0,0 Z"
         id="path6741-29-0-1"
         inkscape:connector-curvature="0" />
    </marker>
    <marker
       inkscape:isstock="true"
       style="overflow:visible"
       id="marker6739-9-2-7"
       refX="0"
       refY="0"
       orient="auto"
       inkscape:stockid="Arrow1Mend">
      <path
         transform="matrix(-0.4,0,0,-0.4,-4,0)"
         style="fill:#000000;fill-opacity:1;fill-rule:evenodd;stroke:#000000;stroke-width:1pt;stroke-opacity:1"
         d="M 0,0 5,-5 -12.5,0 5,5 0,0 Z"
         id="path6741-2-0-2"
         inkscape:connector-curvature="0" />
    </marker>
    <marker
       inkscape:isstock="true"
       style="overflow:visible"
       id="marker6739-5-1"
       refX="0"
       refY="0"
       orient="auto"
       inkscape:stockid="Arrow1Mend">
      <path
         transform="matrix(-0.4,0,0,-0.4,-4,0)"
         style="fill:#000000;fill-opacity:1;fill-rule:evenodd;stroke:#000000;stroke-width:1pt;stroke-opacity:1"
         d="M 0,0 5,-5 -12.5,0 5,5 0,0 Z"
         id="path6741-5-0"
         inkscape:connector-curvature="0" />
    </marker>
    <marker
       inkscape:isstock="true"
       style="overflow:visible"
       id="marker6739-1-5"
       refX="0"
       refY="0"
       orient="auto"
       inkscape:stockid="Arrow1Mend">
      <path
         transform="matrix(-0.4,0,0,-0.4,-4,0)"
         style="fill:#000000;fill-opacity:1;fill-rule:evenodd;stroke:#000000;stroke-width:1pt;stroke-opacity:1"
         d="M 0,0 5,-5 -12.5,0 5,5 0,0 Z"
         id="path6741-29-9"
         inkscape:connector-curvature="0" />
    </marker>
    <marker
       inkscape:isstock="true"
       style="overflow:visible"
       id="marker6739-9-0"
       refX="0"
       refY="0"
       orient="auto"
       inkscape:stockid="Arrow1Mend">
      <path
         transform="matrix(-0.4,0,0,-0.4,-4,0)"
         style="fill:#000000;fill-opacity:1;fill-rule:evenodd;stroke:#000000;stroke-width:1pt;stroke-opacity:1"
         d="M 0,0 5,-5 -12.5,0 5,5 0,0 Z"
         id="path6741-2-9"
         inkscape:connector-curvature="0" />
    </marker>
    <marker
       inkscape:isstock="true"
       style="overflow:visible"
       id="marker6739-7"
       refX="0"
       refY="0"
       orient="auto"
       inkscape:stockid="Arrow1Mend">
      <path
         transform="matrix(-0.4,0,0,-0.4,-4,0)"
         style="fill:#000000;fill-opacity:1;fill-rule:evenodd;stroke:#000000;stroke-width:1pt;stroke-opacity:1"
         d="M 0,0 5,-5 -12.5,0 5,5 0,0 Z"
         id="path6741-1"
         inkscape:connector-curvature="0" />
    </marker>
    <marker
       inkscape:isstock="true"
       style="overflow:visible"
       id="marker6739-9-2-7-9"
       refX="0"
       refY="0"
       orient="auto"
       inkscape:stockid="Arrow1Mend">
      <path
         transform="matrix(-0.4,0,0,-0.4,-4,0)"
         style="fill:#000000;fill-opacity:1;fill-rule:evenodd;stroke:#000000;stroke-width:1pt;stroke-opacity:1"
         d="M 0,0 5,-5 -12.5,0 5,5 0,0 Z"
         id="path6741-2-0-2-6"
         inkscape:connector-curvature="0" />
    </marker>
    <marker
       inkscape:isstock="true"
       style="overflow:visible"
       id="marker6739-1-5-3"
       refX="0"
       refY="0"
       orient="auto"
       inkscape:stockid="Arrow1Mend">
      <path
         transform="matrix(-0.4,0,0,-0.4,-4,0)"
         style="fill:#000000;fill-opacity:1;fill-rule:evenodd;stroke:#000000;stroke-width:1pt;stroke-opacity:1"
         d="M 0,0 5,-5 -12.5,0 5,5 0,0 Z"
         id="path6741-29-9-3"
         inkscape:connector-curvature="0" />
    </marker>
    <linearGradient
       inkscape:collect="always"
       xlink:href="#linearGradient12580"
       id="linearGradient12586"
       x1="386.38336"
       y1="4.6198144"
       x2="649.52808"
       y2="49.066528"
       gradientUnits="userSpaceOnUse" />
    <linearGradient
       inkscape:collect="always"
       xlink:href="#linearGradient12580"
       id="linearGradient3561"
       gradientUnits="userSpaceOnUse"
       x1="386.38336"
       y1="4.6198144"
       x2="649.52808"
       y2="49.066528" />
    <linearGradient
       inkscape:collect="always"
       xlink:href="#linearGradient12580"
       id="linearGradient3563"
       gradientUnits="userSpaceOnUse"
       x1="386.38336"
       y1="4.6198144"
       x2="649.52808"
       y2="49.066528" />
    <linearGradient
       inkscape:collect="always"
       xlink:href="#linearGradient12580"
       id="linearGradient3565"
       gradientUnits="userSpaceOnUse"
       x1="386.38336"
       y1="4.6198144"
       x2="649.52808"
       y2="49.066528" />
  </defs>
  <sodipodi:namedview
     id="base"
     pagecolor="#ffffff"
     bordercolor="#666666"
     borderopacity="1.0"
     inkscape:pageopacity="0.0"
     inkscape:pageshadow="2"
     inkscape:zoom="1.4"
     inkscape:cx="300.94929"
     inkscape:cy="63.186901"
     inkscape:document-units="px"
     inkscape:current-layer="layer1"
     showgrid="false"
     showguides="false"
     inkscape:window-width="2560"
     inkscape:window-height="1376"
     inkscape:window-x="0"
     inkscape:window-y="27"
     inkscape:window-maximized="1"
     fit-margin-top="0.1"
     fit-margin-left="0.1"
     fit-margin-right="0.1"
     fit-margin-bottom="0.1" />
  <metadata
     id="metadata5547">
    <rdf:RDF>
      <cc:Work
         rdf:about="">
        <dc:format>image/svg+xml</dc:format>
        <dc:type
           rdf:resource="http://purl.org/dc/dcmitype/StillImage" />
        <dc:title></dc:title>
      </cc:Work>
    </rdf:RDF>
  </metadata>
  <g
     inkscape:label="Layer 1"
     inkscape:groupmode="layer"
     id="layer1"
     transform="translate(-157.5615,-441.44769)">
    <g
       transform="translate(44.687601,447.28082)"
       style="font-style:normal;font-weight:normal;font-size:15px;line-height:125%;font-family:sans-serif;letter-spacing:0px;word-spacing:0px;fill:#000000;fill-opacity:1;stroke:none;stroke-width:1px;stroke-linecap:butt;stroke-linejoin:miter;stroke-opacity:1"
       id="flowRoot12588">
      <path
         d="m 395.08447,19.741065 q 0,-2.197266 -0.91186,-3.405762 -0.90088,-1.208496 -2.53784,-1.208496 -1.62598,0 -2.53785,1.208496 -0.90088,1.208496 -0.90088,3.405762 0,2.186279 0.90088,3.394775 0.91187,1.208497 2.53785,1.208497 1.63696,0 2.53784,-1.208497 0.91186,-1.208496 0.91186,-3.394775 z m 2.02149,4.768067 q 0,3.142089 -1.39527,4.669189 -1.39526,1.538086 -4.27368,1.538086 -1.06567,0 -2.0105,-0.164795 -0.94482,-0.153809 -1.83471,-0.483398 l 0,-1.966553 q 0.88989,0.483398 1.75781,0.714111 0.86792,0.230713 1.7688,0.230713 1.98852,0 2.97729,-1.043701 0.98877,-1.032715 0.98877,-3.131104 l 0,-0.999756 q -0.62622,1.087647 -1.604,1.625977 -0.97778,0.53833 -2.34009,0.53833 -2.26318,0 -3.64746,-1.724853 -1.38428,-1.724854 -1.38428,-4.570313 0,-2.856445 1.38428,-4.581299 1.38428,-1.724853 3.64746,-1.724853 1.36231,0 2.34009,0.53833 0.97778,0.53833 1.604,1.625976 l 0,-1.867675 2.02149,0 0,10.777588 z"
         style="font-size:22.5px;fill:#ff0000;fill-opacity:1"
         id="path4662"
         inkscape:connector-curvature="0" />
      <path
         d="m 449.84033,19.850928 q -2.44995,0 -3.39477,0.560303 -0.94483,0.560303 -0.94483,1.911621 0,1.07666 0.70313,1.713867 0.71411,0.626221 1.93359,0.626221 1.68091,0 2.69165,-1.186523 1.02173,-1.19751 1.02173,-3.175049 l 0,-0.45044 -2.0105,0 z m 4.03198,-0.834961 0,7.020264 -2.02148,0 0,-1.867676 q -0.69214,1.120606 -1.72485,1.658936 -1.03272,0.527344 -2.52686,0.527344 -1.88965,0 -3.01025,-1.054688 -1.10962,-1.065674 -1.10962,-2.845459 0,-2.076416 1.38428,-3.131103 1.39526,-1.054688 4.15283,-1.054688 l 2.83447,0 0,-0.197754 q 0,-1.395263 -0.92285,-2.15332 -0.91187,-0.769043 -2.5708,-0.769043 -1.05469,0 -2.05445,0.252685 -0.99975,0.252686 -1.9226,0.758057 l 0,-1.867676 q 1.10962,-0.428466 2.15332,-0.637207 1.0437,-0.219726 2.03247,-0.219726 2.66968,0 3.98804,1.384277 1.31835,1.384277 1.31835,4.196777 z"
         style="font-size:22.5px;fill:#ff0000;fill-opacity:1"
         id="path4664"
         inkscape:connector-curvature="0" />
      <path
         d="m 503.02515,10.237891 0,3.493653 4.16381,0 0,1.571045 -4.16381,0 0,6.679687 q 0,1.505127 0.40649,1.933594 0.41748,0.428467 1.68091,0.428467 l 2.07641,0 0,1.691894 -2.07641,0 q -2.34009,0 -3.22998,-0.86792 -0.88989,-0.878906 -0.88989,-3.186035 l 0,-6.679687 -1.48316,0 0,-1.571045 1.48316,0 0,-3.493653 2.03247,0 z"
         style="font-size:22.5px;fill:#ff0000;fill-opacity:1"
         id="path4666"
         inkscape:connector-curvature="0" />
      <path
         d="m 554.83667,10.237891 0,3.493653 4.16382,0 0,1.571045 -4.16382,0 0,6.679687 q 0,1.505127 0.40649,1.933594 0.41748,0.428467 1.68091,0.428467 l 2.07642,0 0,1.691894 -2.07642,0 q -2.34009,0 -3.22998,-0.86792 -0.88989,-0.878906 -0.88989,-3.186035 l 0,-6.679687 -1.48316,0 0,-1.571045 1.48316,0 0,-3.493653 2.03247,0 z"
         style="font-size:22.5px;fill:#ff0000;fill-opacity:1"
         id="path4668"
         inkscape:connector-curvature="0" />
      <path
         d="m 609.41675,15.14878 q -1.62598,0 -2.5708,1.274414 -0.94483,1.263428 -0.94483,3.47168 0,2.208252 0.93384,3.482666 0.94483,1.263427 2.58179,1.263427 1.61499,0 2.55981,-1.274414 0.94483,-1.274414 0.94483,-3.471679 0,-2.18628 -0.94483,-3.460694 -0.94482,-1.2854 -2.55981,-1.2854 z m 0,-1.713867 q 2.63672,0 4.14184,1.713867 1.50513,1.713867 1.50513,4.746094 0,3.02124 -1.50513,4.746093 -1.50512,1.713868 -4.14184,1.713868 -2.64771,0 -4.15283,-1.713868 -1.49414,-1.724853 -1.49414,-4.746093 0,-3.032227 1.49414,-4.746094 1.50512,-1.713867 4.15283,-1.713867 z"
         style="font-size:22.5px;fill:#ff0000;fill-opacity:1"
         id="path4670"
         inkscape:connector-curvature="0" />
    </g>
    <g
       id="g56840"
       transform="translate(-90.550031,301.79177)">
      <path
         style="fill:#dedede;fill-opacity:1;fill-rule:evenodd;stroke:none;stroke-width:0.99621338px;stroke-linecap:butt;stroke-linejoin:miter;stroke-opacity:1"
         d="m 389.6528,141.78191 400.0242,0 0,175.77032 -400.0242,0 z"
         id="rect56828" />
      <path
         style="fill:none;fill-rule:evenodd;stroke:#0000ff;stroke-width:0.99828261px;stroke-linecap:butt;stroke-linejoin:miter;stroke-opacity:1"
         d="m 336.65244,142.32127 52.61892,0 0,174.72492 -52.61892,0 z"
         id="rect56826" />
    </g>
    <path
       transform="scale(1,-1)"
       style="fill:none;fill-opacity:1;fill-rule:evenodd;stroke:#000000;stroke-width:0.65299684px;stroke-linecap:butt;stroke-linejoin:miter;stroke-opacity:1"
       d="m 258.19595,-544.8642 28.91843,0 0,28.91843 -28.91843,0 z"
       id="rect5550"
       inkscape:connector-curvature="0" />
    <circle
       style="fill:none;fill-opacity:1;stroke:#000000;stroke-width:0.66284519;stroke-opacity:1"
       id="path6404"
       cx="272.48865"
       cy="467.23135"
       r="0" />
    <circle
       style="fill:none;fill-opacity:1;stroke:#000000;stroke-width:0.68532217;stroke-opacity:1"
       id="path6404-5"
       cx="272.74118"
       cy="593.75293"
       r="0" />
    <g
       style="font-style:normal;font-weight:normal;font-size:15px;line-height:125%;font-family:sans-serif;letter-spacing:0px;word-spacing:0px;fill:#000000;fill-opacity:1;stroke:none;stroke-width:1px;stroke-linecap:butt;stroke-linejoin:miter;stroke-opacity:1"
       id="o">
      <path
         d="m 281.10986,493.3822 q -1.08398,0 -1.71386,0.84961 -0.62989,0.84229 -0.62989,2.31445 0,1.47217 0.62256,2.32178 0.62988,0.84229 1.72119,0.84229 1.07666,0 1.70655,-0.84961 0.62988,-0.84961 0.62988,-2.31446 0,-1.45751 -0.62988,-2.30712 -0.62989,-0.85694 -1.70655,-0.85694 z m 0,-1.14258 q 1.75782,0 2.76123,1.14258 1.00342,1.14258 1.00342,3.16406 0,2.01416 -1.00342,3.16407 -1.00341,1.14258 -2.76123,1.14258 -1.76513,0 -2.76855,-1.14258 -0.9961,-1.14991 -0.9961,-3.16407 0,-2.02148 0.9961,-3.16406 1.00342,-1.14258 2.76855,-1.14258 z"
         id="path4801"
         inkscape:connector-curvature="0" />
      <path
         d="m 288.78674,497.16589 q -0.74267,0 -1.11877,0.73316 -0.37134,0.72839 -0.37134,2.1947 0,1.46155 0.37134,2.1947 0.3761,0.7284 1.11877,0.7284 0.74744,0 1.11878,-0.7284 0.3761,-0.73315 0.3761,-2.1947 0,-1.46631 -0.3761,-2.1947 -0.37134,-0.73316 -1.11878,-0.73316 z m 0,-0.76172 q 1.19495,0 1.82337,0.94739 0.63318,0.94263 0.63318,2.74219 0,1.7948 -0.63318,2.74219 -0.62842,0.94262 -1.82337,0.94262 -1.19494,0 -1.82812,-0.94262 -0.62842,-0.94739 -0.62842,-2.74219 0,-1.79956 0.62842,-2.74219 0.63318,-0.94739 1.82812,-0.94739 z"
         style="font-size:64.99999762%;baseline-shift:sub"
         id="path4803"
         inkscape:connector-curvature="0" />
    </g>
    <g
       style="font-style:normal;font-weight:normal;font-size:15px;line-height:125%;font-family:sans-serif;letter-spacing:0px;word-spacing:0px;fill:#000000;fill-opacity:1;stroke:none;stroke-width:1px;stroke-linecap:butt;stroke-linejoin:miter;stroke-opacity:1"
       id="i">
      <path
         d="m 277.93118,558.34985 1.34766,0 0,8.20313 -1.34766,0 0,-8.20313 z m 0,-3.19336 1.34766,0 0,1.70655 -1.34766,0 0,-1.70655 z"
         id="path4796"
         inkscape:connector-curvature="0" />
      <path
         d="m 283.77701,563.07837 q -0.74268,0 -1.11878,0.73315 -0.37133,0.7284 -0.37133,2.19471 0,1.46154 0.37133,2.1947 0.3761,0.72839 1.11878,0.72839 0.74743,0 1.11877,-0.72839 0.3761,-0.73316 0.3761,-2.1947 0,-1.46631 -0.3761,-2.19471 -0.37134,-0.73315 -1.11877,-0.73315 z m 0,-0.76172 q 1.19494,0 1.82336,0.94739 0.63318,0.94263 0.63318,2.74219 0,1.7948 -0.63318,2.74218 -0.62842,0.94263 -1.82336,0.94263 -1.19495,0 -1.82813,-0.94263 -0.62841,-0.94738 -0.62841,-2.74218 0,-1.79956 0.62841,-2.74219 0.63318,-0.94739 1.82813,-0.94739 z"
         style="font-size:64.99999762%;baseline-shift:sub"
         id="path4798"
         inkscape:connector-curvature="0" />
    </g>
    <g
       transform="matrix(1.4538618,0,0,1.4538618,165.428,436.50338)"
       style="font-style:normal;font-weight:normal;font-size:15px;line-height:125%;font-family:sans-serif;letter-spacing:0px;word-spacing:0px;fill:#000000;fill-opacity:1;stroke:none;stroke-width:1px;stroke-linecap:butt;stroke-linejoin:miter;stroke-opacity:1"
       id="flowRoot8961">
      <path
         d="m 5.4545898,16.923894 1.3476563,0 0,8.203125 -1.3476563,0 0,-8.203125 z m 0,-3.19336 1.3476563,0 0,1.706543 -1.3476563,0 0,-1.706543 z"
         id="path4779"
         inkscape:connector-curvature="0" />
      <path
         d="m 10.947754,14.594792 0,2.329102 2.775879,0 0,1.047363 -2.775879,0 0,4.453125 q 0,1.003418 0.270996,1.289062 0.27832,0.285645 1.120605,0.285645 l 1.384278,0 0,1.12793 -1.384278,0 q -1.560058,0 -2.15332,-0.578614 -0.5932616,-0.585937 -0.5932616,-2.124023 l 0,-4.453125 -0.9887695,0 0,-1.047363 0.9887695,0 0,-2.329102 1.3549806,0 z"
         id="path4781"
         inkscape:connector-curvature="0" />
      <path
         d="m 19.231445,21.003484 q -1.6333,0 -2.263183,0.373535 -0.629883,0.373535 -0.629883,1.274414 0,0.717773 0.46875,1.142578 0.476074,0.41748 1.289062,0.41748 1.120606,0 1.794434,-0.791015 0.681152,-0.79834 0.681152,-2.1167 l 0,-0.300292 -1.340332,0 z m 2.687989,-0.556641 0,4.680176 -1.347657,0 0,-1.245118 q -0.461425,0.747071 -1.149902,1.105958 -0.688477,0.351562 -1.68457,0.351562 -1.259766,0 -2.006836,-0.703125 -0.739746,-0.710449 -0.739746,-1.896973 0,-1.384277 0.922851,-2.087402 0.930176,-0.703125 2.768555,-0.703125 l 1.889648,0 0,-0.131836 q 0,-0.930176 -0.615234,-1.435547 -0.60791,-0.512695 -1.713867,-0.512695 -0.703125,0 -1.369629,0.168457 -0.666504,0.168457 -1.281738,0.505371 l 0,-1.245117 q 0.739746,-0.285645 1.435546,-0.424805 0.695801,-0.146484 1.354981,-0.146484 1.779785,0 2.658691,0.922851 0.878907,0.922852 0.878907,2.797852 z"
         id="path4783"
         inkscape:connector-curvature="0" />
      <path
         d="m 24.702637,13.730534 1.347656,0 0,11.396485 -1.347656,0 0,-11.396485 z"
         id="path4785"
         inkscape:connector-curvature="0" />
      <path
         d="m 28.862793,16.923894 1.347656,0 0,8.203125 -1.347656,0 0,-8.203125 z m 0,-3.19336 1.347656,0 0,1.706543 -1.347656,0 0,-1.706543 z"
         id="path4787"
         inkscape:connector-curvature="0" />
      <path
         d="m 36.750977,21.003484 q -1.633301,0 -2.263184,0.373535 -0.629883,0.373535 -0.629883,1.274414 0,0.717773 0.46875,1.142578 0.476074,0.41748 1.289063,0.41748 1.120605,0 1.794433,-0.791015 0.681153,-0.79834 0.681153,-2.1167 l 0,-0.300292 -1.340332,0 z m 2.687988,-0.556641 0,4.680176 -1.347656,0 0,-1.245118 q -0.461426,0.747071 -1.149903,1.105958 -0.688476,0.351562 -1.68457,0.351562 -1.259766,0 -2.006836,-0.703125 -0.739746,-0.710449 -0.739746,-1.896973 0,-1.384277 0.922851,-2.087402 0.930176,-0.703125 2.768555,-0.703125 l 1.889649,0 0,-0.131836 q 0,-0.930176 -0.615235,-1.435547 -0.60791,-0.512695 -1.713867,-0.512695 -0.703125,0 -1.369629,0.168457 -0.666504,0.168457 -1.281738,0.505371 l 0,-1.245117 q 0.739746,-0.285645 1.435547,-0.424805 0.6958,-0.146484 1.35498,-0.146484 1.779785,0 2.658692,0.922851 0.878906,0.922852 0.878906,2.797852 z"
         id="path4789"
         inkscape:connector-curvature="0" />
      <path
         d="m 49.041016,20.175847 0,4.951172 -1.347657,0 0,-4.907227 q 0,-1.164551 -0.454101,-1.743164 -0.454102,-0.578613 -1.362305,-0.578613 -1.091308,0 -1.721191,0.695801 -0.629883,0.6958 -0.629883,1.896972 l 0,4.636231 -1.354981,0 0,-8.203125 1.354981,0 0,1.274414 q 0.483398,-0.739746 1.135254,-1.105957 0.659179,-0.366211 1.516113,-0.366211 1.413574,0 2.138672,0.878906 0.725098,0.871582 0.725098,2.570801 z"
         id="path4791"
         inkscape:connector-curvature="0" />
      <path
         d="m 52.087891,23.266667 1.54541,0 0,1.860352 -1.54541,0 0,-1.860352 z m 0,-5.895996 1.54541,0 0,1.860352 -1.54541,0 0,-1.860352 z"
         id="path4793"
         inkscape:connector-curvature="0" />
    </g>
    <g
       transform="matrix(1.4538618,0,0,1.4538618,150.83748,558.44134)"
       style="font-style:normal;font-weight:normal;font-size:15px;line-height:125%;font-family:sans-serif;letter-spacing:0px;word-spacing:0px;fill:#000000;fill-opacity:1;stroke:none;stroke-width:1px;stroke-linecap:butt;stroke-linejoin:miter;stroke-opacity:1"
       id="flowRoot8961-6">
      <path
         d="m 10.852539,20.930241 q 0,-1.464843 -0.60791,-2.270507 -0.600586,-0.805665 -1.6918946,-0.805665 -1.0839844,0 -1.6918946,0.805665 -0.6005859,0.805664 -0.6005859,2.270507 0,1.45752 0.6005859,2.263184 0.6079102,0.805664 1.6918946,0.805664 1.0913086,0 1.6918946,-0.805664 0.60791,-0.805664 0.60791,-2.263184 z m 1.347656,3.178711 q 0,2.094727 -0.930175,3.112793 -0.930176,1.025391 -2.8491216,1.025391 -0.7104492,0 -1.340332,-0.109863 -0.6298828,-0.102539 -1.2231445,-0.322266 l 0,-1.311035 q 0.5932617,0.322265 1.171875,0.476074 0.5786133,0.153809 1.1791992,0.153809 1.3256836,0 1.9848629,-0.695801 0.65918,-0.688477 0.65918,-2.087403 l 0,-0.666503 q -0.41748,0.725097 -1.0693359,1.083984 -0.6518554,0.358887 -1.5600586,0.358887 -1.508789,0 -2.4316406,-1.149903 -0.9228516,-1.149902 -0.9228516,-3.046875 0,-1.904297 0.9228516,-3.054199 0.9228516,-1.149902 2.4316406,-1.149902 0.9082032,0 1.5600586,0.358886 0.6518559,0.358887 1.0693359,1.083985 l 0,-1.245117 1.347656,0 0,7.185058 z"
         id="path4764"
         inkscape:connector-curvature="0" />
      <path
         d="m 21.992676,20.688542 0,0.65918 -6.196289,0 q 0.08789,1.391601 0.834961,2.124023 0.754394,0.725098 2.094726,0.725098 0.776367,0 1.501465,-0.19043 0.732422,-0.190429 1.450195,-0.571289 l 0,1.274414 q -0.725097,0.307617 -1.486816,0.46875 -0.761719,0.161133 -1.54541,0.161133 -1.962891,0 -3.112793,-1.142578 -1.142578,-1.142578 -1.142578,-3.09082 0,-2.014161 1.083984,-3.19336 1.091309,-1.186523 2.937012,-1.186523 1.655273,0 2.614746,1.069336 0.966797,1.062011 0.966797,2.893066 z M 20.64502,20.293034 q -0.01465,-1.105957 -0.622559,-1.765136 -0.600586,-0.65918 -1.59668,-0.65918 -1.127929,0 -1.809082,0.637207 -0.673828,0.637207 -0.776367,1.794434 l 4.804688,-0.0073 z"
         id="path4766"
         inkscape:connector-curvature="0" />
      <path
         d="m 28.958008,18.183659 q -0.227051,-0.131836 -0.498047,-0.190429 -0.263672,-0.06592 -0.585938,-0.06592 -1.142578,0 -1.757812,0.74707 -0.60791,0.739746 -0.60791,2.131348 l 0,4.321289 -1.354981,0 0,-8.203125 1.354981,0 0,1.274414 q 0.424804,-0.747071 1.105957,-1.105957 0.681152,-0.366211 1.655273,-0.366211 0.13916,0 0.307617,0.02197 0.168457,0.01465 0.373536,0.05127 l 0.0073,1.384277 z"
         id="path4768"
         inkscape:connector-curvature="0" />
      <path
         d="m 36.509277,18.498601 q 0.505371,-0.908203 1.208496,-1.340332 0.703125,-0.432129 1.655274,-0.432129 1.281738,0 1.977539,0.900879 0.695801,0.893554 0.695801,2.548828 l 0,4.951172 -1.354981,0 0,-4.907227 q 0,-1.179199 -0.41748,-1.750488 -0.417481,-0.571289 -1.274414,-0.571289 -1.047364,0 -1.655274,0.695801 -0.60791,0.6958 -0.60791,1.896972 l 0,4.636231 -1.35498,0 0,-4.907227 q 0,-1.186523 -0.417481,-1.750488 -0.41748,-0.571289 -1.289062,-0.571289 -1.032715,0 -1.640625,0.703125 -0.60791,0.695801 -0.60791,1.889648 l 0,4.636231 -1.354981,0 0,-8.203125 1.354981,0 0,1.274414 q 0.461425,-0.754395 1.105957,-1.113282 0.644531,-0.358886 1.530761,-0.358886 0.893555,0 1.516114,0.454101 0.629882,0.454102 0.930175,1.31836 z"
         id="path4770"
         inkscape:connector-curvature="0" />
      <path
         d="m 48.469727,21.003484 q -1.633301,0 -2.263184,0.373535 -0.629883,0.373535 -0.629883,1.274414 0,0.717773 0.46875,1.142578 0.476074,0.41748 1.289063,0.41748 1.120605,0 1.794433,-0.791015 0.681153,-0.79834 0.681153,-2.1167 l 0,-0.300292 -1.340332,0 z m 2.687988,-0.556641 0,4.680176 -1.347656,0 0,-1.245118 q -0.461426,0.747071 -1.149903,1.105958 -0.688476,0.351562 -1.68457,0.351562 -1.259766,0 -2.006836,-0.703125 -0.739746,-0.710449 -0.739746,-1.896973 0,-1.384277 0.922851,-2.087402 0.930176,-0.703125 2.768555,-0.703125 l 1.889649,0 0,-0.131836 q 0,-0.930176 -0.615235,-1.435547 -0.60791,-0.512695 -1.713867,-0.512695 -0.703125,0 -1.369629,0.168457 -0.666504,0.168457 -1.281738,0.505371 l 0,-1.245117 q 0.739746,-0.285645 1.435547,-0.424805 0.6958,-0.146484 1.35498,-0.146484 1.779785,0 2.658692,0.922851 0.878906,0.922852 0.878906,2.797852 z"
         id="path4772"
         inkscape:connector-curvature="0" />
      <path
         d="m 60.759766,20.175847 0,4.951172 -1.347657,0 0,-4.907227 q 0,-1.164551 -0.454101,-1.743164 -0.454102,-0.578613 -1.362305,-0.578613 -1.091308,0 -1.721191,0.695801 -0.629883,0.6958 -0.629883,1.896972 l 0,4.636231 -1.354981,0 0,-8.203125 1.354981,0 0,1.274414 q 0.483398,-0.739746 1.135254,-1.105957 0.659179,-0.366211 1.516113,-0.366211 1.413574,0 2.138672,0.878906 0.725098,0.871582 0.725098,2.570801 z"
         id="path4774"
         inkscape:connector-curvature="0" />
      <path
         d="m 63.806641,23.266667 1.54541,0 0,1.860352 -1.54541,0 0,-1.860352 z m 0,-5.895996 1.54541,0 0,1.860352 -1.54541,0 0,-1.860352 z"
         id="path4776"
         inkscape:connector-curvature="0" />
    </g>
    <path
       transform="scale(1,-1)"
       style="fill:none;fill-opacity:1;fill-rule:evenodd;stroke:#000000;stroke-width:0.65299684px;stroke-linecap:butt;stroke-linejoin:miter;stroke-opacity:1"
       d="m 313.91156,-544.37421 28.91843,0 0,28.91843 -28.91843,0 z"
       id="rect5550-9"
       inkscape:connector-curvature="0" />
    <path
       style="fill:none;fill-opacity:1;stroke:#000000;stroke-width:0.66284519;stroke-opacity:1"
       d="m 342.7675,466.74139 a 14.563251,14.563251 0 0 1 -14.56325,14.56325 14.563251,14.563251 0 0 1 -14.56325,-14.56325 14.563251,14.563251 0 0 1 14.56325,-14.56325 14.563251,14.563251 0 0 1 14.56325,14.56325 z"
       id="path6404-4"
       inkscape:connector-curvature="0" />
    <path
       style="fill:none;fill-opacity:1;stroke:#000000;stroke-width:0.68532217;stroke-opacity:1"
       d="m 343.51388,593.26294 a 15.057089,15.057089 0 0 1 -15.05709,15.05709 15.057089,15.057089 0 0 1 -15.05709,-15.05709 15.057089,15.057089 0 0 1 15.05709,-15.05709 15.057089,15.057089 0 0 1 15.05709,15.05709 z"
       id="path6404-5-7"
       inkscape:connector-curvature="0" />
    <g
       style="font-style:normal;font-weight:normal;font-size:15px;line-height:125%;font-family:sans-serif;letter-spacing:0px;word-spacing:0px;fill:#000000;fill-opacity:1;stroke:none;stroke-width:1px;stroke-linecap:butt;stroke-linejoin:miter;stroke-opacity:1"
       id="o-8">
      <path
         d="m 336.82547,492.89221 q -1.08398,0 -1.71387,0.84961 -0.62988,0.84229 -0.62988,2.31445 0,1.47217 0.62256,2.32178 0.62988,0.84229 1.72119,0.84229 1.07666,0 1.70654,-0.84961 0.62989,-0.84961 0.62989,-2.31446 0,-1.45752 -0.62989,-2.30712 -0.62988,-0.85694 -1.70654,-0.85694 z m 0,-1.14258 q 1.75781,0 2.76123,1.14258 1.00342,1.14258 1.00342,3.16406 0,2.01416 -1.00342,3.16407 -1.00342,1.14258 -2.76123,1.14258 -1.76514,0 -2.76855,-1.14258 -0.9961,-1.14991 -0.9961,-3.16407 0,-2.02148 0.9961,-3.16406 1.00341,-1.14258 2.76855,-1.14258 z"
         id="path4756"
         inkscape:connector-curvature="0" />
      <path
         d="m 342.61234,502.34119 1.57104,0 0,-5.42249 -1.70911,0.34277 0,-0.87597 1.69959,-0.34278 0.96167,0 0,6.29847 1.57104,0 0,0.80932 -4.09423,0 0,-0.80932 z"
         style="font-size:64.99999762%;baseline-shift:sub"
         id="path4758"
         inkscape:connector-curvature="0" />
    </g>
    <g
       style="font-style:normal;font-weight:normal;font-size:15px;line-height:125%;font-family:sans-serif;letter-spacing:0px;word-spacing:0px;fill:#000000;fill-opacity:1;stroke:none;stroke-width:1px;stroke-linecap:butt;stroke-linejoin:miter;stroke-opacity:1"
       id="i-0">
      <path
         d="m 333.64679,557.85986 1.34766,0 0,8.20313 -1.34766,0 0,-8.20313 z m 0,-3.19336 1.34766,0 0,1.70655 -1.34766,0 0,-1.70655 z"
         id="path4751"
         inkscape:connector-curvature="0" />
      <path
         d="m 337.6026,568.25366 1.57105,0 0,-5.42248 -1.70911,0.34277 0,-0.87598 1.69958,-0.34277 0.96167,0 0,6.29846 1.57105,0 0,0.80933 -4.09424,0 0,-0.80933 z"
         style="font-size:64.99999762%;baseline-shift:sub"
         id="path4753"
         inkscape:connector-curvature="0" />
    </g>
    <path
       transform="scale(1,-1)"
       style="fill:none;fill-opacity:1;fill-rule:evenodd;stroke:#000000;stroke-width:0.65299684px;stroke-linecap:butt;stroke-linejoin:miter;stroke-opacity:1"
       d="m 367.36346,-544.16089 28.91843,0 0,28.91843 -28.91843,0 z"
       id="rect5550-3-8"
       inkscape:connector-curvature="0" />
    <path
       style="fill:none;fill-opacity:1;stroke:#000000;stroke-width:0.66284519;stroke-opacity:1"
       d="m 396.21941,466.52811 a 14.563251,14.563251 0 0 1 -14.56325,14.56325 14.563251,14.563251 0 0 1 -14.56325,-14.56325 14.563251,14.563251 0 0 1 14.56325,-14.56325 14.563251,14.563251 0 0 1 14.56325,14.56325 z"
       id="path6404-7-4"
       inkscape:connector-curvature="0" />
    <path
       style="fill:none;fill-opacity:1;stroke:#000000;stroke-width:0.68532217;stroke-opacity:1"
       d="m 396.96578,593.04962 a 15.057089,15.057089 0 0 1 -15.05709,15.05709 15.057089,15.057089 0 0 1 -15.05709,-15.05709 15.057089,15.057089 0 0 1 15.05709,-15.05709 15.057089,15.057089 0 0 1 15.05709,15.05709 z"
       id="path6404-5-5-3"
       inkscape:connector-curvature="0" />
    <g
       style="font-style:normal;font-weight:normal;font-size:15px;line-height:125%;font-family:sans-serif;letter-spacing:0px;word-spacing:0px;fill:#000000;fill-opacity:1;stroke:none;stroke-width:1px;stroke-linecap:butt;stroke-linejoin:miter;stroke-opacity:1"
       id="o-9-1">
      <path
         d="m 390.27737,492.67899 q -1.08398,0 -1.71386,0.8496 -0.62989,0.84229 -0.62989,2.31446 0,1.47217 0.62256,2.32178 0.62989,0.84228 1.72119,0.84228 1.07666,0 1.70655,-0.84961 0.62988,-0.84961 0.62988,-2.31445 0,-1.45752 -0.62988,-2.30713 -0.62989,-0.85693 -1.70655,-0.85693 z m 0,-1.14258 q 1.75782,0 2.76123,1.14258 1.00342,1.14257 1.00342,3.16406 0,2.01416 -1.00342,3.16406 -1.00341,1.14258 -2.76123,1.14258 -1.76513,0 -2.76855,-1.14258 -0.99609,-1.1499 -0.99609,-3.16406 0,-2.02149 0.99609,-3.16406 1.00342,-1.14258 2.76855,-1.14258 z"
         id="path4743"
         inkscape:connector-curvature="0" />
      <path
         d="m 396.72598,502.12796 3.35633,0 0,0.80933 -4.51319,0 0,-0.80933 q 0.54749,-0.56653 1.49011,-1.51868 0.94739,-0.95691 1.19019,-1.23303 0.46179,-0.51892 0.6427,-0.87598 0.18567,-0.36181 0.18567,-0.70935 0,-0.56652 -0.3999,-0.92358 -0.39514,-0.35706 -1.03308,-0.35706 -0.45227,0 -0.95691,0.15711 -0.49988,0.1571 -1.07117,0.47607 l 0,-0.97119 q 0.58081,-0.23327 1.08545,-0.35229 0.50464,-0.11902 0.92358,-0.11902 1.1045,0 1.76148,0.55224 0.65698,0.55225 0.65698,1.47583 0,0.43799 -0.16663,0.83313 -0.16186,0.39039 -0.59509,0.92359 -0.11902,0.13806 -0.75696,0.7998 -0.63794,0.65699 -1.79956,1.84241 z"
         style="font-size:64.99999762%;baseline-shift:sub"
         id="path4745"
         inkscape:connector-curvature="0" />
    </g>
    <g
       style="font-style:normal;font-weight:normal;font-size:15px;line-height:125%;font-family:sans-serif;letter-spacing:0px;word-spacing:0px;fill:#000000;fill-opacity:1;stroke:none;stroke-width:1px;stroke-linecap:butt;stroke-linejoin:miter;stroke-opacity:1"
       id="i-8-2">
      <path
         d="m 387.09869,557.64655 1.34766,0 0,8.20312 -1.34766,0 0,-8.20312 z m 0,-3.19336 1.34766,0 0,1.70654 -1.34766,0 0,-1.70654 z"
         id="path4738"
         inkscape:connector-curvature="0" />
      <path
         d="m 391.71625,568.04034 3.35632,0 0,0.80933 -4.51318,0 0,-0.80933 q 0.54748,-0.56652 1.49011,-1.51867 0.94739,-0.95691 1.19019,-1.23303 0.46179,-0.51893 0.6427,-0.87598 0.18566,-0.36182 0.18566,-0.70935 0,-0.56653 -0.3999,-0.92359 -0.39514,-0.35705 -1.03308,-0.35705 -0.45227,0 -0.95691,0.1571 -0.49988,0.15711 -1.07117,0.47608 l 0,-0.97119 q 0.58082,-0.23328 1.08545,-0.3523 0.50464,-0.11902 0.92359,-0.11902 1.10449,0 1.76147,0.55225 0.65698,0.55224 0.65698,1.47583 0,0.43799 -0.16662,0.83313 -0.16187,0.39038 -0.59509,0.92358 -0.11902,0.13806 -0.75696,0.79981 -0.63794,0.65698 -1.79956,1.8424 z"
         style="font-size:64.99999762%;baseline-shift:sub"
         id="path4740"
         inkscape:connector-curvature="0" />
    </g>
    <path
       transform="scale(1,-1)"
       style="fill:none;fill-opacity:1;fill-rule:evenodd;stroke:#000000;stroke-width:0.65299684px;stroke-linecap:butt;stroke-linejoin:miter;stroke-opacity:1"
       d="m 422.61002,-543.79193 28.91843,0 0,28.91843 -28.91843,0 z"
       id="rect5550-7"
       inkscape:connector-curvature="0" />
    <path
       style="fill:none;fill-opacity:1;stroke:#000000;stroke-width:0.66284519;stroke-opacity:1"
       d="m 451.46596,466.15918 a 14.563251,14.563251 0 0 1 -14.56325,14.56325 14.563251,14.563251 0 0 1 -14.56325,-14.56325 14.563251,14.563251 0 0 1 14.56325,-14.56325 14.563251,14.563251 0 0 1 14.56325,14.56325 z"
       id="path6404-6"
       inkscape:connector-curvature="0" />
    <path
       style="fill:none;fill-opacity:1;stroke:#000000;stroke-width:0.68532217;stroke-opacity:1"
       d="m 452.21233,592.68066 a 15.057089,15.057089 0 0 1 -15.05709,15.05709 15.057089,15.057089 0 0 1 -15.05709,-15.05709 15.057089,15.057089 0 0 1 15.05709,-15.05708 15.057089,15.057089 0 0 1 15.05709,15.05708 z"
       id="path6404-5-73"
       inkscape:connector-curvature="0" />
    <g
       style="font-style:normal;font-weight:normal;font-size:15px;line-height:125%;font-family:sans-serif;letter-spacing:0px;word-spacing:0px;fill:#000000;fill-opacity:1;stroke:none;stroke-width:1px;stroke-linecap:butt;stroke-linejoin:miter;stroke-opacity:1"
       id="o-6">
      <path
         d="m 445.52393,492.31 q -1.08399,0 -1.71387,0.84961 -0.62988,0.84228 -0.62988,2.31445 0,1.47217 0.62255,2.32178 0.62989,0.84228 1.7212,0.84228 1.07666,0 1.70654,-0.84961 0.62988,-0.84961 0.62988,-2.31445 0,-1.45752 -0.62988,-2.30713 -0.62988,-0.85693 -1.70654,-0.85693 z m 0,-1.14258 q 1.75781,0 2.76123,1.14258 1.00341,1.14258 1.00341,3.16406 0,2.01416 -1.00341,3.16406 -1.00342,1.14258 -2.76123,1.14258 -1.76514,0 -2.76856,-1.14258 -0.99609,-1.1499 -0.99609,-3.16406 0,-2.02148 0.99609,-3.16406 1.00342,-1.14258 2.76856,-1.14258 z"
         id="path4730"
         inkscape:connector-curvature="0" />
      <path
         d="m 454.05774,498.7359 q 0.69031,0.14758 1.07593,0.61414 0.39038,0.46655 0.39038,1.1521 0,1.05212 -0.72363,1.62817 -0.72364,0.57605 -2.05665,0.57605 -0.44751,0 -0.92358,-0.0905 -0.47131,-0.0857 -0.97595,-0.26185 l 0,-0.92834 q 0.3999,0.23328 0.87597,0.3523 0.47608,0.11901 0.995,0.11901 0.90454,0 1.37585,-0.35705 0.47608,-0.35706 0.47608,-1.03784 0,-0.62842 -0.44275,-0.98072 -0.43799,-0.35705 -1.22351,-0.35705 l -0.82837,0 0,-0.79029 0.86645,0 q 0.70936,0 1.08545,-0.28088 0.3761,-0.28564 0.3761,-0.81885 0,-0.54748 -0.39038,-0.83789 -0.38562,-0.29516 -1.10925,-0.29516 -0.39514,0 -0.84741,0.0857 -0.45227,0.0857 -0.995,0.2666 l 0,-0.85693 q 0.54749,-0.15235 1.02356,-0.22852 0.48084,-0.0762 0.90454,-0.0762 1.09497,0 1.73291,0.49988 0.63794,0.49512 0.63794,1.34253 0,0.59033 -0.33801,0.99975 -0.33801,0.40467 -0.96167,0.56177 z"
         style="font-size:64.99999762%;baseline-shift:sub"
         id="path4732"
         inkscape:connector-curvature="0" />
    </g>
    <g
       style="font-style:normal;font-weight:normal;font-size:15px;line-height:125%;font-family:sans-serif;letter-spacing:0px;word-spacing:0px;fill:#000000;fill-opacity:1;stroke:none;stroke-width:1px;stroke-linecap:butt;stroke-linejoin:miter;stroke-opacity:1"
       id="i-3">
      <path
         d="m 442.34525,557.27759 1.34765,0 0,8.20312 -1.34765,0 0,-8.20312 z m 0,-3.19336 1.34765,0 0,1.70654 -1.34765,0 0,-1.70654 z"
         id="path4725"
         inkscape:connector-curvature="0" />
      <path
         d="m 449.048,564.64832 q 0.69031,0.14758 1.07593,0.61413 0.39038,0.46655 0.39038,1.1521 0,1.05212 -0.72363,1.62817 -0.72363,0.57605 -2.05664,0.57605 -0.44751,0 -0.92358,-0.0905 -0.47132,-0.0857 -0.97596,-0.26184 l 0,-0.92835 q 0.39991,0.23328 0.87598,0.3523 0.47607,0.11902 0.99499,0.11902 0.90455,0 1.37586,-0.35706 0.47607,-0.35705 0.47607,-1.03784 0,-0.62842 -0.44275,-0.98071 -0.43798,-0.35706 -1.22351,-0.35706 l -0.82837,0 0,-0.79028 0.86646,0 q 0.70935,0 1.08545,-0.28088 0.3761,-0.28565 0.3761,-0.81885 0,-0.54749 -0.39038,-0.83789 -0.38562,-0.29517 -1.10926,-0.29517 -0.39514,0 -0.84741,0.0857 -0.45227,0.0857 -0.99499,0.26661 l 0,-0.85694 q 0.54748,-0.15234 1.02356,-0.22851 0.48083,-0.0762 0.90454,-0.0762 1.09497,0 1.73291,0.49988 0.63794,0.49512 0.63794,1.34253 0,0.59033 -0.33802,0.99976 -0.33801,0.40466 -0.96167,0.56177 z"
         style="font-size:64.99999762%;baseline-shift:sub"
         id="path4727"
         inkscape:connector-curvature="0" />
    </g>
    <path
       transform="scale(1,-1)"
       style="fill:none;fill-opacity:1;fill-rule:evenodd;stroke:#000000;stroke-width:0.65299684px;stroke-linecap:butt;stroke-linejoin:miter;stroke-opacity:1"
       d="m 479.33578,-543.30194 28.91844,0 0,28.91843 -28.91844,0 z"
       id="rect5550-9-1"
       inkscape:connector-curvature="0" />
    <path
       style="fill:none;fill-opacity:1;stroke:#000000;stroke-width:0.66284519;stroke-opacity:1"
       d="m 508.1917,465.66919 a 14.563251,14.563251 0 0 1 -14.56325,14.56325 14.563251,14.563251 0 0 1 -14.56325,-14.56325 14.563251,14.563251 0 0 1 14.56325,-14.56325 14.563251,14.563251 0 0 1 14.56325,14.56325 z"
       id="path6404-4-1"
       inkscape:connector-curvature="0" />
    <path
       style="fill:none;fill-opacity:1;stroke:#000000;stroke-width:0.68532217;stroke-opacity:1"
       d="m 508.9381,592.19067 a 15.057089,15.057089 0 0 1 -15.05709,15.05709 15.057089,15.057089 0 0 1 -15.05709,-15.05709 15.057089,15.057089 0 0 1 15.05709,-15.05709 15.057089,15.057089 0 0 1 15.05709,15.05709 z"
       id="path6404-5-7-5"
       inkscape:connector-curvature="0" />
    <g
       style="font-style:normal;font-weight:normal;font-size:15px;line-height:125%;font-family:sans-serif;letter-spacing:0px;word-spacing:0px;fill:#000000;fill-opacity:1;stroke:none;stroke-width:1px;stroke-linecap:butt;stroke-linejoin:miter;stroke-opacity:1"
       id="o-8-9">
      <path
         d="m 502.24966,491.82001 q -1.08398,0 -1.71386,0.84961 -0.62989,0.84228 -0.62989,2.31445 0,1.47217 0.62256,2.32178 0.62989,0.84228 1.72119,0.84228 1.07666,0 1.70655,-0.84961 0.62988,-0.84961 0.62988,-2.31445 0,-1.45752 -0.62988,-2.30713 -0.62989,-0.85693 -1.70655,-0.85693 z m 0,-1.14258 q 1.75782,0 2.76123,1.14258 1.00342,1.14258 1.00342,3.16406 0,2.01416 -1.00342,3.16406 -1.00341,1.14258 -2.76123,1.14258 -1.76513,0 -2.76855,-1.14258 -0.99609,-1.1499 -0.99609,-3.16406 0,-2.02148 0.99609,-3.16406 1.00342,-1.14258 2.76855,-1.14258 z"
         id="path4717"
         inkscape:connector-curvature="0" />
      <path
         d="m 510.51212,495.80841 -2.42798,3.79431 2.42798,0 0,-3.79431 z m -0.25232,-0.83789 1.20922,0 0,4.6322 1.01404,0 0,0.79981 -1.01404,0 0,1.67578 -0.9569,0 0,-1.67578 -3.20874,0 0,-0.92835 2.95642,-4.50366 z"
         style="font-size:64.99999762%;baseline-shift:sub"
         id="path4719"
         inkscape:connector-curvature="0" />
    </g>
    <g
       style="font-style:normal;font-weight:normal;font-size:15px;line-height:125%;font-family:sans-serif;letter-spacing:0px;word-spacing:0px;fill:#000000;fill-opacity:1;stroke:none;stroke-width:1px;stroke-linecap:butt;stroke-linejoin:miter;stroke-opacity:1"
       id="i-0-8">
      <path
         d="m 499.07101,556.7876 1.34766,0 0,8.20312 -1.34766,0 0,-8.20312 z m 0,-3.19336 1.34766,0 0,1.70654 -1.34766,0 0,-1.70654 z"
         id="path4712"
         inkscape:connector-curvature="0" />
      <path
         d="m 505.50241,561.72083 -2.42798,3.79431 2.42798,0 0,-3.79431 z m -0.25232,-0.8379 1.20923,0 0,4.63221 1.01404,0 0,0.7998 -1.01404,0 0,1.67578 -0.95691,0 0,-1.67578 -3.20874,0 0,-0.92834 2.95642,-4.50367 z"
         style="font-size:64.99999762%;baseline-shift:sub"
         id="path4714"
         inkscape:connector-curvature="0" />
    </g>
    <path
       transform="scale(1,-1)"
       style="fill:none;fill-opacity:1;fill-rule:evenodd;stroke:#000000;stroke-width:0.65299684px;stroke-linecap:butt;stroke-linejoin:miter;stroke-opacity:1"
       d="m 533.79779,-543.08862 28.91843,0 0,28.91843 -28.91843,0 z"
       id="rect5550-3-8-6"
       inkscape:connector-curvature="0" />
    <path
       style="fill:none;fill-opacity:1;stroke:#000000;stroke-width:0.66284519;stroke-opacity:1"
       d="m 562.65377,465.45593 a 14.563251,14.563251 0 0 1 -14.56325,14.56325 14.563251,14.563251 0 0 1 -14.56326,-14.56325 14.563251,14.563251 0 0 1 14.56326,-14.56325 14.563251,14.563251 0 0 1 14.56325,14.56325 z"
       id="path6404-7-4-2"
       inkscape:connector-curvature="0" />
    <path
       style="fill:none;fill-opacity:1;stroke:#000000;stroke-width:0.68532217;stroke-opacity:1"
       d="m 563.40011,591.97736 a 15.057089,15.057089 0 0 1 -15.05709,15.05708 15.057089,15.057089 0 0 1 -15.05709,-15.05708 15.057089,15.057089 0 0 1 15.05709,-15.05709 15.057089,15.057089 0 0 1 15.05709,15.05709 z"
       id="path6404-5-5-3-1"
       inkscape:connector-curvature="0" />
    <g
       style="font-style:normal;font-weight:normal;font-size:15px;line-height:125%;font-family:sans-serif;letter-spacing:0px;word-spacing:0px;fill:#000000;fill-opacity:1;stroke:none;stroke-width:1px;stroke-linecap:butt;stroke-linejoin:miter;stroke-opacity:1"
       id="o-9-1-7">
      <path
         d="m 556.71173,491.60681 q -1.08398,0 -1.71387,0.84961 -0.62988,0.84229 -0.62988,2.31445 0,1.47217 0.62256,2.32178 0.62988,0.84229 1.72119,0.84229 1.07666,0 1.70654,-0.84961 0.62989,-0.84961 0.62989,-2.31446 0,-1.45752 -0.62989,-2.30712 -0.62988,-0.85694 -1.70654,-0.85694 z m 0,-1.14258 q 1.75781,0 2.76123,1.14258 1.00342,1.14258 1.00342,3.16406 0,2.01416 -1.00342,3.16407 -1.00342,1.14257 -2.76123,1.14257 -1.76514,0 -2.76855,-1.14257 -0.9961,-1.14991 -0.9961,-3.16407 0,-2.02148 0.9961,-3.16406 1.00341,-1.14258 2.76855,-1.14258 z"
         id="path4704"
         inkscape:connector-curvature="0" />
      <path
         d="m 562.34149,494.75732 3.77527,0 0,0.80933 -2.89453,0 0,1.74243 q 0.20947,-0.0714 0.41894,-0.10473 0.20948,-0.0381 0.41895,-0.0381 1.19019,0 1.88525,0.65222 0.69507,0.65222 0.69507,1.76624 0,1.14734 -0.71411,1.78528 -0.71411,0.63317 -2.01379,0.63317 -0.44751,0 -0.91407,-0.0762 -0.46179,-0.0762 -0.95691,-0.22851 l 0,-0.96643 q 0.42847,0.23327 0.8855,0.34753 0.45703,0.11426 0.96643,0.11426 0.82361,0 1.30445,-0.43323 0.48083,-0.43323 0.48083,-1.1759 0,-0.74268 -0.48083,-1.17591 -0.48084,-0.43322 -1.30445,-0.43322 -0.38562,0 -0.77124,0.0857 -0.38086,0.0857 -0.78076,0.2666 l 0,-3.57056 z"
         style="font-size:64.99999762%;baseline-shift:sub"
         id="path4706"
         inkscape:connector-curvature="0" />
    </g>
    <g
       style="font-style:normal;font-weight:normal;font-size:15px;line-height:125%;font-family:sans-serif;letter-spacing:0px;word-spacing:0px;fill:#000000;fill-opacity:1;stroke:none;stroke-width:1px;stroke-linecap:butt;stroke-linejoin:miter;stroke-opacity:1"
       id="i-8-2-7">
      <path
         d="m 553.53302,556.57428 1.34766,0 0,8.20312 -1.34766,0 0,-8.20312 z m 0,-3.19336 1.34766,0 0,1.70654 -1.34766,0 0,-1.70654 z"
         id="path4699"
         inkscape:connector-curvature="0" />
      <path
         d="m 557.33173,560.66962 3.77526,0 0,0.80932 -2.89453,0 0,1.74243 q 0.20948,-0.0714 0.41895,-0.10473 0.20947,-0.0381 0.41894,-0.0381 1.19019,0 1.88526,0.65222 0.69507,0.65223 0.69507,1.76624 0,1.14734 -0.71412,1.78528 -0.71411,0.63318 -2.01379,0.63318 -0.44751,0 -0.91406,-0.0762 -0.46179,-0.0762 -0.95691,-0.22851 l 0,-0.96643 q 0.42847,0.23327 0.8855,0.34753 0.45703,0.11426 0.96643,0.11426 0.82361,0 1.30444,-0.43323 0.48084,-0.43322 0.48084,-1.1759 0,-0.74268 -0.48084,-1.1759 -0.48083,-0.43323 -1.30444,-0.43323 -0.38562,0 -0.77124,0.0857 -0.38086,0.0857 -0.78076,0.2666 l 0,-3.57055 z"
         style="font-size:64.99999762%;baseline-shift:sub"
         id="path4701"
         inkscape:connector-curvature="0" />
    </g>
    <path
       transform="scale(1,-1)"
       style="fill:none;fill-opacity:1;fill-rule:evenodd;stroke:#000000;stroke-width:0.65299684px;stroke-linecap:butt;stroke-linejoin:miter;stroke-opacity:1"
       d="m 585.30438,-542.35858 28.91843,0 0,28.91843 -28.91843,0 z"
       id="rect5550-9-1-8"
       inkscape:connector-curvature="0" />
    <path
       style="fill:none;fill-opacity:1;stroke:#000000;stroke-width:0.66284519;stroke-opacity:1"
       d="M 614.1603,464.7258 A 14.563251,14.563251 0 0 1 599.59705,479.28905 14.563251,14.563251 0 0 1 585.0338,464.7258 14.563251,14.563251 0 0 1 599.59705,450.16255 14.563251,14.563251 0 0 1 614.1603,464.7258 Z"
       id="path6404-4-1-8"
       inkscape:connector-curvature="0" />
    <path
       style="fill:none;fill-opacity:1;stroke:#000000;stroke-width:0.68532217;stroke-opacity:1"
       d="m 614.9067,591.24731 a 15.057089,15.057089 0 0 1 -15.05709,15.05709 15.057089,15.057089 0 0 1 -15.05709,-15.05709 15.057089,15.057089 0 0 1 15.05709,-15.05708 15.057089,15.057089 0 0 1 15.05709,15.05708 z"
       id="path6404-5-7-5-8"
       inkscape:connector-curvature="0" />
    <g
       style="font-style:normal;font-weight:normal;font-size:15px;line-height:125%;font-family:sans-serif;letter-spacing:0px;word-spacing:0px;fill:#000000;fill-opacity:1;stroke:none;stroke-width:1px;stroke-linecap:butt;stroke-linejoin:miter;stroke-opacity:1"
       id="o-8-9-9">
      <path
         d="m 608.21826,490.87662 q -1.08398,0 -1.71387,0.84961 -0.62988,0.84228 -0.62988,2.31445 0,1.47217 0.62256,2.32178 0.62988,0.84228 1.72119,0.84228 1.07666,0 1.70654,-0.84961 0.62989,-0.84961 0.62989,-2.31445 0,-1.45752 -0.62989,-2.30713 -0.62988,-0.85693 -1.70654,-0.85693 z m 0,-1.14258 q 1.75781,0 2.76123,1.14258 1.00342,1.14258 1.00342,3.16406 0,2.01416 -1.00342,3.16406 -1.00342,1.14258 -2.76123,1.14258 -1.76514,0 -2.76855,-1.14258 -0.9961,-1.1499 -0.9961,-3.16406 0,-2.02148 0.9961,-3.16406 1.00341,-1.14258 2.76855,-1.14258 z"
         id="path4691"
         inkscape:connector-curvature="0" />
      <path
         d="m 616.01416,497.19778 q -0.64746,0 -1.02832,0.44275 -0.3761,0.44275 -0.3761,1.21399 0,0.76648 0.3761,1.21399 0.38086,0.44275 1.02832,0.44275 0.64746,0 1.02356,-0.44275 0.38086,-0.44751 0.38086,-1.21399 0,-0.77124 -0.38086,-1.21399 -0.3761,-0.44275 -1.02356,-0.44275 z m 1.90906,-3.01355 0,0.87598 q -0.36182,-0.17139 -0.73316,-0.26184 -0.36657,-0.0904 -0.72839,-0.0904 -0.95215,0 -1.45679,0.6427 -0.49988,0.6427 -0.57129,1.94238 0.28089,-0.41419 0.70459,-0.63318 0.42371,-0.22375 0.93311,-0.22375 1.07117,0 1.69006,0.65222 0.62366,0.64746 0.62366,1.76623 0,1.09497 -0.64746,1.75672 -0.64746,0.66174 -1.72339,0.66174 -1.23303,0 -1.88525,-0.94263 -0.65223,-0.94738 -0.65223,-2.74218 0,-1.68531 0.79981,-2.68506 0.7998,-1.00452 2.14709,-1.00452 0.36182,0 0.7284,0.0714 0.37134,0.0714 0.77124,0.21423 z"
         style="font-size:64.99999762%;baseline-shift:sub"
         id="path4693"
         inkscape:connector-curvature="0" />
    </g>
    <g
       style="font-style:normal;font-weight:normal;font-size:15px;line-height:125%;font-family:sans-serif;letter-spacing:0px;word-spacing:0px;fill:#000000;fill-opacity:1;stroke:none;stroke-width:1px;stroke-linecap:butt;stroke-linejoin:miter;stroke-opacity:1"
       id="i-0-8-6">
      <path
         d="m 605.03961,555.84424 1.34766,0 0,8.20312 -1.34766,0 0,-8.20312 z m 0,-3.19336 1.34766,0 0,1.70654 -1.34766,0 0,-1.70654 z"
         id="path4686"
         inkscape:connector-curvature="0" />
      <path
         d="m 611.00446,563.11023 q -0.64747,0 -1.02832,0.44275 -0.3761,0.44275 -0.3761,1.21399 0,0.76648 0.3761,1.21399 0.38085,0.44275 1.02832,0.44275 0.64746,0 1.02356,-0.44275 0.38085,-0.44751 0.38085,-1.21399 0,-0.77124 -0.38085,-1.21399 -0.3761,-0.44275 -1.02356,-0.44275 z m 1.90905,-3.01355 0,0.87598 q -0.36181,-0.17139 -0.73315,-0.26184 -0.36658,-0.0905 -0.72839,-0.0905 -0.95215,0 -1.45679,0.6427 -0.49988,0.6427 -0.57129,1.94238 0.28088,-0.41418 0.70459,-0.63317 0.42371,-0.22376 0.9331,-0.22376 1.07117,0 1.69007,0.65222 0.62366,0.64746 0.62366,1.76624 0,1.09497 -0.64747,1.75671 -0.64746,0.66174 -1.72338,0.66174 -1.23304,0 -1.88526,-0.94262 -0.65222,-0.94739 -0.65222,-2.74219 0,-1.6853 0.7998,-2.68506 0.79981,-1.00451 2.1471,-1.00451 0.36182,0 0.72839,0.0714 0.37134,0.0714 0.77124,0.21423 z"
         style="font-size:64.99999762%;baseline-shift:sub"
         id="path4688"
         inkscape:connector-curvature="0" />
    </g>
    <path
       transform="scale(1,-1)"
       style="fill:none;fill-opacity:1;fill-rule:evenodd;stroke:#000000;stroke-width:0.65299684px;stroke-linecap:butt;stroke-linejoin:miter;stroke-opacity:1"
       d="m 639.76648,-542.14526 28.91843,0 0,28.91843 -28.91843,0 z"
       id="rect5550-3-8-6-0"
       inkscape:connector-curvature="0" />
    <path
       style="fill:none;fill-opacity:1;stroke:#000000;stroke-width:0.66284519;stroke-opacity:1"
       d="m 668.62245,464.51254 a 14.563251,14.563251 0 0 1 -14.56325,14.56325 14.563251,14.563251 0 0 1 -14.56325,-14.56325 14.563251,14.563251 0 0 1 14.56325,-14.56325 14.563251,14.563251 0 0 1 14.56325,14.56325 z"
       id="path6404-7-4-2-9"
       inkscape:connector-curvature="0" />
    <path
       style="fill:none;fill-opacity:1;stroke:#000000;stroke-width:0.68532217;stroke-opacity:1"
       d="M 669.3688,591.034 A 15.057089,15.057089 0 0 1 654.31171,606.09109 15.057089,15.057089 0 0 1 639.25462,591.034 15.057089,15.057089 0 0 1 654.31171,575.97691 15.057089,15.057089 0 0 1 669.3688,591.034 Z"
       id="path6404-5-5-3-1-2"
       inkscape:connector-curvature="0" />
    <g
       style="font-style:normal;font-weight:normal;font-size:15px;line-height:125%;font-family:sans-serif;letter-spacing:0px;word-spacing:0px;fill:#000000;fill-opacity:1;stroke:none;stroke-width:1px;stroke-linecap:butt;stroke-linejoin:miter;stroke-opacity:1"
       id="o-9-1-7-5">
      <path
         d="m 662.68042,490.66342 q -1.08398,0 -1.71387,0.84961 -0.62988,0.84229 -0.62988,2.31445 0,1.47217 0.62256,2.32178 0.62988,0.84229 1.72119,0.84229 1.07666,0 1.70654,-0.84961 0.62989,-0.84961 0.62989,-2.31446 0,-1.45752 -0.62989,-2.30712 -0.62988,-0.85694 -1.70654,-0.85694 z m 0,-1.14258 q 1.75781,0 2.76123,1.14258 1.00342,1.14258 1.00342,3.16406 0,2.01416 -1.00342,3.16407 -1.00342,1.14257 -2.76123,1.14257 -1.76514,0 -2.76855,-1.14257 -0.9961,-1.14991 -0.9961,-3.16407 0,-2.02148 0.9961,-3.16406 1.00341,-1.14258 2.76855,-1.14258 z"
         id="path4678"
         inkscape:connector-curvature="0" />
      <path
         d="m 668.05786,493.81393 4.57031,0 0,0.40943 -2.58032,6.69836 -1.00452,0 2.42798,-6.29846 -3.41345,0 0,-0.80933 z"
         style="font-size:64.99999762%;baseline-shift:sub"
         id="path4680"
         inkscape:connector-curvature="0" />
    </g>
    <g
       style="font-style:normal;font-weight:normal;font-size:15px;line-height:125%;font-family:sans-serif;letter-spacing:0px;word-spacing:0px;fill:#000000;fill-opacity:1;stroke:none;stroke-width:1px;stroke-linecap:butt;stroke-linejoin:miter;stroke-opacity:1"
       id="i-8-2-7-5">
      <path
         d="m 659.50171,555.63092 1.34766,0 0,8.20313 -1.34766,0 0,-8.20313 z m 0,-3.19336 1.34766,0 0,1.70654 -1.34766,0 0,-1.70654 z"
         id="path4673"
         inkscape:connector-curvature="0" />
      <path
         d="m 663.0481,559.72626 4.57031,0 0,0.40942 -2.58032,6.69837 -1.00452,0 2.42798,-6.29847 -3.41345,0 0,-0.80932 z"
         style="font-size:64.99999762%;baseline-shift:sub"
         id="path4675"
         inkscape:connector-curvature="0" />
    </g>
    <flowRoot
       xml:space="preserve"
       id="flowRoot12572"
       style="font-style:normal;font-weight:normal;font-size:15px;line-height:125%;font-family:sans-serif;letter-spacing:0px;word-spacing:0px;fill:url(#linearGradient12586);fill-opacity:1;stroke:none;stroke-width:1px;stroke-linecap:butt;stroke-linejoin:miter;stroke-opacity:1"><flowRegion
         id="flowRegion12574"
         style="fill:url(#linearGradient3563);fill-opacity:1"><rect
           id="rect12576"
           width="268.1955"
           height="36.870567"
           x="444.46713"
           y="10.175653"
           style="fill:url(#linearGradient3561);fill-opacity:1" /></flowRegion><flowPara
         id="flowPara12578"
         style="fill:url(#linearGradient3565);fill-opacity:1" /></flowRoot>    <g
       transform="translate(-10.365713,441.21991)"
       style="font-style:normal;font-weight:normal;font-size:15px;line-height:125%;font-family:sans-serif;letter-spacing:0px;word-spacing:0px;fill:#000000;fill-opacity:1;stroke:none;stroke-width:1px;stroke-linecap:butt;stroke-linejoin:miter;stroke-opacity:1"
       id="flowRoot12596">
      <path
         d="m 278.3208,141.77744 2.03247,0 0,10.09644 6.0315,-5.3064 2.58178,0 -6.52588,5.75684 6.80054,6.54785 -2.63672,0 -6.25122,-6.00952 0,6.00952 -2.03247,0 0,-17.09473 z"
         style="font-size:22.5px"
         id="path4651"
         inkscape:connector-curvature="0" />
      <path
         d="m 340.02002,152.68687 q -2.44995,0 -3.39478,0.5603 -0.94482,0.5603 -0.94482,1.91162 0,1.07666 0.70312,1.71387 0.71412,0.62622 1.9336,0.62622 1.68091,0 2.69165,-1.18653 1.02173,-1.19751 1.02173,-3.17504 l 0,-0.45044 -2.0105,0 z m 4.03198,-0.83497 0,7.02027 -2.02148,0 0,-1.86768 q -0.69214,1.12061 -1.72486,1.65894 -1.03271,0.52734 -2.52685,0.52734 -1.88965,0 -3.01026,-1.05469 -1.10961,-1.06567 -1.10961,-2.84545 0,-2.07642 1.38427,-3.13111 1.39527,-1.05469 4.15283,-1.05469 l 2.83448,0 0,-0.19775 q 0,-1.39526 -0.92285,-2.15332 -0.91187,-0.76904 -2.5708,-0.76904 -1.05469,0 -2.05445,0.25268 -0.99975,0.25269 -1.92261,0.75806 l 0,-1.86768 q 1.10962,-0.42846 2.15332,-0.6372 1.04371,-0.21973 2.03248,-0.21973 2.66967,0 3.98803,1.38428 1.31836,1.38427 1.31836,4.19677 z"
         style="font-size:22.5px"
         id="path4653"
         inkscape:connector-curvature="0" />
      <path
         d="m 393.20483,143.07383 0,3.49365 4.16382,0 0,1.57105 -4.16382,0 0,6.67968 q 0,1.50513 0.4065,1.9336 0.41748,0.42846 1.68091,0.42846 l 2.07641,0 0,1.6919 -2.07641,0 q -2.34009,0 -3.22998,-0.86792 -0.8899,-0.87891 -0.8899,-3.18604 l 0,-6.67968 -1.48315,0 0,-1.57105 1.48315,0 0,-3.49365 2.03247,0 z"
         style="font-size:22.5px"
         id="path4655"
         inkscape:connector-curvature="0" />
      <path
         d="m 442.13794,146.56748 9.60205,0 0,1.8457 -7.60254,8.844 7.60254,0 0,1.61499 -9.87671,0 0,-1.8457 7.60254,-8.844 -7.32788,0 0,-1.61499 z"
         style="font-size:22.5px"
         id="path4657"
         inkscape:connector-curvature="0" />
      <path
         d="m 508.34155,152.21445 0,0.98877 -9.29443,0 q 0.13184,2.08741 1.25244,3.18604 1.13159,1.08764 3.14209,1.08764 1.16455,0 2.2522,-0.28564 1.09863,-0.28564 2.17529,-0.85693 l 0,1.91162 q -1.08765,0.46142 -2.23022,0.70312 -1.14258,0.2417 -2.31812,0.2417 -2.94434,0 -4.66919,-1.71387 -1.71387,-1.71386 -1.71387,-4.63623 0,-3.02124 1.62598,-4.79003 1.63696,-1.77979 4.40552,-1.77979 2.48291,0 3.92212,1.604 1.45019,1.59302 1.45019,4.3396 z m -2.02148,-0.59326 q -0.022,-1.65893 -0.93384,-2.6477 -0.90088,-0.98877 -2.39502,-0.98877 -1.69189,0 -2.71362,0.95581 -1.01074,0.95581 -1.16455,2.69165 l 7.20703,-0.011 z"
         style="font-size:22.5px"
         id="path4659"
         inkscape:connector-curvature="0" />
    </g>
    <g
       style="font-style:normal;font-weight:normal;font-size:15px;line-height:125%;font-family:sans-serif;letter-spacing:0px;word-spacing:0px;fill:#000000;fill-opacity:1;stroke:none;stroke-width:1px;stroke-linecap:butt;stroke-linejoin:miter;stroke-opacity:1"
       id="h">
      <path
         d="m 300.73102,540.11371 0,4.95117 -1.34766,0 0,-4.90723 q 0,-1.16455 -0.4541,-1.74316 -0.4541,-0.57861 -1.3623,-0.57861 -1.09131,0 -1.7212,0.6958 -0.62988,0.6958 -0.62988,1.89697 l 0,4.63623 -1.35498,0 0,-11.39648 1.35498,0 0,4.46777 q 0.4834,-0.73975 1.13526,-1.10596 0.65917,-0.36621 1.51611,-0.36621 1.41357,0 2.13867,0.87891 0.7251,0.87158 0.7251,2.5708 z"
         id="path4646"
         inkscape:connector-curvature="0" />
      <path
         d="m 305.11932,541.59027 q -0.74267,0 -1.11877,0.73316 -0.37134,0.72839 -0.37134,2.1947 0,1.46155 0.37134,2.1947 0.3761,0.72839 1.11877,0.72839 0.74744,0 1.11878,-0.72839 0.3761,-0.73315 0.3761,-2.1947 0,-1.46631 -0.3761,-2.1947 -0.37134,-0.73316 -1.11878,-0.73316 z m 0,-0.76172 q 1.19495,0 1.82337,0.94739 0.63318,0.94263 0.63318,2.74219 0,1.7948 -0.63318,2.74218 -0.62842,0.94263 -1.82337,0.94263 -1.19494,0 -1.82812,-0.94263 -0.62842,-0.94738 -0.62842,-2.74218 0,-1.79956 0.62842,-2.74219 0.63318,-0.94739 1.82812,-0.94739 z"
         style="font-size:64.99999762%;baseline-shift:sub"
         id="path4648"
         inkscape:connector-curvature="0" />
    </g>
    <g
       style="font-style:normal;font-weight:normal;font-size:15px;line-height:125%;font-family:sans-serif;letter-spacing:0px;word-spacing:0px;fill:#000000;fill-opacity:1;stroke:none;stroke-width:1px;stroke-linecap:butt;stroke-linejoin:miter;stroke-opacity:1"
       id="h-6">
      <path
         d="m 356.33469,539.75653 0,4.95117 -1.34766,0 0,-4.90722 q 0,-1.16455 -0.4541,-1.74317 -0.4541,-0.57861 -1.36231,-0.57861 -1.0913,0 -1.72119,0.6958 -0.62988,0.6958 -0.62988,1.89697 l 0,4.63623 -1.35498,0 0,-11.39648 1.35498,0 0,4.46777 q 0.4834,-0.73974 1.13525,-1.10596 0.65918,-0.36621 1.51612,-0.36621 1.41357,0 2.13867,0.87891 0.7251,0.87158 0.7251,2.5708 z"
         id="path4641"
         inkscape:connector-curvature="0" />
      <path
         d="m 358.83298,546.89838 1.57104,0 0,-5.42249 -1.7091,0.34277 0,-0.87597 1.69958,-0.34278 0.96167,0 0,6.29847 1.57105,0 0,0.80932 -4.09424,0 0,-0.80932 z"
         style="font-size:64.99999762%;baseline-shift:sub"
         id="path4643"
         inkscape:connector-curvature="0" />
    </g>
    <g
       style="font-style:normal;font-weight:normal;font-size:15px;line-height:125%;font-family:sans-serif;letter-spacing:0px;word-spacing:0px;fill:#000000;fill-opacity:1;stroke:none;stroke-width:1px;stroke-linecap:butt;stroke-linejoin:miter;stroke-opacity:1"
       id="h-4">
      <path
         d="m 409.72754,539.39941 0,4.95118 -1.34766,0 0,-4.90723 q 0,-1.16455 -0.4541,-1.74316 -0.4541,-0.57862 -1.3623,-0.57862 -1.09131,0 -1.72119,0.6958 -0.62989,0.6958 -0.62989,1.89698 l 0,4.63623 -1.35498,0 0,-11.39649 1.35498,0 0,4.46777 q 0.4834,-0.73974 1.13526,-1.10595 0.65918,-0.36621 1.51611,-0.36621 1.41357,0 2.13867,0.8789 0.7251,0.87159 0.7251,2.5708 z"
         id="path4636"
         inkscape:connector-curvature="0" />
      <path
         d="m 412.88757,546.54126 3.35633,0 0,0.80933 -4.51319,0 0,-0.80933 q 0.54749,-0.56653 1.49012,-1.51868 0.94738,-0.95691 1.19018,-1.23303 0.46179,-0.51892 0.6427,-0.87598 0.18567,-0.36181 0.18567,-0.70935 0,-0.56652 -0.3999,-0.92358 -0.39514,-0.35706 -1.03308,-0.35706 -0.45227,0 -0.95691,0.15711 -0.49988,0.1571 -1.07117,0.47607 l 0,-0.97119 q 0.58081,-0.23328 1.08545,-0.35229 0.50464,-0.11902 0.92358,-0.11902 1.1045,0 1.76148,0.55224 0.65698,0.55225 0.65698,1.47583 0,0.43799 -0.16663,0.83313 -0.16186,0.39038 -0.59509,0.92359 -0.11902,0.13806 -0.75696,0.7998 -0.63794,0.65698 -1.79956,1.84241 z"
         style="font-size:64.99999762%;baseline-shift:sub"
         id="path4638"
         inkscape:connector-curvature="0" />
    </g>
    <g
       style="font-style:normal;font-weight:normal;font-size:15px;line-height:125%;font-family:sans-serif;letter-spacing:0px;word-spacing:0px;fill:#000000;fill-opacity:1;stroke:none;stroke-width:1px;stroke-linecap:butt;stroke-linejoin:miter;stroke-opacity:1"
       id="h-48">
      <path
         d="m 465.75562,539.23297 0,4.95117 -1.34766,0 0,-4.90722 q 0,-1.16455 -0.4541,-1.74317 -0.4541,-0.57861 -1.36231,-0.57861 -1.09131,0 -1.72119,0.6958 -0.62988,0.6958 -0.62988,1.89697 l 0,4.63623 -1.35498,0 0,-11.39648 1.35498,0 0,4.46777 q 0.4834,-0.73974 1.13525,-1.10595 0.65918,-0.36622 1.51612,-0.36622 1.41357,0 2.13867,0.87891 0.7251,0.87158 0.7251,2.5708 z"
         id="path4631"
         inkscape:connector-curvature="0" />
      <path
         d="m 471.00085,543.35175 q 0.69031,0.14758 1.07593,0.61413 0.39038,0.46655 0.39038,1.1521 0,1.05212 -0.72363,1.62817 -0.72363,0.57605 -2.05664,0.57605 -0.44751,0 -0.92358,-0.0904 -0.47132,-0.0857 -0.97596,-0.26184 l 0,-0.92835 q 0.39991,0.23328 0.87598,0.3523 0.47607,0.11902 0.995,0.11902 0.90454,0 1.37585,-0.35706 0.47607,-0.35705 0.47607,-1.03784 0,-0.62842 -0.44275,-0.98071 -0.43798,-0.35706 -1.22351,-0.35706 l -0.82837,0 0,-0.79028 0.86646,0 q 0.70935,0 1.08545,-0.28088 0.3761,-0.28565 0.3761,-0.81885 0,-0.54749 -0.39038,-0.83789 -0.38562,-0.29517 -1.10926,-0.29517 -0.39514,0 -0.84741,0.0857 -0.45227,0.0857 -0.99499,0.26661 l 0,-0.85694 q 0.54748,-0.15234 1.02356,-0.22851 0.48083,-0.0762 0.90454,-0.0762 1.09497,0 1.73291,0.49988 0.63794,0.49512 0.63794,1.34253 0,0.59033 -0.33802,0.99976 -0.33801,0.40466 -0.96167,0.56177 z"
         style="font-size:64.99999762%;baseline-shift:sub"
         id="path4633"
         inkscape:connector-curvature="0" />
    </g>
    <g
       style="font-style:normal;font-weight:normal;font-size:15px;line-height:125%;font-family:sans-serif;letter-spacing:0px;word-spacing:0px;fill:#000000;fill-opacity:1;stroke:none;stroke-width:1px;stroke-linecap:butt;stroke-linejoin:miter;stroke-opacity:1"
       id="h-6-3">
      <path
         d="m 522.16284,538.6972 0,4.95118 -1.34765,0 0,-4.90723 q 0,-1.16455 -0.45411,-1.74316 -0.4541,-0.57862 -1.3623,-0.57862 -1.09131,0 -1.72119,0.6958 -0.62988,0.6958 -0.62988,1.89698 l 0,4.63623 -1.35499,0 0,-11.39649 1.35499,0 0,4.46778 q 0.48339,-0.73975 1.13525,-1.10596 0.65918,-0.36621 1.51611,-0.36621 1.41358,0 2.13867,0.8789 0.7251,0.87159 0.7251,2.5708 z"
         id="path4626"
         inkscape:connector-curvature="0" />
      <path
         d="m 527.13672,540.37848 -2.42798,3.79431 2.42798,0 0,-3.79431 z m -0.25232,-0.83789 1.20923,0 0,4.6322 1.01404,0 0,0.79981 -1.01404,0 0,1.67578 -0.95691,0 0,-1.67578 -3.20874,0 0,-0.92835 2.95642,-4.50366 z"
         style="font-size:64.99999762%;baseline-shift:sub"
         id="path4628"
         inkscape:connector-curvature="0" />
    </g>
    <g
       style="font-style:normal;font-weight:normal;font-size:15px;line-height:125%;font-family:sans-serif;letter-spacing:0px;word-spacing:0px;fill:#000000;fill-opacity:1;stroke:none;stroke-width:1px;stroke-linecap:butt;stroke-linejoin:miter;stroke-opacity:1"
       id="h-4-2">
      <path
         d="m 576.76166,538.48804 0,4.95117 -1.34766,0 0,-4.90723 q 0,-1.16455 -0.4541,-1.74316 -0.4541,-0.57861 -1.3623,-0.57861 -1.09131,0 -1.7212,0.6958 -0.62988,0.6958 -0.62988,1.89697 l 0,4.63623 -1.35498,0 0,-11.39649 1.35498,0 0,4.46778 q 0.4834,-0.73975 1.13525,-1.10596 0.65918,-0.36621 1.51612,-0.36621 1.41357,0 2.13867,0.87891 0.7251,0.87158 0.7251,2.5708 z"
         id="path4621"
         inkscape:connector-curvature="0" />
      <path
         d="m 579.10284,539.33142 3.77527,0 0,0.80933 -2.89453,0 0,1.74243 q 0.20947,-0.0714 0.41895,-0.10474 0.20947,-0.0381 0.41894,-0.0381 1.19019,0 1.88526,0.65222 0.69506,0.65222 0.69506,1.76623 0,1.14734 -0.71411,1.78528 -0.71411,0.63318 -2.01379,0.63318 -0.44751,0 -0.91406,-0.0762 -0.4618,-0.0762 -0.95691,-0.22852 l 0,-0.96643 q 0.42846,0.23328 0.8855,0.34754 0.45703,0.11425 0.96643,0.11425 0.8236,0 1.30444,-0.43322 0.48083,-0.43323 0.48083,-1.17591 0,-0.74267 -0.48083,-1.1759 -0.48084,-0.43323 -1.30444,-0.43323 -0.38562,0 -0.77124,0.0857 -0.38086,0.0857 -0.78077,0.2666 l 0,-3.57056 z"
         style="font-size:64.99999762%;baseline-shift:sub"
         id="path4623"
         inkscape:connector-curvature="0" />
    </g>
    <g
       style="font-style:normal;font-weight:normal;font-size:15px;line-height:125%;font-family:sans-serif;letter-spacing:0px;word-spacing:0px;fill:#000000;fill-opacity:1;stroke:none;stroke-width:1px;stroke-linecap:butt;stroke-linejoin:miter;stroke-opacity:1"
       id="h-4-2-1">
      <path
         d="m 627.67786,537.80798 0,4.95118 -1.34766,0 0,-4.90723 q 0,-1.16455 -0.4541,-1.74317 -0.4541,-0.57861 -1.36231,-0.57861 -1.0913,0 -1.72119,0.6958 -0.62988,0.6958 -0.62988,1.89697 l 0,4.63624 -1.35498,0 0,-11.39649 1.35498,0 0,4.46777 q 0.4834,-0.73974 1.13525,-1.10595 0.65918,-0.36621 1.51612,-0.36621 1.41357,0 2.13867,0.8789 0.7251,0.87158 0.7251,2.5708 z"
         id="path4616"
         inkscape:connector-curvature="0" />
      <path
         d="m 632.18518,541.82202 q -0.64746,0 -1.02832,0.44275 -0.3761,0.44275 -0.3761,1.21399 0,0.76648 0.3761,1.21399 0.38086,0.44275 1.02832,0.44275 0.64746,0 1.02356,-0.44275 0.38086,-0.44751 0.38086,-1.21399 0,-0.77124 -0.38086,-1.21399 -0.3761,-0.44275 -1.02356,-0.44275 z m 1.90906,-3.01355 0,0.87598 q -0.36182,-0.17139 -0.73316,-0.26184 -0.36657,-0.0905 -0.72839,-0.0905 -0.95215,0 -1.45679,0.6427 -0.49987,0.6427 -0.57129,1.94239 0.28089,-0.41419 0.70459,-0.63318 0.42371,-0.22376 0.93311,-0.22376 1.07117,0 1.69006,0.65222 0.62366,0.64747 0.62366,1.76624 0,1.09497 -0.64746,1.75671 -0.64746,0.66175 -1.72339,0.66175 -1.23303,0 -1.88525,-0.94263 -0.65222,-0.94739 -0.65222,-2.74219 0,-1.6853 0.7998,-2.68506 0.7998,-1.00451 2.14709,-1.00451 0.36182,0 0.7284,0.0714 0.37134,0.0714 0.77124,0.21423 z"
         style="font-size:64.99999762%;baseline-shift:sub"
         id="path4618"
         inkscape:connector-curvature="0" />
    </g>
    <g
       style="font-style:normal;font-weight:normal;font-size:15px;line-height:125%;font-family:sans-serif;letter-spacing:0px;word-spacing:0px;fill:#000000;fill-opacity:1;stroke:none;stroke-width:1px;stroke-linecap:butt;stroke-linejoin:miter;stroke-opacity:1"
       id="h-4-2-5">
      <path
         d="m 682.26886,537.49225 0,4.95117 -1.34766,0 0,-4.90723 q 0,-1.16455 -0.4541,-1.74316 -0.4541,-0.57861 -1.3623,-0.57861 -1.09131,0 -1.72119,0.6958 -0.62989,0.6958 -0.62989,1.89697 l 0,4.63623 -1.35498,0 0,-11.39648 1.35498,0 0,4.46777 q 0.4834,-0.73975 1.13526,-1.10596 0.65918,-0.36621 1.51611,-0.36621 1.41357,0 2.13867,0.87891 0.7251,0.87158 0.7251,2.5708 z"
         id="path4611"
         inkscape:connector-curvature="0" />
      <path
         d="m 684.35773,538.33563 4.57031,0 0,0.40943 -2.58032,6.69836 -1.00452,0 2.42798,-6.29846 -3.41345,0 0,-0.80933 z"
         style="font-size:64.99999762%;baseline-shift:sub"
         id="path4613"
         inkscape:connector-curvature="0" />
    </g>
    <path
       style="fill:none;fill-rule:evenodd;stroke:#000000;stroke-width:1px;stroke-linecap:butt;stroke-linejoin:miter;stroke-opacity:1;marker-end:url(#marker13706)"
       d="m 287.11438,530.27782 26.79718,-0.23567"
       id="path12758"
       inkscape:connector-curvature="0" />
    <path
       style="fill:none;fill-rule:evenodd;stroke:#000000;stroke-width:1px;stroke-linecap:butt;stroke-linejoin:miter;stroke-opacity:1;marker-end:url(#marker6781)"
       d="m 342.82999,529.85729 24.53347,-0.0979"
       id="path12762"
       inkscape:connector-curvature="0" />
    <path
       style="fill:none;fill-rule:evenodd;stroke:#000000;stroke-width:1px;stroke-linecap:butt;stroke-linejoin:miter;stroke-opacity:1;marker-end:url(#marker12786)"
       d="m 396.28189,529.60511 26.32813,-0.17583"
       id="path12764"
       inkscape:connector-curvature="0" />
    <path
       style="fill:none;fill-rule:evenodd;stroke:#000000;stroke-width:1px;stroke-linecap:butt;stroke-linejoin:miter;stroke-opacity:1;marker-end:url(#marker12958)"
       d="m 451.52845,529.20782 27.80733,-0.2402"
       id="path12766"
       inkscape:connector-curvature="0" />
    <path
       style="fill:none;fill-rule:evenodd;stroke:#000000;stroke-width:1px;stroke-linecap:butt;stroke-linejoin:miter;stroke-opacity:1;marker-end:url(#marker13136)"
       d="m 508.25422,528.78609 25.54357,-0.10005"
       id="path12768"
       inkscape:connector-curvature="0" />
    <path
       style="fill:none;fill-rule:evenodd;stroke:#000000;stroke-width:1px;stroke-linecap:butt;stroke-linejoin:miter;stroke-opacity:1;marker-end:url(#marker13320)"
       d="m 562.71622,528.42447 22.58816,-0.32016"
       id="path12770"
       inkscape:connector-curvature="0" />
    <path
       style="fill:none;fill-rule:evenodd;stroke:#000000;stroke-width:1px;stroke-linecap:butt;stroke-linejoin:miter;stroke-opacity:1;marker-end:url(#marker13510)"
       d="m 614.22281,527.84273 25.54367,-0.10005"
       id="path12772"
       inkscape:connector-curvature="0" />
    <path
       style="fill:none;fill-opacity:1;stroke:#000000;stroke-width:0.66284519;stroke-opacity:1"
       d="m 287.3694,467.29227 a 14.563251,14.563251 0 0 1 -14.56325,14.56325 14.563251,14.563251 0 0 1 -14.56325,-14.56325 14.563251,14.563251 0 0 1 14.56325,-14.56325 14.563251,14.563251 0 0 1 14.56325,14.56325 z"
       id="path6404-4-3"
       inkscape:connector-curvature="0" />
    <path
       style="fill:none;fill-opacity:1;stroke:#000000;stroke-width:0.68532217;stroke-opacity:1"
       d="m 288.11577,593.81372 a 15.057089,15.057089 0 0 1 -15.05708,15.05709 15.057089,15.057089 0 0 1 -15.05709,-15.05709 15.057089,15.057089 0 0 1 15.05709,-15.05709 15.057089,15.057089 0 0 1 15.05708,15.05709 z"
       id="path6404-5-7-6"
       inkscape:connector-curvature="0" />
    <path
       style="fill:none;fill-rule:evenodd;stroke:#000000;stroke-width:1px;stroke-linecap:butt;stroke-linejoin:miter;stroke-opacity:1;marker-end:url(#marker4541)"
       d="M 272.96287,578.75722 272.74718,544.8642"
       id="path3601"
       inkscape:connector-curvature="3" />
    <path
       style="fill:none;fill-rule:evenodd;stroke:#000000;stroke-width:1px;stroke-linecap:butt;stroke-linejoin:miter;stroke-opacity:1;marker-end:url(#marker4703)"
       d="m 272.68976,515.94577 0.0816,-34.09047"
       id="path4695"
       inkscape:connector-curvature="3" />
    <path
       style="fill:none;fill-rule:evenodd;stroke:#000000;stroke-width:1px;stroke-linecap:butt;stroke-linejoin:miter;stroke-opacity:1"
       d="m 328.33266,515.45578 -0.09,-34.15137"
       id="path4863"
       inkscape:connector-curvature="3" />
    <path
       style="fill:none;fill-rule:evenodd;stroke:#000000;stroke-width:1px;stroke-linecap:butt;stroke-linejoin:miter;stroke-opacity:1"
       d="m 328.43634,578.20598 -0.0459,-33.83177"
       id="path4865"
       inkscape:connector-curvature="3" />
    <path
       style="fill:none;fill-rule:evenodd;stroke:#000000;stroke-width:1px;stroke-linecap:butt;stroke-linejoin:miter;stroke-opacity:1"
       d="m 381.88825,577.99266 -0.0459,-33.83177"
       id="path4867"
       inkscape:connector-curvature="3" />
    <path
       style="fill:none;fill-rule:evenodd;stroke:#000000;stroke-width:1px;stroke-linecap:butt;stroke-linejoin:miter;stroke-opacity:1"
       d="m 381.78457,515.24246 -0.09,-34.15134"
       id="path4869"
       inkscape:connector-curvature="3" />
    <path
       style="fill:none;fill-rule:evenodd;stroke:#000000;stroke-width:1px;stroke-linecap:butt;stroke-linejoin:miter;stroke-opacity:1"
       d="m 437.1348,577.6237 -0.0459,-33.83177"
       id="path4871"
       inkscape:connector-curvature="3" />
    <path
       style="fill:none;fill-rule:evenodd;stroke:#000000;stroke-width:1px;stroke-linecap:butt;stroke-linejoin:miter;stroke-opacity:1"
       d="m 437.03112,514.8735 -0.09,-34.15131"
       id="path4873"
       inkscape:connector-curvature="3" />
    <path
       style="fill:none;fill-rule:evenodd;stroke:#000000;stroke-width:1px;stroke-linecap:butt;stroke-linejoin:miter;stroke-opacity:1"
       d="m 493.86057,577.13371 -0.0459,-33.83177"
       id="path4879"
       inkscape:connector-curvature="3" />
    <path
       style="fill:none;fill-rule:evenodd;stroke:#000000;stroke-width:1px;stroke-linecap:butt;stroke-linejoin:miter;stroke-opacity:1"
       d="m 493.75688,514.38351 -0.09,-34.15131"
       id="path4881"
       inkscape:connector-curvature="3" />
    <path
       style="fill:none;fill-rule:evenodd;stroke:#000000;stroke-width:1px;stroke-linecap:butt;stroke-linejoin:miter;stroke-opacity:1"
       d="m 548.32257,576.92039 -0.0459,-33.83177"
       id="path4883"
       inkscape:connector-curvature="3" />
    <path
       style="fill:none;fill-rule:evenodd;stroke:#000000;stroke-width:1px;stroke-linecap:butt;stroke-linejoin:miter;stroke-opacity:1"
       d="m 548.2189,514.17019 -0.09,-34.15124"
       id="path4885"
       inkscape:connector-curvature="3" />
    <path
       style="fill:none;fill-rule:evenodd;stroke:#000000;stroke-width:1px;stroke-linecap:butt;stroke-linejoin:miter;stroke-opacity:1"
       d="m 599.82917,576.19035 -0.0459,-33.83177"
       id="path4887"
       inkscape:connector-curvature="3" />
    <path
       style="fill:none;fill-rule:evenodd;stroke:#000000;stroke-width:1px;stroke-linecap:butt;stroke-linejoin:miter;stroke-opacity:1"
       d="m 599.72548,513.44015 -0.09,-34.15134"
       id="path4889"
       inkscape:connector-curvature="3" />
    <path
       style="fill:none;fill-rule:evenodd;stroke:#000000;stroke-width:1px;stroke-linecap:butt;stroke-linejoin:miter;stroke-opacity:1"
       d="m 654.29126,575.97703 -0.0459,-33.83177"
       id="path4891"
       inkscape:connector-curvature="3" />
    <path
       style="fill:none;fill-rule:evenodd;stroke:#000000;stroke-width:1px;stroke-linecap:butt;stroke-linejoin:miter;stroke-opacity:1"
       d="m 654.18759,513.22683 -0.09,-34.15127"
       id="path4893"
       inkscape:connector-curvature="3" />
  </g>
</svg>
