<?xml version="1.0" encoding="UTF-8" standalone="no"?>
<!-- Created with Inkscape (http://www.inkscape.org/) -->

<svg
   xmlns:dc="http://purl.org/dc/elements/1.1/"
   xmlns:cc="http://creativecommons.org/ns#"
   xmlns:rdf="http://www.w3.org/1999/02/22-rdf-syntax-ns#"
   xmlns:svg="http://www.w3.org/2000/svg"
   xmlns="http://www.w3.org/2000/svg"
   xmlns:sodipodi="http://sodipodi.sourceforge.net/DTD/sodipodi-0.dtd"
   xmlns:inkscape="http://www.inkscape.org/namespaces/inkscape"
   width="161.4341mm"
   height="51.051582mm"
   viewBox="0 0 572.01057 180.89143"
   id="svg5542"
   version="1.1"
   inkscape:version="0.91 r13725"
   sodipodi:docname="simplernngatto-topath.svg">
  <defs
     id="defs5544">
    <marker
       inkscape:isstock="true"
       style="overflow:visible"
       id="marker6781"
       refX="0"
       refY="0"
       orient="auto"
       inkscape:stockid="Arrow1Mend">
      <path
         transform="matrix(-0.4,0,0,-0.4,-4,0)"
         style="fill:#000000;fill-opacity:1;fill-rule:evenodd;stroke:#000000;stroke-width:1pt;stroke-opacity:1"
         d="M 0,0 5,-5 -12.5,0 5,5 0,0 Z"
         id="path6783"
         inkscape:connector-curvature="0" />
    </marker>
    <marker
       inkscape:isstock="true"
       style="overflow:visible"
       id="marker6739"
       refX="0"
       refY="0"
       orient="auto"
       inkscape:stockid="Arrow1Mend">
      <path
         transform="matrix(-0.4,0,0,-0.4,-4,0)"
         style="fill:#000000;fill-opacity:1;fill-rule:evenodd;stroke:#000000;stroke-width:1pt;stroke-opacity:1"
         d="M 0,0 5,-5 -12.5,0 5,5 0,0 Z"
         id="path6741"
         inkscape:connector-curvature="0" />
    </marker>
    <marker
       inkscape:stockid="Arrow1Mend"
       orient="auto"
       refY="0"
       refX="0"
       id="Arrow1Mend"
       style="overflow:visible"
       inkscape:isstock="true"
       inkscape:collect="always">
      <path
         id="path6440"
         d="M 0,0 5,-5 -12.5,0 5,5 0,0 Z"
         style="fill:#000000;fill-opacity:1;fill-rule:evenodd;stroke:#000000;stroke-width:1pt;stroke-opacity:1"
         transform="matrix(-0.4,0,0,-0.4,-4,0)"
         inkscape:connector-curvature="0" />
    </marker>
    <marker
       inkscape:stockid="Arrow1Lend"
       orient="auto"
       refY="0"
       refX="0"
       id="Arrow1Lend"
       style="overflow:visible"
       inkscape:isstock="true">
      <path
         id="path6434"
         d="M 0,0 5,-5 -12.5,0 5,5 0,0 Z"
         style="fill:#000000;fill-opacity:1;fill-rule:evenodd;stroke:#000000;stroke-width:1pt;stroke-opacity:1"
         transform="matrix(-0.8,0,0,-0.8,-10,0)"
         inkscape:connector-curvature="0" />
    </marker>
  </defs>
  <sodipodi:namedview
     id="base"
     pagecolor="#ffffff"
     bordercolor="#666666"
     borderopacity="1.0"
     inkscape:pageopacity="0.0"
     inkscape:pageshadow="2"
     inkscape:zoom="1.979899"
     inkscape:cx="180.46638"
     inkscape:cy="48.596537"
     inkscape:document-units="px"
     inkscape:current-layer="layer1"
     showgrid="false"
     showguides="false"
     inkscape:window-width="2560"
     inkscape:window-height="1376"
     inkscape:window-x="0"
     inkscape:window-y="27"
     inkscape:window-maximized="1"
     fit-margin-top="0"
     fit-margin-left="0"
     fit-margin-right="0"
     fit-margin-bottom="0" />
  <metadata
     id="metadata5547">
    <rdf:RDF>
      <cc:Work
         rdf:about="">
        <dc:format>image/svg+xml</dc:format>
        <dc:type
           rdf:resource="http://purl.org/dc/dcmitype/StillImage" />
        <dc:title></dc:title>
      </cc:Work>
    </rdf:RDF>
  </metadata>
  <g
     inkscape:label="Layer 1"
     inkscape:groupmode="layer"
     id="layer1"
     transform="translate(27.03323,-438.18945)">
    <rect
       style="fill:#ffffff;fill-opacity:1;stroke:none;stroke-opacity:1"
       id="rect8450"
       width="473.9119"
       height="179.99998"
       x="-27.03323"
       y="439.0809" />
    <g
       id="g8436"
       transform="translate(134.35029,0)">
      <g
         id="flowRoot8229"
         style="font-style:normal;font-weight:normal;font-size:5px;line-height:125%;font-family:sans-serif;letter-spacing:0px;word-spacing:0px;fill:#000000;fill-opacity:1;stroke:none;stroke-width:1px;stroke-linecap:butt;stroke-linejoin:miter;stroke-opacity:1"
         transform="translate(77.781746,9.0913732)">
        <path
           id="path8426"
           style="font-size:22.5px"
           d="m 56.086426,573.32627 2.03247,0 0,10.09644 6.031495,-5.3064 2.581787,0 -6.525879,5.75684 6.800537,6.54785 -2.636719,0 -6.251221,-6.00952 0,6.00952 -2.03247,0 0,-17.09473 z"
           inkscape:connector-curvature="0" />
        <path
           id="path8428"
           style="font-size:22.5px"
           d="m 96.296387,584.23569 q -2.449951,0 -3.394776,0.56031 -0.944824,0.5603 -0.944824,1.91162 0,1.07666 0.703125,1.71387 0.714111,0.62622 1.933594,0.62622 1.680908,0 2.69165,-1.18653 1.021729,-1.19751 1.021729,-3.17505 l 0,-0.45044 -2.010498,0 z m 4.031983,-0.83496 0,7.02027 -2.021485,0 0,-1.86768 q -0.692139,1.12061 -1.724854,1.65894 -1.032715,0.52734 -2.526855,0.52734 -1.889649,0 -3.010254,-1.05469 -1.109619,-1.06567 -1.109619,-2.84546 0,-2.07641 1.384277,-3.1311 1.395264,-1.05469 4.152832,-1.05469 l 2.834473,0 0,-0.19775 q 0,-1.39526 -0.922852,-2.15332 -0.911865,-0.76904 -2.570801,-0.76904 -1.054687,0 -2.054443,0.25268 -0.999756,0.25269 -1.922607,0.75806 l 0,-1.86768 q 1.109619,-0.42846 2.15332,-0.63721 1.043701,-0.21972 2.032471,-0.21972 2.669677,0 3.988037,1.38428 1.31836,1.38427 1.31836,4.19677 z"
           inkscape:connector-curvature="0" />
        <path
           id="path8430"
           style="font-size:22.5px"
           d="m 127.99194,574.62266 0,3.49365 4.16382,0 0,1.57104 -4.16382,0 0,6.67969 q 0,1.50513 0.4065,1.9336 0.41748,0.42846 1.68091,0.42846 l 2.07641,0 0,1.6919 -2.07641,0 q -2.34009,0 -3.22998,-0.86792 -0.8899,-0.87891 -0.8899,-3.18604 l 0,-6.67969 -1.48315,0 0,-1.57104 1.48315,0 0,-3.49365 2.03247,0 z"
           inkscape:connector-curvature="0" />
        <path
           id="path8432"
           style="font-size:22.5px"
           d="m 155.43579,578.11631 9.60205,0 0,1.8457 -7.60254,8.844 7.60254,0 0,1.61499 -9.87671,0 0,-1.84571 7.60254,-8.84399 -7.32788,0 0,-1.61499 z"
           inkscape:connector-curvature="0" />
        <path
           id="path8434"
           style="font-size:22.5px"
           d="m 200.15015,583.76328 0,0.98877 -9.29444,0 q 0.13184,2.0874 1.25244,3.18604 1.1316,1.08764 3.14209,1.08764 1.16455,0 2.2522,-0.28564 1.09863,-0.28565 2.17529,-0.85694 l 0,1.91163 q -1.08764,0.46142 -2.23022,0.70312 -1.14258,0.2417 -2.31812,0.2417 -2.94433,0 -4.66918,-1.71387 -1.71387,-1.71386 -1.71387,-4.63623 0,-3.02124 1.62597,-4.79004 1.63697,-1.77978 4.40552,-1.77978 2.48291,0 3.92212,1.604 1.4502,1.59302 1.4502,4.3396 z m -2.02149,-0.59326 q -0.022,-1.65894 -0.93384,-2.6477 -0.90087,-0.98877 -2.39502,-0.98877 -1.69189,0 -2.71362,0.95581 -1.01074,0.95581 -1.16455,2.69165 l 7.20703,-0.011 z"
           inkscape:connector-curvature="0" />
      </g>
      <g
         id="flowRoot8229-3"
         style="font-style:normal;font-weight:normal;font-size:5px;line-height:125%;font-family:sans-serif;letter-spacing:0px;word-spacing:0px;fill:#000000;fill-opacity:1;stroke:none;stroke-width:1px;stroke-linecap:butt;stroke-linejoin:miter;stroke-opacity:1"
         transform="translate(175.93763,-117.07444)">
        <path
           id="path8415"
           style="font-size:22.5px;fill:#ff0000;fill-opacity:1"
           d="m 64.260254,584.12583 q 0,-2.19726 -0.911865,-3.40576 -0.900879,-1.2085 -2.537842,-1.2085 -1.625977,0 -2.537842,1.2085 -0.900879,1.2085 -0.900879,3.40576 0,2.18628 0.900879,3.39478 0.911865,1.20849 2.537842,1.20849 1.636963,0 2.537842,-1.20849 0.911865,-1.2085 0.911865,-3.39478 z m 2.021484,4.76807 q 0,3.14209 -1.395263,4.66919 -1.395264,1.53808 -4.273682,1.53808 -1.065674,0 -2.010498,-0.16479 -0.944824,-0.15381 -1.834717,-0.4834 l 0,-1.96655 q 0.889893,0.48339 1.757813,0.71411 0.86792,0.23071 1.768798,0.23071 1.988526,0 2.977295,-1.0437 0.98877,-1.03272 0.98877,-3.1311 l 0,-0.99976 q -0.626221,1.08765 -1.604004,1.62598 -0.977783,0.53833 -2.340088,0.53833 -2.263183,0 -3.647461,-1.72486 -1.384277,-1.72485 -1.384277,-4.57031 0,-2.85644 1.384277,-4.5813 1.384278,-1.72485 3.647461,-1.72485 1.362305,0 2.340088,0.53833 0.977783,0.53833 1.604004,1.62598 l 0,-1.86768 2.021484,0 0,10.77759 z"
           inkscape:connector-curvature="0" />
        <path
           id="path8417"
           style="font-size:22.5px;fill:#ff0000;fill-opacity:1"
           d="m 97.526855,584.23569 q -2.449951,0 -3.394775,0.56031 -0.944824,0.5603 -0.944824,1.91162 0,1.07666 0.703125,1.71387 0.714111,0.62622 1.933594,0.62622 1.680908,0 2.69165,-1.18653 1.021729,-1.19751 1.021729,-3.17505 l 0,-0.45044 -2.010499,0 z m 4.031985,-0.83496 0,7.02027 -2.021486,0 0,-1.86768 q -0.692139,1.12061 -1.724854,1.65894 -1.032715,0.52734 -2.526855,0.52734 -1.889649,0 -3.010254,-1.05469 -1.10962,-1.06567 -1.10962,-2.84546 0,-2.07641 1.384278,-3.1311 1.395263,-1.05469 4.152832,-1.05469 l 2.834473,0 0,-0.19775 q 0,-1.39526 -0.922852,-2.15332 -0.911865,-0.76904 -2.570801,-0.76904 -1.054687,0 -2.054443,0.25268 -0.999756,0.25269 -1.922608,0.75806 l 0,-1.86768 q 1.10962,-0.42846 2.153321,-0.63721 1.043701,-0.21972 2.03247,-0.21972 2.669678,0 3.988039,1.38428 1.31836,1.38427 1.31836,4.19677 z"
           inkscape:connector-curvature="0" />
        <path
           id="path8419"
           style="font-size:22.5px;fill:#ff0000;fill-opacity:1"
           d="m 129.22241,574.62266 0,3.49365 4.16382,0 0,1.57104 -4.16382,0 0,6.67969 q 0,1.50513 0.4065,1.9336 0.41748,0.42846 1.6809,0.42846 l 2.07642,0 0,1.6919 -2.07642,0 q -2.34008,0 -3.22998,-0.86792 -0.88989,-0.87891 -0.88989,-3.18604 l 0,-6.67969 -1.48315,0 0,-1.57104 1.48315,0 0,-3.49365 2.03247,0 z"
           inkscape:connector-curvature="0" />
        <path
           id="path8421"
           style="font-size:22.5px;fill:#ff0000;fill-opacity:1"
           d="m 159.54468,574.62266 0,3.49365 4.16382,0 0,1.57104 -4.16382,0 0,6.67969 q 0,1.50513 0.40649,1.9336 0.41748,0.42846 1.68091,0.42846 l 2.07642,0 0,1.6919 -2.07642,0 q -2.34009,0 -3.22998,-0.86792 -0.88989,-0.87891 -0.88989,-3.18604 l 0,-6.67969 -1.48316,0 0,-1.57104 1.48316,0 0,-3.49365 2.03247,0 z"
           inkscape:connector-curvature="0" />
        <path
           id="path8423"
           style="font-size:22.5px;fill:#ff0000;fill-opacity:1"
           d="m 192.6355,579.53355 q -1.62598,0 -2.5708,1.27441 -0.94483,1.26343 -0.94483,3.47168 0,2.20825 0.93384,3.48267 0.94483,1.26342 2.58179,1.26342 1.61499,0 2.55981,-1.27441 0.94483,-1.27442 0.94483,-3.47168 0,-2.18628 -0.94483,-3.46069 -0.94482,-1.2854 -2.55981,-1.2854 z m 0,-1.71387 q 2.63672,0 4.14184,1.71387 1.50513,1.71386 1.50513,4.74609 0,3.02124 -1.50513,4.74609 -1.50512,1.71387 -4.14184,1.71387 -2.64771,0 -4.15283,-1.71387 -1.49414,-1.72485 -1.49414,-4.74609 0,-3.03223 1.49414,-4.74609 1.50512,-1.71387 4.15283,-1.71387 z"
           inkscape:connector-curvature="0" />
      </g>
    </g>
    <rect
       style="fill:#dedede;fill-opacity:1;stroke:none;stroke-width:0;stroke-linecap:round;stroke-linejoin:round;stroke-miterlimit:4;stroke-dasharray:none;stroke-dashoffset:0;stroke-opacity:1"
       id="rect11175"
       width="101.01525"
       height="180.81731"
       x="-26.528154"
       y="437.75851" />
    <path
       style="display:inline;fill:none;fill-rule:evenodd;stroke:#000000;stroke-width:1px;stroke-linecap:butt;stroke-linejoin:miter;stroke-opacity:1;marker-end:url(#Arrow1Mend)"
       d="m -27.03323,438.18945 0,0"
       id="path6396"
       inkscape:connector-type="polyline"
       inkscape:connector-curvature="3"
       inkscape:connection-end="#path6404"
       inkscape:connection-start="#rect5550" />
    <path
       style="fill:none;fill-rule:evenodd;stroke:#000000;stroke-width:1px;stroke-linecap:butt;stroke-linejoin:miter;stroke-opacity:1;marker-end:url(#marker6739)"
       d="m -27.03323,438.18945 0,0"
       id="path6423"
       inkscape:connector-type="polyline"
       inkscape:connector-curvature="3"
       inkscape:connection-start="#path6404-5"
       inkscape:connection-end="#rect5550" />
    <g
       id="g8225"
       transform="matrix(1,0,0,-1,0,1057.9528)">
      <rect
         y="506.83356"
         x="250.50041"
         height="44.285713"
         width="44.285713"
         id="rect5550"
         style="fill:#ffffff;fill-opacity:1;fill-rule:evenodd;stroke:#000000;stroke-width:1px;stroke-linecap:butt;stroke-linejoin:miter;stroke-opacity:1" />
      <path
         sodipodi:nodetypes="cc"
         inkscape:connector-curvature="0"
         id="path6773"
         d="m 250.03307,535.88098 c -31.78208,36.13734 -33.66163,-41.92361 -1.01016,-9.59645"
         style="fill:none;fill-rule:evenodd;stroke:#000000;stroke-width:1px;stroke-linecap:butt;stroke-linejoin:miter;stroke-opacity:1;marker-end:url(#marker6781)" />
    </g>
    <rect
       style="fill:#ffffff;fill-opacity:1;stroke:none;stroke-opacity:1"
       id="rect8277"
       width="261.50571"
       height="58.083771"
       x="283.47162"
       y="438.18945" />
    <circle
       style="fill:none;fill-opacity:1;stroke:#000000;stroke-opacity:1"
       id="path6404"
       cx="272.48865"
       cy="467.23135"
       r="21.970818" />
    <circle
       style="fill:none;fill-opacity:1;stroke:#000000;stroke-opacity:1"
       id="path6404-5"
       cx="272.74118"
       cy="593.75293"
       r="21.970818" />
    <text
       xml:space="preserve"
       style="font-style:normal;font-weight:normal;font-size:15px;line-height:125%;font-family:sans-serif;letter-spacing:0px;word-spacing:0px;fill:#000000;fill-opacity:1;stroke:none;stroke-width:1px;stroke-linecap:butt;stroke-linejoin:miter;stroke-opacity:1"
       x="255.55693"
       y="533.97552"
       id="text8927"
       sodipodi:linespacing="125%"><tspan
         sodipodi:role="line"
         id="tspan8929"
         x="255.55693"
         y="533.97552">RNN</tspan></text>
    <text
       xml:space="preserve"
       style="font-style:normal;font-weight:normal;font-size:15px;line-height:125%;font-family:sans-serif;letter-spacing:0px;word-spacing:0px;fill:#000000;fill-opacity:1;stroke:none;stroke-width:1px;stroke-linecap:butt;stroke-linejoin:miter;stroke-opacity:1"
       x="276.51758"
       y="500.6405"
       id="o"
       sodipodi:linespacing="125%"><tspan
         sodipodi:role="line"
         id="tspan8943"
         x="276.51758"
         y="500.6405">o<tspan
   style="font-size:64.99999762%;baseline-shift:sub"
   id="tspan8945">t</tspan></tspan></text>
    <text
       xml:space="preserve"
       style="font-style:normal;font-weight:normal;font-size:15px;line-height:125%;font-family:sans-serif;letter-spacing:0px;word-spacing:0px;fill:#000000;fill-opacity:1;stroke:none;stroke-width:1px;stroke-linecap:butt;stroke-linejoin:miter;stroke-opacity:1"
       x="276.51761"
       y="566.55298"
       id="i"
       sodipodi:linespacing="125%"><tspan
         sodipodi:role="line"
         id="tspan8949"
         x="276.51761"
         y="566.55298">i<tspan
   style="font-size:65%;baseline-shift:sub"
   id="tspan8951">t</tspan></tspan></text>
    <text
       xml:space="preserve"
       style="font-style:normal;font-weight:normal;font-size:15px;line-height:125%;font-family:sans-serif;letter-spacing:0px;word-spacing:0px;fill:#000000;fill-opacity:1;stroke:none;stroke-width:1px;stroke-linecap:butt;stroke-linejoin:miter;stroke-opacity:1"
       x="201.26125"
       y="529.93494"
       id="h"
       sodipodi:linespacing="125%"><tspan
         sodipodi:role="line"
         id="tspan8955"
         x="201.26125"
         y="529.93494">h<tspan
   style="font-size:64.99999762%;baseline-shift:sub"
   id="tspan8957">t-1</tspan></tspan></text>
    <rect
       style="fill:none;fill-opacity:1;stroke:none;stroke-opacity:1"
       id="rect8959"
       width="117.68277"
       height="174.75636"
       x="-27.03323"
       y="441.7991" />
    <g
       transform="matrix(1.4538618,0,0,1.4538618,-16.000571,436.50338)"
       style="font-style:normal;font-weight:normal;font-size:15px;line-height:125%;font-family:sans-serif;letter-spacing:0px;word-spacing:0px;fill:#000000;fill-opacity:1;stroke:none;stroke-width:1px;stroke-linecap:butt;stroke-linejoin:miter;stroke-opacity:1"
       id="flowRoot8961">
      <path
         d="m 5.4545898,16.923894 1.3476563,0 0,8.203125 -1.3476563,0 0,-8.203125 z m 0,-3.19336 1.3476563,0 0,1.706543 -1.3476563,0 0,-1.706543 z"
         style=""
         id="path11178" />
      <path
         d="m 10.947754,14.594792 0,2.329102 2.775879,0 0,1.047363 -2.775879,0 0,4.453125 q 0,1.003418 0.270996,1.289062 0.27832,0.285645 1.120605,0.285645 l 1.384278,0 0,1.12793 -1.384278,0 q -1.560058,0 -2.15332,-0.578614 -0.5932616,-0.585937 -0.5932616,-2.124023 l 0,-4.453125 -0.9887695,0 0,-1.047363 0.9887695,0 0,-2.329102 1.3549806,0 z"
         style=""
         id="path11180" />
      <path
         d="m 19.231445,21.003484 q -1.6333,0 -2.263183,0.373535 -0.629883,0.373535 -0.629883,1.274414 0,0.717773 0.46875,1.142578 0.476074,0.41748 1.289062,0.41748 1.120606,0 1.794434,-0.791015 0.681152,-0.79834 0.681152,-2.1167 l 0,-0.300292 -1.340332,0 z m 2.687989,-0.556641 0,4.680176 -1.347657,0 0,-1.245118 q -0.461425,0.747071 -1.149902,1.105958 -0.688477,0.351562 -1.68457,0.351562 -1.259766,0 -2.006836,-0.703125 -0.739746,-0.710449 -0.739746,-1.896973 0,-1.384277 0.922851,-2.087402 0.930176,-0.703125 2.768555,-0.703125 l 1.889648,0 0,-0.131836 q 0,-0.930176 -0.615234,-1.435547 -0.60791,-0.512695 -1.713867,-0.512695 -0.703125,0 -1.369629,0.168457 -0.666504,0.168457 -1.281738,0.505371 l 0,-1.245117 q 0.739746,-0.285645 1.435546,-0.424805 0.695801,-0.146484 1.354981,-0.146484 1.779785,0 2.658691,0.922851 0.878907,0.922852 0.878907,2.797852 z"
         style=""
         id="path11182" />
      <path
         d="m 24.702637,13.730534 1.347656,0 0,11.396485 -1.347656,0 0,-11.396485 z"
         style=""
         id="path11184" />
      <path
         d="m 28.862793,16.923894 1.347656,0 0,8.203125 -1.347656,0 0,-8.203125 z m 0,-3.19336 1.347656,0 0,1.706543 -1.347656,0 0,-1.706543 z"
         style=""
         id="path11186" />
      <path
         d="m 36.750977,21.003484 q -1.633301,0 -2.263184,0.373535 -0.629883,0.373535 -0.629883,1.274414 0,0.717773 0.46875,1.142578 0.476074,0.41748 1.289063,0.41748 1.120605,0 1.794433,-0.791015 0.681153,-0.79834 0.681153,-2.1167 l 0,-0.300292 -1.340332,0 z m 2.687988,-0.556641 0,4.680176 -1.347656,0 0,-1.245118 q -0.461426,0.747071 -1.149903,1.105958 -0.688476,0.351562 -1.68457,0.351562 -1.259766,0 -2.006836,-0.703125 -0.739746,-0.710449 -0.739746,-1.896973 0,-1.384277 0.922851,-2.087402 0.930176,-0.703125 2.768555,-0.703125 l 1.889649,0 0,-0.131836 q 0,-0.930176 -0.615235,-1.435547 -0.60791,-0.512695 -1.713867,-0.512695 -0.703125,0 -1.369629,0.168457 -0.666504,0.168457 -1.281738,0.505371 l 0,-1.245117 q 0.739746,-0.285645 1.435547,-0.424805 0.6958,-0.146484 1.35498,-0.146484 1.779785,0 2.658692,0.922851 0.878906,0.922852 0.878906,2.797852 z"
         style=""
         id="path11188" />
      <path
         d="m 49.041016,20.175847 0,4.951172 -1.347657,0 0,-4.907227 q 0,-1.164551 -0.454101,-1.743164 -0.454102,-0.578613 -1.362305,-0.578613 -1.091308,0 -1.721191,0.695801 -0.629883,0.6958 -0.629883,1.896972 l 0,4.636231 -1.354981,0 0,-8.203125 1.354981,0 0,1.274414 q 0.483398,-0.739746 1.135254,-1.105957 0.659179,-0.366211 1.516113,-0.366211 1.413574,0 2.138672,0.878906 0.725098,0.871582 0.725098,2.570801 z"
         style=""
         id="path11190" />
      <path
         d="m 52.087891,23.266667 1.54541,0 0,1.860352 -1.54541,0 0,-1.860352 z m 0,-5.895996 1.54541,0 0,1.860352 -1.54541,0 0,-1.860352 z"
         style=""
         id="path11192" />
    </g>
    <g
       transform="matrix(1.4538618,0,0,1.4538618,-30.591094,558.44134)"
       style="font-style:normal;font-weight:normal;font-size:15px;line-height:125%;font-family:sans-serif;letter-spacing:0px;word-spacing:0px;fill:#000000;fill-opacity:1;stroke:none;stroke-width:1px;stroke-linecap:butt;stroke-linejoin:miter;stroke-opacity:1"
       id="flowRoot8961-6">
      <path
         d="m 10.852539,20.930241 q 0,-1.464843 -0.60791,-2.270507 -0.600586,-0.805665 -1.6918946,-0.805665 -1.0839844,0 -1.6918946,0.805665 -0.6005859,0.805664 -0.6005859,2.270507 0,1.45752 0.6005859,2.263184 0.6079102,0.805664 1.6918946,0.805664 1.0913086,0 1.6918946,-0.805664 0.60791,-0.805664 0.60791,-2.263184 z m 1.347656,3.178711 q 0,2.094727 -0.930175,3.112793 -0.930176,1.025391 -2.8491216,1.025391 -0.7104492,0 -1.340332,-0.109863 -0.6298828,-0.102539 -1.2231445,-0.322266 l 0,-1.311035 q 0.5932617,0.322265 1.171875,0.476074 0.5786133,0.153809 1.1791992,0.153809 1.3256836,0 1.9848629,-0.695801 0.65918,-0.688477 0.65918,-2.087403 l 0,-0.666503 q -0.41748,0.725097 -1.0693359,1.083984 -0.6518554,0.358887 -1.5600586,0.358887 -1.508789,0 -2.4316406,-1.149903 -0.9228516,-1.149902 -0.9228516,-3.046875 0,-1.904297 0.9228516,-3.054199 0.9228516,-1.149902 2.4316406,-1.149902 0.9082032,0 1.5600586,0.358886 0.6518559,0.358887 1.0693359,1.083985 l 0,-1.245117 1.347656,0 0,7.185058 z"
         style=""
         id="path11195" />
      <path
         d="m 21.992676,20.688542 0,0.65918 -6.196289,0 q 0.08789,1.391601 0.834961,2.124023 0.754394,0.725098 2.094726,0.725098 0.776367,0 1.501465,-0.19043 0.732422,-0.190429 1.450195,-0.571289 l 0,1.274414 q -0.725097,0.307617 -1.486816,0.46875 -0.761719,0.161133 -1.54541,0.161133 -1.962891,0 -3.112793,-1.142578 -1.142578,-1.142578 -1.142578,-3.09082 0,-2.014161 1.083984,-3.19336 1.091309,-1.186523 2.937012,-1.186523 1.655273,0 2.614746,1.069336 0.966797,1.062011 0.966797,2.893066 z M 20.64502,20.293034 q -0.01465,-1.105957 -0.622559,-1.765136 -0.600586,-0.65918 -1.59668,-0.65918 -1.127929,0 -1.809082,0.637207 -0.673828,0.637207 -0.776367,1.794434 l 4.804688,-0.0073 z"
         style=""
         id="path11197" />
      <path
         d="m 28.958008,18.183659 q -0.227051,-0.131836 -0.498047,-0.190429 -0.263672,-0.06592 -0.585938,-0.06592 -1.142578,0 -1.757812,0.74707 -0.60791,0.739746 -0.60791,2.131348 l 0,4.321289 -1.354981,0 0,-8.203125 1.354981,0 0,1.274414 q 0.424804,-0.747071 1.105957,-1.105957 0.681152,-0.366211 1.655273,-0.366211 0.13916,0 0.307617,0.02197 0.168457,0.01465 0.373536,0.05127 l 0.0073,1.384277 z"
         style=""
         id="path11199" />
      <path
         d="m 36.509277,18.498601 q 0.505371,-0.908203 1.208496,-1.340332 0.703125,-0.432129 1.655274,-0.432129 1.281738,0 1.977539,0.900879 0.695801,0.893554 0.695801,2.548828 l 0,4.951172 -1.354981,0 0,-4.907227 q 0,-1.179199 -0.41748,-1.750488 -0.417481,-0.571289 -1.274414,-0.571289 -1.047364,0 -1.655274,0.695801 -0.60791,0.6958 -0.60791,1.896972 l 0,4.636231 -1.35498,0 0,-4.907227 q 0,-1.186523 -0.417481,-1.750488 -0.41748,-0.571289 -1.289062,-0.571289 -1.032715,0 -1.640625,0.703125 -0.60791,0.695801 -0.60791,1.889648 l 0,4.636231 -1.354981,0 0,-8.203125 1.354981,0 0,1.274414 q 0.461425,-0.754395 1.105957,-1.113282 0.644531,-0.358886 1.530761,-0.358886 0.893555,0 1.516114,0.454101 0.629882,0.454102 0.930175,1.31836 z"
         style=""
         id="path11201" />
      <path
         d="m 48.469727,21.003484 q -1.633301,0 -2.263184,0.373535 -0.629883,0.373535 -0.629883,1.274414 0,0.717773 0.46875,1.142578 0.476074,0.41748 1.289063,0.41748 1.120605,0 1.794433,-0.791015 0.681153,-0.79834 0.681153,-2.1167 l 0,-0.300292 -1.340332,0 z m 2.687988,-0.556641 0,4.680176 -1.347656,0 0,-1.245118 q -0.461426,0.747071 -1.149903,1.105958 -0.688476,0.351562 -1.68457,0.351562 -1.259766,0 -2.006836,-0.703125 -0.739746,-0.710449 -0.739746,-1.896973 0,-1.384277 0.922851,-2.087402 0.930176,-0.703125 2.768555,-0.703125 l 1.889649,0 0,-0.131836 q 0,-0.930176 -0.615235,-1.435547 -0.60791,-0.512695 -1.713867,-0.512695 -0.703125,0 -1.369629,0.168457 -0.666504,0.168457 -1.281738,0.505371 l 0,-1.245117 q 0.739746,-0.285645 1.435547,-0.424805 0.6958,-0.146484 1.35498,-0.146484 1.779785,0 2.658692,0.922851 0.878906,0.922852 0.878906,2.797852 z"
         style=""
         id="path11203" />
      <path
         d="m 60.759766,20.175847 0,4.951172 -1.347657,0 0,-4.907227 q 0,-1.164551 -0.454101,-1.743164 -0.454102,-0.578613 -1.362305,-0.578613 -1.091308,0 -1.721191,0.695801 -0.629883,0.6958 -0.629883,1.896972 l 0,4.636231 -1.354981,0 0,-8.203125 1.354981,0 0,1.274414 q 0.483398,-0.739746 1.135254,-1.105957 0.659179,-0.366211 1.516113,-0.366211 1.413574,0 2.138672,0.878906 0.725098,0.871582 0.725098,2.570801 z"
         style=""
         id="path11205" />
      <path
         d="m 63.806641,23.266667 1.54541,0 0,1.860352 -1.54541,0 0,-1.860352 z m 0,-5.895996 1.54541,0 0,1.860352 -1.54541,0 0,-1.860352 z"
         style=""
         id="path11207" />
    </g>
  </g>
</svg>
