<?xml version="1.0" encoding="UTF-8" standalone="no"?>
<!-- Created with Inkscape (http://www.inkscape.org/) -->

<svg
   xmlns:dc="http://purl.org/dc/elements/1.1/"
   xmlns:cc="http://creativecommons.org/ns#"
   xmlns:rdf="http://www.w3.org/1999/02/22-rdf-syntax-ns#"
   xmlns:svg="http://www.w3.org/2000/svg"
   xmlns="http://www.w3.org/2000/svg"
   xmlns:sodipodi="http://sodipodi.sourceforge.net/DTD/sodipodi-0.dtd"
   xmlns:inkscape="http://www.inkscape.org/namespaces/inkscape"
   id="svg2"
   version="1.1"
   inkscape:version="0.91 r13725"
   xml:space="preserve"
   width="142.5"
   height="46.25"
   viewBox="0 0 142.5 46.25"
   sodipodi:docname="UniBas_Logo_EN_Schwarz_RGB_65-eps-converted-to.svg"><metadata
     id="metadata8"><rdf:RDF><cc:Work
         rdf:about=""><dc:format>image/svg+xml</dc:format><dc:type
           rdf:resource="http://purl.org/dc/dcmitype/StillImage" /><dc:title></dc:title></cc:Work></rdf:RDF></metadata><defs
     id="defs6"><clipPath
       clipPathUnits="userSpaceOnUse"
       id="clipPath18"><path
         d="m 0,0 1133.86,0 0,368.508 L 0,368.508 0,0 Z"
         id="path20"
         inkscape:connector-curvature="0" /></clipPath></defs><sodipodi:namedview
     pagecolor="#ffffff"
     bordercolor="#666666"
     borderopacity="1"
     objecttolerance="10"
     gridtolerance="10"
     guidetolerance="10"
     inkscape:pageopacity="0"
     inkscape:pageshadow="2"
     inkscape:window-width="744"
     inkscape:window-height="480"
     id="namedview4"
     showgrid="false"
     inkscape:zoom="4.1684211"
     inkscape:cx="29.507576"
     inkscape:cy="23.125"
     inkscape:window-x="0"
     inkscape:window-y="27"
     inkscape:window-maximized="0"
     inkscape:current-layer="g10" /><g
     id="g10"
     inkscape:groupmode="layer"
     inkscape:label="UniBas_Logo_EN_Schwarz_RGB_65-eps-converted-to"
     transform="matrix(1.25,0,0,-1.25,0,46.25)"><g
       id="g12"
       transform="scale(0.1,0.1)"><g
         id="g14"><g
           id="g16"
           clip-path="url(#clipPath18)"><path
             d="m 530.211,39.3125 c 0,5.0391 -1,9.3555 -1.438,11.0781 -4.316,18.1563 -17.273,23.9063 -24.183,25.9219 -5.18,1.4453 -9.649,1.5938 -11.668,1.5938 -6.34,0 -25.192,-1.4532 -33.973,-19.8829 -4.039,-8.0507 -4.32,-15.9765 -4.32,-19.1523 0,-22.8867 14.68,-38.718756 37.719,-38.718756 18.144,0 32.246,9.499996 36.425,27.488256 0.438,1.5938 1.438,6.6328 1.438,11.6719 M 512.5,39.4531 c -0.133,-9.0781 -2.008,-21.4492 -10.215,-26.9297 -1.594,-1 -4.613,-2.73434 -9.363,-2.73434 -4.461,0 -8.348,1.44534 -11.656,4.32814 -5.039,4.3125 -7.207,10.3555 -8.215,16.6992 -0.145,1.293 -0.571,4.7578 -0.571,8.4961 0,14.1172 4.747,22.0195 9.786,25.625 4.172,3.0273 8.355,3.3047 10.214,3.3047 1.883,0 5.629,-0.2774 9.516,-2.7305 C 512.938,58.6055 512.5,41.4805 512.5,39.4531 m 33.777,36.5625 -11.222,0 0,-11.5078 11.222,0 0,-62.48436 17.137,0 0,62.48436 13.109,0 0,11.5078 -13.109,0 0,14.8399 c 0,1.1562 -0.723,8.7773 5.469,10.9415 1.738,0.73 3.472,0.73 4.031,0.73 1.582,0 2.887,-0.441 3.453,-0.73 l 0.156,11.234 c -1.734,0 -11.378,0.715 -18.578,-2.457 -11.379,-5.039 -11.379,-19.1443 -11.515,-21.8826 -0.153,-1.7344 -0.153,-3.4531 -0.153,-5.0312 l 0,-7.6446 z m 87.258,-73.99216 31.813,0 c 7.211,0.13281 10.226,0.57422 13.828,1.4375 13.097,3.16015 19.578,11.94536 21.746,16.55856 2.16,4.6133 2.297,9.0664 2.297,10.7969 0,9.3594 -4.024,14.2578 -6.625,16.9961 -1.285,1.1406 -2.59,2.3047 -3.883,3.5859 l -5.617,5.1875 c 5.894,6.3399 12.101,12.8243 12.101,22.0352 0,2.7383 -0.715,8.3359 -5.34,14.1094 -8.05,10.3715 -18.996,10.8005 -23.605,10.9295 -2.02,0.145 -4.187,0.145 -6.191,0 l -30.524,0 0,-101.63656 z m 17.574,89.69536 c 2.145,1.1406 5.743,2.875 11.645,2.875 7.934,0 16.285,-3.4493 20.156,-10.6446 0.59,-1.0039 1.871,-3.4609 1.871,-6.7695 0,-5.4766 -4.019,-9.8008 -4.879,-10.8008 -3.75,-4.1758 -8.929,-8.2148 -8.929,-13.8164 0,-1.7266 0.433,-3.3086 1.293,-4.9023 0.57,-0.8633 1.734,-2.4454 3.597,-4.3164 4.606,-4.3165 10.66,-7.9297 10.66,-14.9766 0,-4.1758 -1.582,-8.0586 -4.476,-11.082 -4.313,-4.7618 -10.504,-6.1875 -16.699,-6.1875 -7.055,0 -11.231,1.5703 -14.102,2.4296 l -0.137,78.1915 z M 785.637,76.8906 776.426,71.418 c -12.676,5.1875 -16.848,6.4883 -24.34,6.4883 -14.258,0 -27.793,-7.3555 -34.125,-20.168 -3.883,-7.918 -4.176,-16.1172 -4.176,-19.0039 0,-9.7891 3.309,-16.8438 5.039,-20.1641 2.453,-4.168 5.192,-6.9101 6.485,-8.2031 9.5,-8.21095 21.308,-8.05861 25.195,-8.21095 2.582,-0.13281 5.039,-0.13281 7.484,-0.13281 l 27.649,0 0,74.86716 z M 768.789,14.5508 c -7.191,-2.4492 -10.074,-2.8906 -14.109,-2.8906 -1.735,-0.1368 -6.328,0.1367 -10.797,2.1679 -10.078,4.6016 -11.379,15.2578 -11.809,18.5782 -0.574,3.4492 -0.574,6.3281 -0.574,7.7695 0,2.4453 0,18.293 11.082,25.4844 4.32,2.7343 8.496,3.1679 10.363,3.1679 9.516,0 13.539,-6.625 14.696,-9.8008 1.148,-3.0078 1.148,-6.4648 1.148,-7.4804 l 0,-36.9961 z m 31.879,6.0469 -0.133,-16.41801 c 3.735,-1.4375 9.778,-4.027346 19.426,-4.17578375 11.094,0 16.848,3.45703375 20.73,6.75781375 7.352,6.49608 7.926,14.26558 7.926,18.00778 0,2.5938 -0.574,10.0782 -6.918,15.2578 -4.164,3.4571 -10.219,5.3282 -15.261,7.3555 -4.458,1.7188 -6.766,3.0078 -8.493,4.6016 -1.73,1.4453 -2.734,3.7383 -2.734,6.1797 0,1.1679 0.277,3.6132 2.172,5.9023 3.305,3.8984 9.773,4.1758 10.781,4.1758 5.035,0 9.215,-2.0078 13.109,-5.0391 1.301,-0.8633 2.442,-1.7148 3.594,-2.7304 l 0,14.539 c -5.762,1.8789 -10.078,3.0352 -16.121,3.0352 -4.035,0 -7.777,-0.5821 -9.219,-0.8672 -4.605,-1.0039 -7.629,-2.5938 -9.214,-3.5938 -6.333,-4.1757 -10.368,-11.6718 -10.368,-19.1562 0,-2.168 0.438,-8.4961 4.899,-13.2539 4.328,-4.5977 12.234,-7.0508 13.386,-7.4805 6.055,-2.0156 15.129,-4.6094 15.129,-12.668 0,-1.0078 -0.16,-3.1679 -1.726,-5.3359 -1.59,-2.1641 -4.613,-5.1719 -10.945,-5.1719 -9.219,0 -15.844,5.6172 -17.86,7.4844 l -2.16,2.5938 z m 127.559,17.9882 c -0.153,2.8946 0.289,13.25 -4.032,22.1758 -7.773,15.6914 -24.484,17.1446 -29.66,17.1446 -4.762,0 -18.012,-1.1641 -27.363,-12.2461 -8.637,-10.2305 -9.211,-23.3164 -9.211,-27.5079 0,-17.8437 9.211,-27.207 15.113,-31.23433 4.039,-2.89063 12.102,-6.765626 24.332,-6.91406375 9.504,0 16.571,2.30468375 19.879,3.45703375 3.735,1.43359 6.91,3.16015 8.199,3.88281 l 0,14.54685 c -3.312,-3.1601 -4.464,-4.3281 -6.468,-5.7539 -7.344,-5.4844 -14.114,-6.0547 -17.864,-6.0547 -6.05,0 -12.953,1.875 -17.269,6.1875 -5.469,5.1914 -7.059,13.1016 -7.5,15.1211 -0.426,2.5938 -0.426,4.4649 -0.563,7.1953 l 52.407,0 z m -51.704,9.5039 c 0.301,2.1641 0.59,4.3321 1.305,6.4805 0.863,2.7305 5.192,13.3945 16.274,13.5352 1.578,0 4.898,-0.2891 8.496,-2.5938 6.472,-4.0234 7.48,-10.2187 7.922,-17.2734 l -33.997,-0.1485 z m 82.29,64.9412 -17.133,0 0,-111.00756 17.133,0 0,111.00756"
             style="fill:#0c0b0b;fill-opacity:1;fill-rule:nonzero;stroke:none"
             id="path22"
             inkscape:connector-curvature="0" /><path
             d="m 544.758,249.855 -17.57,0 0,-57.886 c 0.14,-8.91 0,-13.535 -1.149,-17.848 -1.305,-4.469 -3.598,-7.336 -4.754,-8.773 -2.305,-2.598 -5.762,-5.77 -13.394,-7.063 -3.012,-0.574 -5.465,-0.574 -6.606,-0.574 -15.117,0 -21.324,8.062 -23.617,13.965 -1.734,4.613 -2.172,10.078 -2.023,20.293 l 0,57.886 -17.571,0 0,-54.14 c -0.14,-11.945 0.305,-18.426 2.02,-23.75 1.863,-6.34 5.902,-12.254 11.23,-16.262 4.61,-3.762 14.844,-9.375 29.961,-9.375 13.676,0 23.449,4.75 27.93,7.481 10.496,6.918 13.535,17.004 14.535,21.617 1.008,4.89 1.156,9.929 1.008,20.289 l 0,54.14 z m 17.707,-27.644 0,-74.004 17.137,0 0,61.184 c 2.882,1.453 6.043,3.172 12.808,3.172 11.086,0 15.418,-5.04 16.988,-9.93 0.723,-2.305 1.016,-4.598 1.161,-9.649 l 0,-44.777 16.984,0 0,44.777 c -0.57,8.36 -1.152,15.692 -7.91,21.454 -8.203,7.046 -19.012,7.773 -40.031,7.773 l -17.137,0 z m 102.375,0 -17.141,0 0,-74.012 17.141,0 0,74.012 z m -18.719,18.43 c 0,-5.618 4.602,-10.078 10.074,-10.078 5.614,0 10.223,4.46 10.223,10.078 0,5.621 -4.449,10.214 -10.078,10.214 -5.617,0 -10.219,-4.593 -10.219,-10.214 m 113.317,-18.43 -15.407,0 -21.172,-59.031 c -1.011,-3.164 -1.156,-3.895 -3.457,-3.895 l -22.312,62.926 -18.574,0 27.347,-74.004 8.789,0 c 5.328,0.145 9.504,0.289 14.114,3.164 6.054,3.895 8.925,11.238 11.23,17.57 l 19.442,53.27 z m 72.98,-37.434 c -0.145,2.879 0.281,13.258 -4.027,22.172 -7.782,15.703 -24.485,17.129 -29.664,17.129 -4.762,0 -17.997,-1.148 -27.348,-12.23 -8.649,-10.227 -9.223,-23.328 -9.223,-27.512 0,-17.848 9.223,-27.203 15.125,-31.238 4.024,-2.868 12.082,-6.77 24.321,-6.907 9.511,0 16.558,2.305 19.882,3.45 3.731,1.437 6.907,3.168 8.204,3.898 l 0,14.535 c -3.309,-3.168 -4.473,-4.324 -6.481,-5.765 -7.355,-5.461 -14.109,-6.039 -17.859,-6.039 -6.047,0 -12.95,1.867 -17.285,6.191 -5.465,5.187 -7.047,13.098 -7.473,15.117 -0.438,2.594 -0.438,4.465 -0.574,7.199 l 52.402,0 z m -51.688,9.5 c 0.286,2.164 0.575,4.321 1.286,6.489 0.867,2.73 5.179,13.386 16.285,13.527 1.566,0 4.89,-0.273 8.496,-2.582 6.469,-4.039 7.476,-10.231 7.91,-17.285 l -33.977,-0.149 z m 65.227,27.934 0,-74.004 17.129,0 0,62.914 c 2.73,1.305 5.902,2.594 12.379,2.164 -0.57,-0.859 -1.578,-2.015 -1.578,-4.472 0,-2.153 0.578,-3.598 0.863,-4.309 1.582,-3.602 5.039,-5.617 9.078,-5.617 6.469,0 10.352,4.75 10.352,10.941 0,3.457 -1.442,5.754 -2,6.77 -3.473,5.187 -10.086,5.32 -15.711,5.613 l -30.512,0 z m 56.895,-55.426 -0.137,-16.418 c 3.734,-1.437 9.785,-4.039 19.441,-4.176 11.074,0 16.848,3.45 20.719,6.77 7.344,6.48 7.938,14.25 7.938,17.996 0,2.594 -0.594,10.082 -6.93,15.273 -4.18,3.442 -10.223,5.313 -15.262,7.329 -4.461,1.718 -6.766,3.019 -8.492,4.609 -1.727,1.445 -2.731,3.742 -2.731,6.184 0,1.152 0.282,3.597 2.165,5.906 3.292,3.894 9.785,4.18 10.789,4.18 5.039,0 9.214,-2.012 13.109,-5.047 1.285,-0.856 2.445,-1.719 3.59,-2.731 l 0,14.535 c -5.758,1.868 -10.078,3.039 -16.117,3.039 -4.039,0 -7.774,-0.582 -9.219,-0.867 -4.602,-1.019 -7.633,-2.594 -9.215,-3.609 -6.328,-4.176 -10.367,-11.649 -10.367,-19.145 0,-2.168 0.426,-8.488 4.902,-13.242 4.317,-4.601 12.227,-7.055 13.391,-7.488 6.039,-2.016 15.105,-4.602 15.105,-12.672 0,-1.004 -0.14,-3.172 -1.73,-5.324 -1.571,-2.176 -4.598,-5.184 -10.946,-5.184 -9.199,0 -15.82,5.606 -17.843,7.488 l -2.16,2.594 z m 81.488,55.426 -17.121,0 0,-74.012 17.121,0 0,74.012 z m -18.711,18.43 c 0,-5.618 4.598,-10.078 10.074,-10.078 5.629,0 10.231,4.46 10.231,10.078 0,5.621 -4.465,10.214 -10.075,10.214 -5.632,0 -10.23,-4.593 -10.23,-10.214 m 72.991,-18.43 -12.95,0 0,25.34 c 0,1.726 0.14,4.476 -2.31,4.476 -0.56,0 -1.59,-0.304 -2,-0.582 -0.73,-0.59 -0.87,-1.734 -1.02,-3.597 -1.01,-6.633 -2.88,-13.114 -7.2,-18.153 -5.9,-7.195 -12.23,-7.347 -15.984,-7.632 l 0,-11.372 11.234,0 0,-62.484 17.28,0 0,62.484 12.95,0 0,11.52 z m 86.75,0 -15.55,0 -23.33,-65.363 -23.17,65.363 -18.88,0 28.09,-73.859 c 1.43,-0.582 2.29,-1.008 2.87,-1.45 2.02,-1.437 3.03,-4.035 3.03,-6.476 0,-4.742 -3.17,-7.047 -4.61,-7.91 -4.33,-2.313 -12.81,-1.153 -13.1,-1.153 l -0.15,-12.965 c 5.9,0 11.66,0 17.29,2.161 6.9,2.453 10.35,7.054 13.52,13.675 2.16,4.184 3.74,8.633 5.33,13.11 l 28.66,74.867"
             style="fill:#0c0b0b;fill-opacity:1;fill-rule:nonzero;stroke:none"
             id="path24"
             inkscape:connector-curvature="0" /><path
             d="m 121.41,233.145 c 0,4.57 7.035,4.57 7.035,0 l 0,-95.762 c 0,-4.57 -7.035,-4.57 -7.035,0 l 0,95.762 z m 0,26.402 c 0,-4.57 7.035,-4.57 7.035,0 l 0,108.961 -7.035,0 0,-108.961 z m 0,-148.567 c 0,4.567 7.047,4.567 7.047,0 l 0,-108.95656 -7.047,0 0,108.95656 z m 124.945,26.403 c 0,-4.57 7.04,-4.57 7.04,0 l 0,95.762 c 0,4.57 -7.04,4.57 -7.04,0 l 0,-95.762 z m 0,231.125 7.04,0 0,-108.961 c 0,-4.57 -7.04,-4.57 -7.04,0 l 0,108.961 z m 0,-366.48456 7.04,0 0,108.95656 c 0,4.567 -7.04,4.567 -7.04,0 l 0,-108.95656 z M 236.379,249.805 c 4.66,0 4.66,-6.899 0,-6.899 l -97.945,0 c -4.664,0 -4.664,6.899 0,6.899 l 97.945,0 z M 138.434,127.633 c -4.664,0 -4.664,-6.895 0,-6.895 l 97.945,0 c 4.66,0 4.66,6.895 0,6.895 l -97.945,0 z m 236.39,122.172 0,-6.899 -111.457,0 c -4.672,0 -4.672,6.899 0,6.899 l 111.457,0 z m -374.82790625,0 0,-6.899 111.44190625,0 c 4.671,0 4.671,6.899 0,6.899 l -111.44190625,0 z M 374.824,127.633 l 0,-6.895 -111.457,0 c -4.672,0 -4.672,6.895 0,6.895 l 111.457,0 z m -374.82790625,0 0,-6.895 111.44190625,0 c 4.671,0 4.671,6.895 0,6.895 l -111.44190625,0 z M 182.543,194.863 c 3.312,-3.222 -1.676,-8.101 -4.977,-4.879 -3.293,3.243 -45.562,44.563 -45.562,44.563 -3.305,3.223 1.687,8.105 4.984,4.867 2.84,-2.777 45.555,-44.551 45.555,-44.551 m -45.555,-77.617 c -3.297,3.238 -8.289,-1.641 -4.984,-4.867 0,0 42.269,-41.3282 45.562,-44.5509 3.301,-3.2343 8.289,1.6446 4.977,4.8672 0,0 -42.715,41.7777 -45.555,44.5507 m 170.524,77.617 c 3.301,-3.222 -1.676,-8.101 -4.989,-4.879 -3.293,3.243 -45.554,44.563 -45.554,44.563 -3.313,3.223 1.676,8.105 4.972,4.867 2.856,-2.777 45.571,-44.551 45.571,-44.551 m -64.723,39.684 c 3.316,3.23 -1.676,8.105 -4.973,4.879 0,0 -42.269,-41.324 -45.57,-44.555 -3.297,-3.23 1.68,-8.101 4.988,-4.883 0,0 42.711,41.782 45.555,44.559 M 197.234,67.8359 c -3.308,-3.2343 -8.285,1.6485 -4.988,4.8672 3.301,3.2383 45.57,44.5549 45.57,44.5549 3.297,3.234 8.289,-1.645 4.973,-4.863 -2.844,-2.79 -45.555,-44.5591 -45.555,-44.5591 M 117.898,234.547 c 3.313,3.23 -1.668,8.105 -4.968,4.879 0,0 -42.2698,-41.324 -45.5706,-44.555 -3.2969,-3.23 1.6719,-8.101 4.9844,-4.883 0,0 42.7192,41.782 45.5542,44.559 m 64.645,-58.895 c 3.312,3.239 -1.676,8.11 -4.977,4.879 -3.293,-3.226 -45.562,-44.551 -45.562,-44.551 -3.305,-3.23 1.687,-8.097 4.984,-4.875 2.84,2.786 45.555,44.547 45.555,44.547 m -45.555,77.629 c -3.297,-3.23 -8.289,1.645 -4.984,4.867 0,0 42.269,41.329 45.562,44.551 3.301,3.239 8.289,-1.64 4.977,-4.867 0,0 -42.715,-41.762 -45.555,-44.551 m 170.524,-77.629 c 3.301,3.239 -1.676,8.11 -4.989,4.879 -3.293,-3.226 -45.554,-44.551 -45.554,-44.551 -3.313,-3.23 1.676,-8.097 4.972,-4.875 2.856,2.786 45.571,44.547 45.571,44.547 M 242.789,135.98 c 3.301,-3.23 -1.676,-8.109 -4.984,-4.875 0,0 -42.258,41.317 -45.559,44.547 -3.305,3.239 1.68,8.11 4.981,4.879 0,0 42.718,-41.769 45.562,-44.551 m -45.562,166.719 c -3.301,3.239 -8.286,-1.64 -4.981,-4.875 3.301,-3.23 45.559,-44.558 45.559,-44.558 3.308,-3.215 8.285,1.644 4.984,4.882 -2.844,2.782 -45.562,44.551 -45.562,44.551 M 117.441,136.402 c 3.297,-3.238 -1.687,-8.117 -4.984,-4.879 0,0 -42.2578,41.313 -45.5586,44.551 -3.3046,3.239 1.6797,8.106 4.9766,4.879 0,0 42.73,-41.777 45.566,-44.551 M 346.07,35.0547 341.086,30.1875 256.949,112.441 c -3.312,3.239 1.672,8.106 4.969,4.879 2.855,-2.785 84.152,-82.2653 84.152,-82.2653 M 112.895,117.301 c 3.3,3.222 8.289,-1.656 4.976,-4.879 L 33.7305,30.168 28.7617,35.0195 c 0,0 81.2773,79.4965 84.1333,82.2815 m 228.191,223.086 4.984,-4.879 -84.152,-82.266 c -3.297,-3.238 -8.281,1.641 -4.969,4.867 2.836,2.786 84.137,82.278 84.137,82.278 M 117.883,258.086 c 3.301,-3.227 -1.688,-8.102 -4.988,-4.867 l -84.1333,82.269 4.9766,4.867 c 0,0 81.3007,-79.48 84.1447,-82.269 m 228.187,-100.902 -4.984,-4.848 -23.879,23.332 c -3.301,3.234 1.676,8.102 4.973,4.875 2.859,-2.785 23.89,-23.359 23.89,-23.359 m -28.902,37.718 c -3.297,-3.226 1.687,-8.101 4.988,-4.863 l 23.883,23.352 -4.976,4.863 c 0,0 -21.036,-20.574 -23.895,-23.352 m -101.055,145.52 4.981,-4.879 -23.867,-23.34 c -3.313,-3.238 -8.286,1.637 -4.985,4.86 2.836,2.796 23.871,23.359 23.871,23.359 m -38.511,-28.219 c 3.3,-3.238 8.273,1.637 4.976,4.86 l -23.883,23.359 -4.98,-4.879 c 0,0 21.043,-20.566 23.887,-23.34 m -148.8364,-155.07 4.9883,-4.871 23.8789,23.351 c 3.3008,3.227 -1.6836,8.102 -4.9805,4.867 -2.8515,-2.785 -23.8867,-23.347 -23.8867,-23.347 m 28.8477,37.73 c 3.3086,-3.222 -1.6758,-8.101 -4.9766,-4.879 l -23.875,23.356 4.9688,4.875 c 0,0 21.0312,-20.567 23.8828,-23.352 M 158.672,30.1523 l -4.981,4.8594 23.875,23.3555 c 3.301,3.2266 8.289,-1.6367 4.993,-4.875 -2.84,-2.7774 -23.887,-23.3399 -23.887,-23.3399 m 38.574,28.2266 c -3.301,3.2383 -8.285,-1.6406 -4.984,-4.8789 l 23.883,-23.332 4.972,4.8515 c 0,0 -21.035,20.5782 -23.871,23.3594"
             style="fill:#0c0b0b;fill-opacity:1;fill-rule:nonzero;stroke:none"
             id="path26"
             inkscape:connector-curvature="0" /></g></g></g></g></svg>